<?xml version="1.0" encoding="UTF-8"?>
<svg xmlns="http://www.w3.org/2000/svg" xmlns:xlink="http://www.w3.org/1999/xlink" version="1.2" >
<font id="Theinhardt Medium Regular">
<font-face  font-family="Theinhardt Medium" units-per-em="1000" ascent="802" descent="-198" font-style="normal" font-weight="500" font-stretch="normal" cap-height="680" x-height="476" underline-position="-98" underline-thickness="45" />
<missing-glyph  horiz-adv-x="644" d="M50 289 L359 598 Q375 589 385 575 L50 240 L50 289 Z M50 191 L397 538 L397 523 Q397 506 387.5 492 Q378 478 364 465 Q350 452 334 440 Q318 428 305 415 Q282 393 269 361 L50 142 L50 191 Z M55 0 L316 261 L365 261 L272 168 L249 168 L249 145 L104 0 L55 0 Z M594 441 L594 392 L370 168 L321 168 L594 441 Z M50 387 L198 535 L237 533 Q237 560 256 584 Q275 608 312 608 L320 608 L50 338 L50 387 Z M349 0 L382 33 L384 33 L384 35 L594 245 L594 196 L398 0 L349 0 Z M594 343 L594 294 L384 84 L384 133 L594 343 Z M50 93 L256 299 L256 261 L267 261 L50 44 L50 93 Z M246 779 L295 779 L251 735 Q197 721 158 681.5 Q119 642 104 588 L50 534 L50 583 L246 779 Z M594 539 L594 490 L378 274 L378 281 Q378 297 383 307.5 Q388 318 397 327 Q406 336 419 345 Q432 354 448 366 Q456 372 468.5 381.5 Q481 391 494.5 404.5 Q508 418 519.5 437 Q531 456 537 482 L594 539 Z M148 779 L197 779 L50 632 L50 681 L148 779 Z M447 0 L594 147 L594 98 L496 0 L447 0 Z M540 779 L589 779 L485 675 Q472 687 459 698 L540 779 Z M50 485 L106 541 L152 538 L50 436 L50 485 Z M594 735 L594 686 L524 616 Q517 631 506 647 L594 735 Z M153 0 L249 96 L249 47 L202 0 L153 0 Z M442 779 L491 779 L429 717 Q412 726 395 732 L442 779 Z M594 637 L594 588 L542 536 Q542 547 540 557.5 Q538 568 536 579 L594 637 Z M344 779 L393 779 L355 741 Q348 742 341 742.5 Q334 743 327 743 Q324 743 320.5 742.5 Q317 742 314 742 L307 742 L344 779 Z M251 0 L284 33 L333 33 L300 0 L251 0 Z M594 0 L545 0 L594 49 L594 0 Z M99 779 L50 730 L50 779 L99 779 Z " />
<glyph glyph-name="NULL" d="" />
<glyph glyph-name="carriagereturn" unicode="&#xd;" horiz-adv-x="822" d="M414 475 L218 288 L643 288 L643 475 L757 475 L757 188 L218 188 L414 0 L272 0 L35 238 L272 475 L414 475 Z " />
<glyph glyph-name="space" unicode="&#x20;" horiz-adv-x="200" d="" />
<glyph glyph-name="numbersign" unicode="&#x23;" horiz-adv-x="674" d="M640 372 L487 372 L472 278 L618 278 L618 178 L457 178 L428 0 L327 0 L356 178 L264 178 L235 0 L134 0 L163 178 L33 178 L33 278 L179 278 L193 372 L55 372 L55 473 L210 473 L243 680 L344 680 L310 473 L403 473 L436 680 L537 680 L503 473 L640 473 L640 372 Z M279 278 L372 278 L386 372 L294 372 L279 278 Z " />
<glyph glyph-name="dollar" unicode="&#x24;" horiz-adv-x="617" d="M477 500 Q457 524 429.5 542.5 Q402 561 367 571 L367 390 L370 390 Q416 379 455.5 365.5 Q495 352 523.5 331 Q552 310 568 279 Q584 248 584 203 Q584 120 527 66 Q470 12 367 1 L367 -99 L262 -99 L262 2 Q219 8 182.5 21 Q146 34 116.5 52 Q87 70 64.5 91 Q42 112 27 133 L125 203 Q142 174 177.5 147.5 Q213 121 262 109 L262 294 L255 296 Q214 305 177.5 319 Q141 333 114 354.5 Q87 376 71 408 Q55 440 55 485 Q55 524 70.5 557 Q86 590 114 615 Q142 640 179.5 656 Q217 672 262 678 L262 775 L367 775 L367 676 Q405 670 436 658.5 Q467 647 492 632 Q517 617 535 601 Q553 585 566 572 L477 500 Z M458 191 Q458 225 433.5 242.5 Q409 260 367 271 L367 105 Q412 113 435 136 Q458 159 458 191 Z M182 491 Q182 459 201 442 Q220 425 262 414 L262 575 Q224 567 203 544.5 Q182 522 182 491 Z " />
<glyph glyph-name="percent" unicode="&#x25;" horiz-adv-x="914" d="M352 471 Q352 430 343 392.5 Q334 355 314.5 326 Q295 297 264.5 279.5 Q234 262 191 262 Q146 262 115.5 279.5 Q85 297 66 326.5 Q47 356 39 393.5 Q31 431 31 471 Q31 510 38.5 549 Q46 588 64 620 Q82 652 113.5 672 Q145 692 193 692 Q243 692 274 671 Q305 650 322.5 618 Q340 586 346 546.5 Q352 507 352 471 Z M254 470 Q254 531 239 566 Q224 601 192 601 Q160 601 146 566 Q132 531 132 477 Q132 451 135 428 Q138 405 145 388 Q152 371 163.5 361.5 Q175 352 192 352 Q227 352 240.5 385 Q254 418 254 470 Z M326 0 L218 0 L575 680 L680 680 L326 0 Z M883 202 Q883 161 874 123.5 Q865 86 845.5 57 Q826 28 795.5 10.5 Q765 -7 722 -7 Q677 -7 646.5 10.5 Q616 28 597 57.5 Q578 87 570 124.5 Q562 162 562 202 Q562 241 569.5 280 Q577 319 595 351 Q613 383 644.5 403 Q676 423 724 423 Q774 423 805 402 Q836 381 853.5 349 Q871 317 877 277.5 Q883 238 883 202 Z M785 201 Q785 262 770 297 Q755 332 723 332 Q691 332 677 297 Q663 262 663 208 Q663 182 666 159 Q669 136 676 119 Q683 102 694.5 92.5 Q706 83 723 83 Q758 83 771.5 116 Q785 149 785 201 Z " />
<glyph glyph-name="ampersand" unicode="&#x26;" horiz-adv-x="657" d="M464 72 Q423 27 375 7.5 Q327 -12 266 -12 Q219 -12 178.5 1.5 Q138 15 108.5 40.5 Q79 66 62.5 103.5 Q46 141 46 190 Q46 229 58 259.5 Q70 290 90.5 314 Q111 338 138 357 Q165 376 194 392 Q171 421 151.5 456 Q132 491 132 540 Q132 570 143.5 598 Q155 626 177.5 647.5 Q200 669 232.5 682 Q265 695 307 695 Q350 695 382.5 683 Q415 671 436.5 651 Q458 631 469 604.5 Q480 578 480 548 Q480 488 448 445.5 Q416 403 359 370 L451 261 Q458 282 462 307.5 Q466 333 471 363 L578 335 Q571 287 560 246.5 Q549 206 532 167 L671 0 L522 0 L464 72 Z M259 316 Q239 304 220.5 291.5 Q202 279 188.5 264 Q175 249 167 232 Q159 215 159 194 Q159 169 168.5 150 Q178 131 193.5 118.5 Q209 106 230 99.5 Q251 93 274 93 Q309 93 341.5 108 Q374 123 395 151 L259 316 Z M297 446 Q329 464 347.5 489 Q366 514 366 541 Q366 567 349 582.5 Q332 598 306 598 Q279 598 262.5 583 Q246 568 246 543 Q246 517 262 494 Q278 471 297 446 Z " />
<glyph glyph-name="quotesingle" unicode="&#x27;" horiz-adv-x="217" d="M145 387 L70 387 L51 600 L51 680 L167 680 L167 600 L145 387 Z " />
<glyph glyph-name="parenleft" unicode="&#x28;" horiz-adv-x="285" d="M166 -171 Q104 -68 72 37.5 Q40 143 40 261 Q40 372 71 482 Q102 592 159 690 L267 677 Q211 575 181.5 474 Q152 373 152 270 Q152 167 181.5 58.5 Q211 -50 271 -158 L166 -171 Z " />
<glyph glyph-name="parenright" unicode="&#x29;" horiz-adv-x="285" d="M14 -158 Q74 -50 103.5 58.5 Q133 167 133 270 Q133 373 103.5 474 Q74 575 18 677 L126 690 Q183 592 214 482 Q245 372 245 261 Q245 143 213 37.5 Q181 -68 119 -171 L14 -158 Z " />
<glyph glyph-name="asterisk" unicode="&#x2a;" horiz-adv-x="486" d="M291 540 L420 589 L454 488 L326 448 L414 338 L329 280 L243 390 L157 280 L71 338 L162 449 L32 488 L66 589 L195 540 L190 680 L296 680 L291 540 Z " />
<glyph glyph-name="plus" unicode="&#x2b;" horiz-adv-x="654" d="M381 0 L274 0 L274 246 L31 246 L31 352 L274 352 L274 597 L381 597 L381 352 L623 352 L623 246 L381 246 L381 0 Z " />
<glyph glyph-name="comma" unicode="&#x2c;" horiz-adv-x="241" d="M185 131 L185 29 Q185 15 184.5 -0.5 Q184 -16 183 -28 Q180 -55 173 -77 Q166 -99 152 -114.5 Q138 -130 114.5 -138.5 Q91 -147 56 -148 L56 -83 Q84 -81 98.5 -67 Q113 -53 113 -12 L113 0 L56 0 L56 131 L185 131 Z " />
<glyph glyph-name="hyphen" unicode="&#x2d;" horiz-adv-x="407" d="M61 214 L61 322 L346 322 L346 214 L61 214 Z " />
<glyph glyph-name="period" unicode="&#x2e;" horiz-adv-x="239" d="M184 132 L184 0 L55 0 L55 132 L184 132 Z " />
<glyph glyph-name="slash" unicode="&#x2f;" horiz-adv-x="519" d="M497 680 L139 0 L22 0 L381 680 L497 680 Z " />
<glyph glyph-name="zero" unicode="0" horiz-adv-x="590" d="M555 337 Q555 272 543 209.5 Q531 147 501.5 97.5 Q472 48 422.5 18 Q373 -12 297 -12 Q225 -12 175 15.5 Q125 43 94 90.5 Q63 138 49 201.5 Q35 265 35 337 Q35 398 48 461.5 Q61 525 91.5 576 Q122 627 172.5 659.5 Q223 692 297 692 Q368 692 417 662 Q466 632 497 582.5 Q528 533 541.5 469 Q555 405 555 337 Z M430 335 Q430 379 424 423.5 Q418 468 403 503.5 Q388 539 362.5 561.5 Q337 584 297 584 Q257 584 230.5 561.5 Q204 539 188.5 503.5 Q173 468 167 423.5 Q161 379 161 335 Q161 292 167 249 Q173 206 188.5 172 Q204 138 230.5 117 Q257 96 297 96 Q337 96 363 117 Q389 138 404 172 Q419 206 424.5 249 Q430 292 430 335 Z " />
<glyph glyph-name="one" unicode="1" horiz-adv-x="590" d="M417 0 L302 0 L302 444 L115 444 L115 535 L151 535 Q192 535 219.5 542.5 Q247 550 267 564 Q316 600 319 680 L417 680 L417 0 Z " />
<glyph glyph-name="two" unicode="2" horiz-adv-x="590" d="M69 414 Q64 428 60.5 445 Q57 462 57 486 Q57 531 74 568.5 Q91 606 122.5 633.5 Q154 661 198.5 676.5 Q243 692 297 692 Q349 692 391 677 Q433 662 463 634 Q493 606 509 567.5 Q525 529 525 481 Q525 423 501 373.5 Q477 324 439 280.5 Q401 237 355 199 Q309 161 264 128 L233 104 L233 103 L260 103 Q274 103 293.5 103.5 Q313 104 339 104 L541 104 L541 0 L48 0 L48 93 Q69 107 90 122 Q111 137 135.5 156 Q160 175 189.5 200 Q219 225 256 258 Q288 286 314.5 311 Q341 336 359.5 361 Q378 386 388.5 413.5 Q399 441 399 474 Q399 526 369 557 Q339 588 287 588 Q258 588 237 578 Q216 568 202.5 550.5 Q189 533 182 510.5 Q175 488 175 464 Q175 431 186 398 L69 414 Z " />
<glyph glyph-name="three" unicode="3" horiz-adv-x="590" d="M163 217 Q170 156 200 121.5 Q230 87 289 87 Q322 87 345 97 Q368 107 382.5 123.5 Q397 140 404 160.5 Q411 181 411 202 Q411 278 335 301 Q317 306 295.5 307 Q274 308 250 308 L205 308 L205 405 L260 405 Q280 405 296.5 406 Q313 407 327 411 Q362 420 379.5 444.5 Q397 469 397 501 Q397 519 390.5 536.5 Q384 554 371 567 Q358 580 337 588 Q316 596 288 596 Q255 596 232.5 584.5 Q210 573 196.5 556 Q183 539 177 518.5 Q171 498 170 480 L61 498 Q62 537 77 572.5 Q92 608 121.5 634.5 Q151 661 194 676.5 Q237 692 294 692 Q348 692 389 679 Q430 666 458.5 643 Q487 620 501.5 588 Q516 556 516 519 Q516 488 507 463.5 Q498 439 483 420 Q468 401 449 387 Q430 373 411 364 Q432 356 454.5 343.5 Q477 331 495 311 Q513 291 524.5 262 Q536 233 536 194 Q536 150 519.5 112.5 Q503 75 471.5 47 Q440 19 394.5 3.5 Q349 -12 290 -12 Q229 -12 184.5 3.5 Q140 19 110 46.5 Q80 74 63.5 113 Q47 152 43 200 L163 217 Z " />
<glyph glyph-name="four" unicode="4" horiz-adv-x="590" d="M338 248 L338 351 Q338 372 338.5 399 Q339 426 340 452.5 Q341 479 342 502 Q343 525 344 539 L343 539 Q332 516 308 476.5 Q284 437 252 390 L152 248 L338 248 Z M558 248 L558 149 L451 149 L451 0 L338 0 L338 149 L26 149 L26 238 L336 680 L451 680 L451 248 L558 248 Z " />
<glyph glyph-name="five" unicode="5" horiz-adv-x="590" d="M62 300 L114 680 L507 680 L497 574 L206 574 L182 421 Q187 427 198.5 434.5 Q210 442 227 449.5 Q244 457 267 462 Q290 467 318 467 Q368 467 409 451 Q450 435 479.5 405.5 Q509 376 525 333.5 Q541 291 541 237 Q541 186 525.5 140.5 Q510 95 479 61 Q448 27 401 7.5 Q354 -12 291 -12 Q195 -12 129.5 34 Q64 80 47 164 L165 195 Q174 150 205.5 120 Q237 90 290 90 Q355 90 385 129.5 Q415 169 415 231 Q415 291 384.5 330.5 Q354 370 289 370 Q240 370 210 344 Q180 318 169 276 L62 300 Z " />
<glyph glyph-name="six" unicode="6" horiz-adv-x="590" d="M423 482 Q419 498 411 517 Q403 536 389 552.5 Q375 569 354 580 Q333 591 304 591 Q271 591 246 574.5 Q221 558 204.5 531 Q188 504 179.5 468.5 Q171 433 170 395 Q179 404 193 414.5 Q207 425 226.5 433.5 Q246 442 270 448 Q294 454 324 454 Q369 454 409 440.5 Q449 427 480 399.5 Q511 372 529 331 Q547 290 547 235 Q547 179 530 133.5 Q513 88 481 55.5 Q449 23 403 5.5 Q357 -12 300 -12 Q240 -12 192.5 8.5 Q145 29 112 71.5 Q79 114 61 178.5 Q43 243 43 332 Q43 417 60 484 Q77 551 111 597 Q145 643 194.5 667.5 Q244 692 309 692 Q363 692 403 677 Q443 662 470.5 636.5 Q498 611 514 577 Q530 543 538 506 L423 482 Z M420 228 Q420 284 388.5 316.5 Q357 349 300 349 Q275 349 254 342 Q233 335 216.5 325 Q200 315 188.5 303.5 Q177 292 172 283 Q172 253 178 219 Q184 185 199 156.5 Q214 128 238.5 109.5 Q263 91 300 91 Q354 91 387 128 Q420 165 420 228 Z " />
<glyph glyph-name="seven" unicode="7" horiz-adv-x="590" d="M182 0 Q190 48 203 96.5 Q216 145 233 195 Q268 298 317.5 392 Q367 486 427 574 L158 574 L158 446 L45 446 L45 680 L564 680 L564 582 Q461 455 398.5 308 Q336 161 315 0 L182 0 Z " />
<glyph glyph-name="eight" unicode="8" horiz-adv-x="590" d="M295 -12 Q176 -12 108.5 41.5 Q41 95 41 189 Q41 249 71 288.5 Q101 328 157 349 Q138 358 120.5 370.5 Q103 383 89.5 402 Q76 421 68 446 Q60 471 60 504 Q60 544 76 578.5 Q92 613 122.5 638.5 Q153 664 196.5 678 Q240 692 295 692 Q350 692 393.5 678 Q437 664 467.5 638.5 Q498 613 514 578.5 Q530 544 530 504 Q530 471 522 446 Q514 421 500.5 402 Q487 383 469.5 370.5 Q452 358 433 349 Q489 328 519 288.5 Q549 249 549 189 Q549 95 481.5 41.5 Q414 -12 295 -12 Z M295 591 Q263 591 240.5 583 Q218 575 204 561.5 Q190 548 183 531 Q176 514 176 495 Q176 477 183 459.5 Q190 442 205 427.5 Q220 413 242.5 404.5 Q265 396 295 396 Q325 396 347.5 404.5 Q370 413 385 427.5 Q400 442 407 459.5 Q414 477 414 495 Q414 514 407 531 Q400 548 386 561.5 Q372 575 349 583 Q326 591 295 591 Z M295 302 Q231 302 196.5 273.5 Q162 245 162 199 Q162 151 198 122 Q234 93 295 93 Q355 93 391.5 119.5 Q428 146 428 200 Q428 246 393 274 Q358 302 295 302 Z " />
<glyph glyph-name="nine" unicode="9" horiz-adv-x="590" d="M167 198 Q171 182 179 163 Q187 144 201 128 Q215 112 236 101 Q257 90 286 90 Q319 90 344 106.5 Q369 123 385.5 150 Q402 177 410.5 212 Q419 247 420 285 Q411 276 397 265.5 Q383 255 363.5 246.5 Q344 238 320 232 Q296 226 266 226 Q221 226 181 239.5 Q141 253 110 280.5 Q79 308 61 349 Q43 390 43 445 Q43 501 60 546.5 Q77 592 109 624.5 Q141 657 187 674.5 Q233 692 290 692 Q350 692 397.5 671.5 Q445 651 478 608.5 Q511 566 529 501 Q547 436 547 348 Q547 263 530 196 Q513 129 479 83 Q445 37 395.5 12.5 Q346 -12 281 -12 Q227 -12 187 3 Q147 18 119.5 43.5 Q92 69 75.5 102.5 Q59 136 52 174 L167 198 Z M170 453 Q170 397 201.5 364.5 Q233 332 290 332 Q315 332 336 339 Q357 346 373.5 356 Q390 366 401.5 377.5 Q413 389 418 398 Q418 428 412 461.5 Q406 495 391 523.5 Q376 552 351.5 571 Q327 590 290 590 Q236 590 203 553 Q170 516 170 453 Z " />
<glyph glyph-name="colon" unicode="&#x3a;" horiz-adv-x="254" d="M192 132 L192 0 L63 0 L63 132 L192 132 Z M192 476 L192 344 L63 344 L63 476 L192 476 Z " />
<glyph glyph-name="semicolon" unicode="&#x3b;" horiz-adv-x="256" d="M192 476 L192 344 L63 344 L63 476 L192 476 Z M192 131 L192 29 Q192 15 191.5 -0.5 Q191 -16 190 -28 Q187 -55 180 -77 Q173 -99 159 -114.5 Q145 -130 121.5 -138.5 Q98 -147 63 -148 L63 -83 Q91 -81 105.5 -67 Q120 -53 120 -12 L120 0 L63 0 L63 131 L192 131 Z " />
<glyph glyph-name="less" unicode="&#x3c;" horiz-adv-x="716" d="M668 -26 L28 292 L28 380 L668 696 L668 586 L169 338 L668 84 L668 -26 Z " />
<glyph glyph-name="equal" unicode="&#x3d;" horiz-adv-x="811" d="M743 332 L69 332 L69 420 L743 420 L743 332 Z M743 166 L69 166 L69 254 L743 254 L743 166 Z " />
<glyph glyph-name="greater" unicode="&#x3e;" horiz-adv-x="716" d="M48 84 L547 338 L48 586 L48 696 L688 380 L688 292 L48 -26 L48 84 Z " />
<glyph glyph-name="question" unicode="&#x3f;" horiz-adv-x="494" d="M51 406 Q40 426 35 449.5 Q30 473 30 498 Q30 537 44.5 572 Q59 607 86.5 634 Q114 661 154.5 676.5 Q195 692 246 692 Q303 692 344 676 Q385 660 412 633 Q439 606 451.5 571 Q464 536 464 498 Q464 446 441.5 402.5 Q419 359 376 322 L343 295 Q326 280 314.5 269 Q303 258 296 247 Q289 236 286 223.5 Q283 211 283 195 L283 163 L175 163 L175 201 Q175 224 177.5 243.5 Q180 263 188 281 Q196 299 209.5 316.5 Q223 334 246 352 L288 387 Q317 410 329 438 Q341 466 341 497 Q341 538 316.5 564 Q292 590 244 590 Q195 590 170.5 562.5 Q146 535 146 493 Q146 466 155.5 438.5 Q165 411 180 387 L51 406 Z M288 125 L288 0 L170 0 L170 125 L288 125 Z " />
<glyph glyph-name="at" unicode="&#x40;" horiz-adv-x="830" d="M625 87 Q645 87 660.5 101.5 Q676 116 686.5 140 Q697 164 702.5 195.5 Q708 227 708 262 Q708 313 693 362.5 Q678 412 645 451 Q612 490 560.5 513.5 Q509 537 437 537 Q360 537 302 510 Q244 483 205.5 439 Q167 395 147.5 338.5 Q128 282 128 223 Q128 146 153 86.5 Q178 27 220.5 -14 Q263 -55 320.5 -76.5 Q378 -98 443 -98 Q526 -98 597.5 -66 Q669 -34 729 35 L772 -29 Q705 -102 619.5 -137 Q534 -172 439 -172 Q357 -172 284.5 -147.5 Q212 -123 157.5 -74 Q103 -25 71 49 Q39 123 39 221 Q39 301 66.5 372 Q94 443 146 496.5 Q198 550 271.5 581 Q345 612 437 612 Q528 612 594.5 582 Q661 552 704 504 Q747 456 768 395.5 Q789 335 789 274 Q789 221 778.5 173.5 Q768 126 746 90.5 Q724 55 689 34.5 Q654 14 605 14 Q569 14 541.5 26 Q514 38 509 59 L508 59 Q502 53 492 45 Q482 37 467.5 30.5 Q453 24 432.5 19 Q412 14 385 14 Q357 14 330.5 21.5 Q304 29 284 45 Q264 61 251.5 85.5 Q239 110 239 145 Q239 176 249.5 198 Q260 220 279.5 235 Q299 250 325.5 259 Q352 268 385 274 L475 290 Q492 293 497 297 Q502 301 502 313 L502 319 Q502 371 428 371 Q343 371 344 299 L252 304 Q252 342 266 369 Q280 396 304.5 413.5 Q329 431 362 439 Q395 447 432 447 Q467 447 497 440.5 Q527 434 548.5 420 Q570 406 582.5 382 Q595 358 595 324 L595 125 Q595 87 625 87 Z M501 223 Q490 218 468 214 Q446 210 427 205 Q387 197 362.5 187 Q338 177 338 148 Q338 119 358 105 Q378 91 410 91 Q439 91 461 101.5 Q483 112 493 134 Q497 141 499 149.5 Q501 158 501 174 L501 223 Z " />
<glyph glyph-name="A" unicode="A" horiz-adv-x="615" d="M129 0 L4 0 L240 680 L376 680 L610 0 L481 0 L429 154 L182 154 L129 0 Z M331 468 Q323 492 317 513.5 Q311 535 306 555 L305 555 Q300 536 294 515 Q288 494 280 470 L216 261 L394 261 L331 468 Z " />
<glyph glyph-name="B" unicode="B" horiz-adv-x="648" d="M76 0 L76 680 L343 680 Q375 680 398.5 678.5 Q422 677 439.5 673.5 Q457 670 470.5 665.5 Q484 661 496 655 Q537 635 561 596 Q585 557 585 503 Q585 451 559 414 Q533 377 495 360 Q542 341 575 299.5 Q608 258 608 194 Q608 137 583 94.5 Q558 52 515 29 Q503 22 489 16.5 Q475 11 457 7.5 Q439 4 415 2 Q391 0 358 0 L76 0 Z M196 106 L339 106 Q383 106 406.5 109.5 Q430 113 447 123 Q465 134 476.5 155 Q488 176 488 205 Q488 234 476.5 255 Q465 276 447 287 Q429 298 405 301 Q381 304 339 304 L196 304 L196 106 Z M467 489 Q467 515 454 535 Q441 555 421 564 Q407 571 388.5 573.5 Q370 576 334 576 L196 576 L196 401 L334 401 Q357 401 383.5 402.5 Q410 404 430 416 Q447 427 457 445.5 Q467 464 467 489 Z " />
<glyph glyph-name="C" unicode="C" horiz-adv-x="666" d="M643 156 Q631 132 610 103 Q589 74 555 48.5 Q521 23 474.5 5.5 Q428 -12 365 -12 Q287 -12 226.5 14 Q166 40 124.5 86.5 Q83 133 62 197.5 Q41 262 41 340 Q41 418 63.5 482.5 Q86 547 128 593.5 Q170 640 230 666 Q290 692 365 692 Q424 692 469 676 Q514 660 547 636 Q580 612 601.5 585 Q623 558 636 536 L531 471 Q506 525 465.5 554.5 Q425 584 365 584 Q320 584 284.5 566.5 Q249 549 224 517.5 Q199 486 186 440.5 Q173 395 173 340 Q173 229 223 164 Q273 99 365 99 Q423 99 464 126.5 Q505 154 529 204 L643 156 Z " />
<glyph glyph-name="D" unicode="D" horiz-adv-x="684" d="M197 109 L276 109 Q333 109 376.5 114.5 Q420 120 452 150 Q476 175 494.5 225 Q513 275 513 338 Q513 401 495.5 450 Q478 499 443 529 Q413 555 371.5 562 Q330 569 263 569 L197 569 L197 109 Z M76 0 L76 680 L266 680 Q307 680 341.5 679 Q376 678 405.5 673.5 Q435 669 461.5 659.5 Q488 650 514 632 Q570 591 605.5 516.5 Q641 442 641 342 Q641 256 615.5 186 Q590 116 542 71 Q515 44 485.5 30 Q456 16 422.5 9 Q389 2 350 1 Q311 0 263 0 L76 0 Z " />
<glyph glyph-name="E" unicode="E" horiz-adv-x="612" d="M196 573 L196 405 L519 405 L519 298 L196 298 L196 107 L577 107 L577 0 L76 0 L76 680 L552 680 L552 573 L196 573 Z " />
<glyph glyph-name="F" unicode="F" horiz-adv-x="548" d="M196 573 L196 396 L501 396 L501 289 L196 289 L196 0 L76 0 L76 680 L514 680 L514 573 L196 573 Z " />
<glyph glyph-name="G" unicode="G" horiz-adv-x="700" d="M41 340 Q41 418 64 482.5 Q87 547 129.5 593.5 Q172 640 232 666 Q292 692 367 692 Q426 692 471 676 Q516 660 549 636 Q582 612 603.5 585 Q625 558 638 536 L533 471 Q508 525 467.5 554.5 Q427 584 367 584 Q322 584 286 566.5 Q250 549 225 517.5 Q200 486 186.5 440.5 Q173 395 173 340 Q173 284 186.5 239 Q200 194 225 162 Q250 130 286 112.5 Q322 95 367 95 Q410 95 440.5 107 Q471 119 491.5 140.5 Q512 162 522.5 193 Q533 224 535 263 L331 263 L331 372 L647 372 L647 0 L533 0 L533 52 Q504 26 457.5 7 Q411 -12 354 -12 Q280 -12 222 14 Q164 40 123.5 86.5 Q83 133 62 197.5 Q41 262 41 340 Z " />
<glyph glyph-name="H" unicode="H" horiz-adv-x="696" d="M196 298 L196 0 L76 0 L76 680 L196 680 L196 405 L500 405 L500 680 L620 680 L620 0 L498 0 L500 298 L196 298 Z " />
<glyph glyph-name="I" unicode="I" horiz-adv-x="272" d="M196 0 L76 0 L76 680 L196 680 L196 0 Z " />
<glyph glyph-name="J" unicode="J" horiz-adv-x="379" d="M307 680 L307 207 Q307 165 302.5 128.5 Q298 92 278 64 Q264 45 244 31.5 Q224 18 199.5 9 Q175 0 148 -4 Q121 -8 94 -8 Q75 -8 56 -7 Q37 -6 18 -1 L18 106 Q45 100 78 100 Q110 100 130.5 107 Q151 114 163 127 Q177 144 182 168.5 Q187 193 187 238 L187 680 L307 680 Z " />
<glyph glyph-name="K" unicode="K" horiz-adv-x="661" d="M661 0 L508 0 L288 311 L196 220 L196 0 L76 0 L76 680 L196 680 L196 373 L493 680 L655 680 L378 399 L661 0 Z " />
<glyph glyph-name="L" unicode="L" horiz-adv-x="503" d="M197 680 L197 110 L489 110 L489 0 L76 0 L76 680 L197 680 Z " />
<glyph glyph-name="M" unicode="M" horiz-adv-x="800" d="M339 0 L220 413 Q205 466 197 499 Q193 517 189 532 L187 532 Q189 508 191 446 Q193 384 193 288 L193 0 L76 0 L76 680 L255 680 L363 304 Q377 256 386.5 220.5 Q396 185 400 162 L402 162 Q407 182 418 222 Q429 262 440 305 L542 680 L724 680 L724 0 L607 0 L607 288 Q607 324 607.5 361 Q608 398 609.5 432.5 Q611 467 612 497 Q613 527 615 548 L613 548 Q608 526 599.5 493 Q591 460 578 415 L459 0 L339 0 Z " />
<glyph glyph-name="N" unicode="N" horiz-adv-x="692" d="M447 291 Q453 282 460.5 270 Q468 258 475.5 246 Q483 234 489.5 224 Q496 214 499 208 Q499 216 498.5 242 Q498 268 498 302.5 Q498 337 497.5 376.5 Q497 416 497 452 L497 680 L616 680 L616 0 L504 0 L236 409 Q228 421 220.5 433.5 Q213 446 207 456 Q201 466 197 472.5 Q193 479 193 479 Q193 467 193.5 442 Q194 417 194.5 383.5 Q195 350 195 310 Q195 270 195 227 L195 0 L76 0 L76 680 L188 680 L447 291 Z " />
<glyph glyph-name="O" unicode="O" horiz-adv-x="726" d="M41 340 Q41 418 63.5 482.5 Q86 547 128 593.5 Q170 640 229.5 666 Q289 692 363 692 Q437 692 496.5 666 Q556 640 598 593.5 Q640 547 662.5 482.5 Q685 418 685 340 Q685 262 664 197.5 Q643 133 602 86.5 Q561 40 501 14 Q441 -12 363 -12 Q286 -12 226 14 Q166 40 125 86.5 Q84 133 62.5 197.5 Q41 262 41 340 Z M172 340 Q172 284 185 239.5 Q198 195 222.5 163 Q247 131 282.5 114 Q318 97 363 97 Q408 97 443.5 114 Q479 131 503.5 163 Q528 195 541 239.5 Q554 284 554 340 Q554 395 541 440.5 Q528 486 503 518 Q478 550 443 567.5 Q408 585 363 585 Q318 585 283 567.5 Q248 550 223 518 Q198 486 185 440.5 Q172 395 172 340 Z " />
<glyph glyph-name="P" unicode="P" horiz-adv-x="610" d="M196 373 L320 373 Q356 373 378 376 Q400 379 415 386 Q438 397 451 421 Q464 445 464 474 Q464 503 451 526.5 Q438 550 415 561 Q400 568 378 571 Q356 574 320 574 L196 574 L196 373 Z M76 680 L303 680 Q366 680 423 672 Q480 664 521 629 Q553 602 570.5 562 Q588 522 588 474 Q588 426 570.5 384.5 Q553 343 521 316 Q480 281 423 273 Q366 265 303 265 L196 265 L196 0 L76 0 L76 680 Z " />
<glyph glyph-name="Q" unicode="Q" horiz-adv-x="735" d="M41 340 Q41 418 63.5 482.5 Q86 547 128 593.5 Q170 640 229.5 666 Q289 692 363 692 Q437 692 496.5 666 Q556 640 598 593.5 Q640 547 662.5 482.5 Q685 418 685 340 Q685 221 636 134 L713 59 L625 -28 L555 44 Q517 17 469 2.5 Q421 -12 363 -12 Q286 -12 226 14 Q166 40 125 86.5 Q84 133 62.5 197.5 Q41 262 41 340 Z M172 340 Q172 284 185 239.5 Q198 195 222.5 163 Q247 131 282.5 114 Q318 97 363 97 Q408 97 443.5 114 Q479 131 503.5 163 Q528 195 541 239.5 Q554 284 554 340 Q554 395 541 440.5 Q528 486 503 518 Q478 550 443 567.5 Q408 585 363 585 Q318 585 283 567.5 Q248 550 223 518 Q198 486 185 440.5 Q172 395 172 340 Z " />
<glyph glyph-name="R" unicode="R" horiz-adv-x="644" d="M196 272 L196 0 L76 0 L76 680 L325 680 Q369 680 413 676 Q457 672 496 649 Q541 623 567 580.5 Q593 538 593 475 Q593 418 569 377 Q545 336 503 308 Q491 300 476.5 294.5 Q462 289 450 284 L620 0 L477 0 L319 272 L196 272 Z M196 380 L325 380 Q362 380 383.5 383 Q405 386 421 393 Q444 404 456.5 427 Q469 450 469 478 Q469 506 456.5 528.5 Q444 551 421 561 Q405 568 383.5 571 Q362 574 325 574 L196 574 L196 380 Z " />
<glyph glyph-name="S" unicode="S" horiz-adv-x="622" d="M480 505 Q451 540 406 563.5 Q361 587 304 587 Q244 587 211.5 561 Q179 535 179 496 Q179 458 205 440.5 Q231 423 289 410 L371 392 Q419 381 459 367 Q499 353 528 331 Q557 309 573.5 276.5 Q590 244 590 198 Q590 151 571 112 Q552 73 517 45.5 Q482 18 431.5 3 Q381 -12 317 -12 Q261 -12 214.5 0.5 Q168 13 131 33 Q94 53 66.5 77.5 Q39 102 21 127 L121 199 Q133 180 152.5 161.5 Q172 143 198 128 Q224 113 255.5 104 Q287 95 323 95 Q392 95 426.5 120.5 Q461 146 461 187 Q461 227 429 245.5 Q397 264 345 275 L254 295 Q212 304 175 318 Q138 332 110.5 355 Q83 378 66.5 410.5 Q50 443 50 490 Q50 535 70 572.5 Q90 610 124.5 636.5 Q159 663 206 677.5 Q253 692 307 692 Q360 692 402 680.5 Q444 669 476.5 652 Q509 635 532.5 615 Q556 595 571 579 L480 505 Z " />
<glyph glyph-name="T" unicode="T" horiz-adv-x="555" d="M19 680 L536 680 L536 573 L338 573 L338 0 L218 0 L218 573 L19 573 L19 680 Z " />
<glyph glyph-name="U" unicode="U" horiz-adv-x="668" d="M334 99 Q382 99 415 115.5 Q448 132 464 169 Q472 186 475.5 210 Q479 234 479 284 L479 680 L598 680 L598 282 Q598 245 596 217 Q594 189 590 167 Q586 145 579 127.5 Q572 110 563 94 Q529 38 469 13 Q409 -12 334 -12 Q259 -12 199 13 Q139 38 105 94 Q96 110 89 127.5 Q82 145 78 167 Q74 189 72 217 Q70 245 70 282 L70 680 L189 680 L189 284 Q189 234 192.5 210 Q196 186 204 169 Q220 132 253 115.5 Q286 99 334 99 Z " />
<glyph glyph-name="V" unicode="V" horiz-adv-x="594" d="M274 222 Q278 209 282 194 Q286 179 289 165.5 Q292 152 294 142.5 Q296 133 296 132 L322 222 L464 680 L588 680 L368 0 L221 0 L10 680 L136 680 L274 222 Z " />
<glyph glyph-name="W" unicode="W" horiz-adv-x="866" d="M594 234 Q597 222 600 208 Q603 194 605.5 180 Q608 166 610 154 Q612 142 612 135 L631 240 L720 680 L844 680 L693 0 L537 0 L458 356 Q453 378 449 402.5 Q445 427 441.5 448 Q438 469 436 482.5 Q434 496 434 496 Q428 471 424 446 Q419 425 415 400 Q411 375 406 355 L330 0 L172 0 L24 680 L152 680 L236 235 Q239 220 241.5 203.5 Q244 187 246.5 172.5 Q249 158 251 149 Q253 140 253 140 Q257 156 262.5 184.5 Q268 213 273 235 L366 680 L500 680 L594 234 Z " />
<glyph glyph-name="X" unicode="X" horiz-adv-x="645" d="M644 0 L498 0 L321 261 L137 0 L0 0 L251 346 L10 680 L161 680 L328 439 L493 680 L637 680 L395 355 L644 0 Z " />
<glyph glyph-name="Y" unicode="Y" horiz-adv-x="622" d="M369 0 L249 0 L249 278 L2 680 L141 680 L315 389 L492 680 L630 680 L369 278 L369 0 Z " />
<glyph glyph-name="Z" unicode="Z" horiz-adv-x="581" d="M543 0 L31 0 L31 99 L391 572 L48 572 L48 680 L541 680 L541 582 L183 109 L543 109 L543 0 Z " />
<glyph glyph-name="bracketleft" unicode="&#x5b;" horiz-adv-x="306" d="M274 -159 L68 -159 L68 680 L274 680 L274 595 L181 595 L181 -73 L274 -73 L274 -159 Z " />
<glyph glyph-name="backslash" unicode="&#x5c;" horiz-adv-x="521" d="M138 680 L499 0 L382 0 L22 680 L138 680 Z " />
<glyph glyph-name="bracketright" unicode="&#x5d;" horiz-adv-x="306" d="M32 -73 L125 -73 L125 595 L32 595 L32 680 L238 680 L238 -159 L32 -159 L32 -73 Z " />
<glyph glyph-name="asciicircum" unicode="&#x5e;" horiz-adv-x="451" d="M439 326 L320 326 L223 537 L126 326 L4 326 L180 680 L269 680 L439 326 Z " />
<glyph glyph-name="underscore" unicode="&#x5f;" horiz-adv-x="729" d="M632 -166 L97 -166 L97 -66 L632 -66 L632 -166 Z " />
<glyph glyph-name="grave" unicode="&#x60;" horiz-adv-x="500" d="M276 680 L340 552 L242 552 L141 680 L276 680 Z " />
<glyph glyph-name="a" unicode="a" horiz-adv-x="519" d="M449 109 Q449 86 454.5 77.5 Q460 69 480 69 L486 69 L486 -6 Q481 -7 469 -9 Q457 -11 432 -11 Q399 -11 377 -0.5 Q355 10 348 38 L347 38 Q340 30 329 21 Q318 12 301 4.5 Q284 -3 260.5 -8 Q237 -13 205 -13 Q170 -13 139.5 -4 Q109 5 86.5 23 Q64 41 50.5 69.5 Q37 98 37 137 Q37 164 44 184.5 Q51 205 64 221 Q86 247 122 262.5 Q158 278 205 286 L310 304 Q329 308 334.5 311.5 Q340 315 340 329 L340 337 Q340 367 320 382 Q300 397 255 397 Q158 397 159 314 L52 321 Q51 365 67.5 396 Q84 427 112.5 447 Q141 467 179 476 Q217 485 260 485 Q301 485 335.5 478 Q370 471 395.5 454.5 Q421 438 435 411 Q449 384 449 345 L449 109 Z M235 73 Q282 73 311 96.5 Q340 120 340 169 L340 227 Q327 222 314 218.5 Q301 215 275 210 L231 201 Q190 193 171.5 180 Q153 167 153 138 Q153 109 173 91 Q193 73 235 73 Z " />
<glyph glyph-name="b" unicode="b" horiz-adv-x="564" d="M317 -12 Q269 -12 234.5 5 Q200 22 177 50 L177 0 L63 0 L63 680 L177 680 L177 424 Q197 450 233.5 469 Q270 488 317 488 Q365 488 404 469.5 Q443 451 470.5 417.5 Q498 384 513 337.5 Q528 291 528 236 Q528 182 513 136.5 Q498 91 470 58 Q442 25 403.5 6.5 Q365 -12 317 -12 Z M172 238 Q172 169 205.5 128 Q239 87 293 87 Q348 87 381 127 Q414 167 414 238 Q414 310 381 350 Q348 390 293 390 Q239 390 205.5 348.5 Q172 307 172 238 Z " />
<glyph glyph-name="c" unicode="c" horiz-adv-x="505" d="M384 303 Q371 341 344 365 Q317 389 273 389 Q216 389 182.5 349.5 Q149 310 149 238 Q149 166 182.5 126.5 Q216 87 273 87 Q322 87 348 111.5 Q374 136 387 168 L479 119 Q471 100 454.5 77 Q438 54 412 34.5 Q386 15 351 1.5 Q316 -12 270 -12 Q218 -12 175 4 Q132 20 101 51.5 Q70 83 53 129.5 Q36 176 36 236 Q36 296 54 342.5 Q72 389 103.5 421.5 Q135 454 178 470.5 Q221 487 270 487 Q312 487 345.5 476.5 Q379 466 405 448 Q431 430 449.5 405.5 Q468 381 479 353 L384 303 Z " />
<glyph glyph-name="d" unicode="d" horiz-adv-x="564" d="M247 -12 Q199 -12 160.5 6.5 Q122 25 94 58 Q66 91 51 136.5 Q36 182 36 236 Q36 291 51 337.5 Q66 384 93.5 417.5 Q121 451 160 469.5 Q199 488 247 488 Q294 488 330.5 469 Q367 450 387 424 L387 680 L501 680 L501 0 L387 0 L387 50 Q364 22 329.5 5 Q295 -12 247 -12 Z M392 238 Q392 307 358.5 348.5 Q325 390 271 390 Q216 390 183 350 Q150 310 150 238 Q150 167 183 127 Q216 87 271 87 Q325 87 358.5 128 Q392 169 392 238 Z " />
<glyph glyph-name="e" unicode="e" horiz-adv-x="531" d="M497 108 Q489 96 472.5 75.5 Q456 55 429 35.5 Q402 16 363.5 2 Q325 -12 273 -12 Q220 -12 176.5 6 Q133 24 101.5 57 Q70 90 53 137 Q36 184 36 242 Q36 297 54 342 Q72 387 103.5 419.5 Q135 452 177.5 469.5 Q220 487 270 487 Q327 487 369.5 468.5 Q412 450 439.5 416.5 Q467 383 481 337 Q495 291 495 236 Q495 230 494.5 221.5 Q494 213 494 207 L147 207 Q150 183 159 161 Q168 139 184.5 122.5 Q201 106 224 96 Q247 86 279 86 Q311 86 335 95.5 Q359 105 375.5 118 Q392 131 402 145 Q412 159 418 168 L497 108 Z M270 396 Q246 396 224.5 388 Q203 380 187 365.5 Q171 351 161 332 Q151 313 150 292 L382 292 Q380 339 349 367.5 Q318 396 270 396 Z " />
<glyph glyph-name="f" unicode="f" horiz-adv-x="350" d="M332 387 L218 387 L218 0 L104 0 L104 387 L20 387 L20 476 L104 476 L104 532 Q104 564 107.5 584 Q111 604 118 621 Q133 656 166.5 671.5 Q200 687 257 687 Q282 687 300.5 685.5 Q319 684 332 682 L332 590 Q322 591 313.5 591.5 Q305 592 291 592 Q266 592 251 588 Q236 584 228 573 Q218 559 218 523 L218 476 L332 476 L332 387 Z " />
<glyph glyph-name="g" unicode="g" horiz-adv-x="564" d="M164 -23 Q166 -40 171.5 -55.5 Q177 -71 189 -83 Q201 -95 220.5 -102 Q240 -109 271 -109 Q336 -109 362 -80.5 Q388 -52 388 16 L388 59 L387 59 Q381 51 370 40.5 Q359 30 342.5 20.5 Q326 11 302 4.5 Q278 -2 247 -2 Q199 -2 160 15 Q121 32 93.5 63 Q66 94 51.5 138.5 Q37 183 37 237 Q37 293 51 339.5 Q65 386 92 419 Q119 452 158 470 Q197 488 246 488 Q296 488 332 469 Q368 450 388 424 L388 476 L502 476 L502 27 Q502 -11 498.5 -37.5 Q495 -64 487 -87 Q464 -147 409.5 -172.5 Q355 -198 267 -198 Q159 -198 105.5 -153.5 Q52 -109 49 -32 L164 -23 Z M393 241 Q393 310 361 350 Q329 390 272 390 Q214 390 182.5 351.5 Q151 313 151 241 Q151 169 182.5 131.5 Q214 94 272 94 Q329 94 361 133 Q393 172 393 241 Z " />
<glyph glyph-name="h" unicode="h" horiz-adv-x="546" d="M488 0 L374 0 L374 241 Q374 268 372.5 291 Q371 314 366 332 Q358 358 338.5 372.5 Q319 387 282 387 Q228 387 202.5 350 Q177 313 177 255 L177 0 L63 0 L63 680 L177 680 L177 415 Q194 447 232.5 467.5 Q271 488 325 488 Q366 488 399 474.5 Q432 461 456 429 Q464 417 470 404 Q476 391 480 372.5 Q484 354 486 329 Q488 304 488 270 L488 0 Z " />
<glyph glyph-name="i" unicode="i" horiz-adv-x="240" d="M177 0 L63 0 L63 476 L177 476 L177 0 Z M177 564 L63 564 L63 680 L177 680 L177 564 Z " />
<glyph glyph-name="j" unicode="j" horiz-adv-x="240" d="M177 476 L177 -47 Q177 -87 175 -103.5 Q173 -120 168 -133 Q159 -155 142 -168.5 Q125 -182 104.5 -189 Q84 -196 61 -198 Q38 -200 17 -200 Q10 -200 3.5 -200 Q-3 -200 -14 -199 L-14 -104 Q2 -103 16 -101.5 Q30 -100 40.5 -94.5 Q51 -89 57 -78 Q63 -67 63 -47 L63 476 L177 476 Z M177 564 L63 564 L63 680 L177 680 L177 564 Z " />
<glyph glyph-name="k" unicode="k" horiz-adv-x="535" d="M177 680 L177 281 L369 476 L516 476 L328 291 L533 0 L391 0 L247 213 L177 149 L177 0 L63 0 L63 680 L177 680 Z " />
<glyph glyph-name="l" unicode="l" horiz-adv-x="248" d="M181 0 L67 0 L67 680 L181 680 L181 0 Z " />
<glyph glyph-name="m" unicode="m" horiz-adv-x="853" d="M444 442 Q450 435 454.5 428.5 Q459 422 464 414 Q475 427 489.5 440.5 Q504 454 524 464.5 Q544 475 569.5 481.5 Q595 488 627 488 Q673 488 703.5 475.5 Q734 463 753 442 Q764 429 772 415.5 Q780 402 785 382.5 Q790 363 792.5 336 Q795 309 795 270 L795 0 L681 0 L681 241 Q681 273 678.5 300 Q676 327 667 346.5 Q658 366 639.5 376.5 Q621 387 589 387 Q535 387 510.5 350 Q486 313 486 255 L486 0 L372 0 L372 241 Q372 273 369.5 300 Q367 327 358 346.5 Q349 366 330.5 376.5 Q312 387 280 387 Q227 387 202 350 Q177 313 177 255 L177 0 L63 0 L63 476 L177 476 L177 415 Q194 445 231.5 466.5 Q269 488 326 488 Q402 488 444 442 Z " />
<glyph glyph-name="n" unicode="n" horiz-adv-x="546" d="M488 0 L374 0 L374 241 Q374 268 372.5 291 Q371 314 366 332 Q358 358 338.5 372.5 Q319 387 282 387 Q228 387 202.5 350 Q177 313 177 255 L177 0 L63 0 L63 476 L177 476 L177 415 Q194 447 232.5 467.5 Q271 488 325 488 Q366 488 399 474.5 Q432 461 456 429 Q464 417 470 404 Q476 391 480 372.5 Q484 354 486 329 Q488 304 488 270 L488 0 Z " />
<glyph glyph-name="o" unicode="o" horiz-adv-x="548" d="M36 236 Q36 293 53 339.5 Q70 386 101 419 Q132 452 176 469.5 Q220 487 274 487 Q328 487 372 469.5 Q416 452 447 419 Q478 386 495 339.5 Q512 293 512 236 Q512 179 495.5 133 Q479 87 448 55 Q417 23 373 5.5 Q329 -12 274 -12 Q219 -12 175 5.5 Q131 23 100 55 Q69 87 52.5 133 Q36 179 36 236 Z M149 238 Q149 166 184 126 Q219 86 274 86 Q329 86 364 126.5 Q399 167 399 238 Q399 310 365 350 Q331 390 274 390 Q217 390 183 350 Q149 310 149 238 Z " />
<glyph glyph-name="p" unicode="p" horiz-adv-x="564" d="M317 -12 Q269 -12 234.5 5 Q200 22 177 50 L177 -190 L63 -190 L63 476 L177 476 L177 424 Q197 450 233.5 469 Q270 488 317 488 Q365 488 404 469.5 Q443 451 470.5 417.5 Q498 384 513 337.5 Q528 291 528 236 Q528 182 513 136.5 Q498 91 470 58 Q442 25 403.5 6.5 Q365 -12 317 -12 Z M172 238 Q172 169 205.5 128 Q239 87 293 87 Q348 87 381 127 Q414 167 414 238 Q414 310 381 350 Q348 390 293 390 Q239 390 205.5 348.5 Q172 307 172 238 Z " />
<glyph glyph-name="q" unicode="q" horiz-adv-x="564" d="M247 -12 Q199 -12 160.5 6.5 Q122 25 94 58 Q66 91 51 136.5 Q36 182 36 236 Q36 291 51 337.5 Q66 384 93.5 417.5 Q121 451 160 469.5 Q199 488 247 488 Q294 488 330.5 469 Q367 450 387 424 L387 476 L501 476 L501 -190 L387 -190 L387 50 Q364 22 329.5 5 Q295 -12 247 -12 Z M392 238 Q392 307 358.5 348.5 Q325 390 271 390 Q216 390 183 350 Q150 310 150 238 Q150 167 183 127 Q216 87 271 87 Q325 87 358.5 128 Q392 169 392 238 Z " />
<glyph glyph-name="r" unicode="r" horiz-adv-x="356" d="M177 476 L177 406 Q180 415 189.5 429 Q199 443 215.5 456 Q232 469 256.5 478.5 Q281 488 316 488 Q321 488 323.5 488 Q326 488 334 487 L334 371 Q326 372 318 372.5 Q310 373 302 373 Q256 373 229.5 356.5 Q203 340 190 308 Q183 290 180 268 Q177 246 177 214 L177 0 L63 0 L63 476 L177 476 Z " />
<glyph glyph-name="s" unicode="s" horiz-adv-x="481" d="M369 341 Q344 365 310.5 380 Q277 395 235 395 Q201 395 179 383 Q157 371 157 348 Q157 335 163 327 Q169 319 181.5 313 Q194 307 213 302.5 Q232 298 257 293 L314 280 Q341 274 366 265 Q391 256 409.5 241 Q428 226 439.5 204 Q451 182 451 149 Q451 108 434 78 Q417 48 388 28 Q359 8 321.5 -2 Q284 -12 243 -12 Q200 -12 164.5 -2.5 Q129 7 101 21 Q73 35 53.5 52.5 Q34 70 23 85 L100 153 Q120 126 155.5 104 Q191 82 246 82 Q289 82 312.5 96 Q336 110 336 136 Q336 161 317 169 Q298 177 263 185 L192 200 Q161 207 134 217.5 Q107 228 87 244.5 Q67 261 55.5 284 Q44 307 44 340 Q44 379 61 407 Q78 435 105.5 453 Q133 471 167.5 479.5 Q202 488 236 488 Q272 488 303 481 Q334 474 359.5 463 Q385 452 404 438.5 Q423 425 435 412 L369 341 Z " />
<glyph glyph-name="t" unicode="t" horiz-adv-x="367" d="M339 -4 Q304 -12 254 -12 Q219 -12 186.5 -3.5 Q154 5 134 29 Q120 46 117 68 Q114 90 114 125 L114 387 L12 387 L12 476 L114 476 L114 642 L228 667 L228 476 L339 476 L339 387 L228 387 L228 144 Q228 124 231 113 Q234 102 241 95 Q248 87 261 84.5 Q274 82 289 82 Q304 82 317 83 Q330 84 339 86 L339 -4 Z " />
<glyph glyph-name="u" unicode="u" horiz-adv-x="536" d="M58 476 L172 476 L172 223 Q172 197 174 173.5 Q176 150 184 131 Q192 112 209.5 100.5 Q227 89 257 89 Q311 89 335 126 Q359 163 359 221 L359 476 L473 476 L473 0 L359 0 L359 61 Q342 31 305 9.5 Q268 -12 217 -12 Q181 -12 151 -0.5 Q121 11 100 34 Q89 47 81 60.5 Q73 74 68 93.5 Q63 113 60.5 140 Q58 167 58 206 L58 476 Z " />
<glyph glyph-name="v" unicode="v" horiz-adv-x="454" d="M443 476 L286 0 L167 0 L12 476 L130 476 L203 229 Q208 210 213 193.5 Q218 177 222 163 Q226 147 229 134 L230 134 Q233 147 237 163 Q240 177 244.5 194.5 Q249 212 255 232 L326 476 L443 476 Z " />
<glyph glyph-name="w" unicode="w" horiz-adv-x="714" d="M395 182 Q385 217 375 260.5 Q365 304 359 341 L358 341 Q350 306 340.5 262 Q331 218 320 180 L267 0 L154 0 L17 476 L133 476 L189 266 Q198 231 206 200 Q214 169 221 132 L222 132 Q229 167 236 197 Q243 227 254 269 L309 476 L410 476 L465 266 Q471 243 475.5 226 Q480 209 483.5 194.5 Q487 180 490.5 165 Q494 150 497 132 L498 132 Q501 150 504.5 164.5 Q508 179 511.5 194.5 Q515 210 520 228 Q525 246 531 269 L587 476 L701 476 L556 0 L445 0 L395 182 Z " />
<glyph glyph-name="x" unicode="x" horiz-adv-x="477" d="M455 476 L307 252 L471 0 L338 0 L236 158 L137 0 L6 0 L170 252 L22 476 L160 476 L242 343 L321 476 L455 476 Z " />
<glyph glyph-name="y" unicode="y" horiz-adv-x="454" d="M436 476 L277 -57 Q265 -97 253.5 -121 Q242 -145 227 -161 Q208 -181 182 -189.5 Q156 -198 116 -198 Q93 -198 79 -196 Q65 -194 54 -192 L54 -99 Q63 -101 72.5 -102.5 Q82 -104 93 -104 Q130 -104 145 -88.5 Q160 -73 169 -44 L177 -15 L6 476 L125 476 L203 219 Q208 202 212.5 185 Q217 168 221 154 Q225 137 229 121 L230 121 Q233 136 237 153 Q240 167 244.5 184.5 Q249 202 254 219 L322 476 L436 476 Z " />
<glyph glyph-name="z" unicode="z" horiz-adv-x="480" d="M440 475 L440 386 L186 100 L440 100 L440 0 L36 0 L36 88 L294 375 L45 375 L45 475 L440 475 Z " />
<glyph glyph-name="braceleft" unicode="&#x7b;" horiz-adv-x="306" d="M32 301 Q52 307 62.5 314.5 Q73 322 78 333.5 Q83 345 84 361 Q85 377 85 398 L85 525 Q85 574 92.5 604.5 Q100 635 119.5 652 Q139 669 172.5 674.5 Q206 680 257 680 L273 680 L273 597 Q249 597 234.5 593 Q220 589 211.5 580 Q203 571 200.5 556.5 Q198 542 198 520 L198 428 Q198 389 196.5 361.5 Q195 334 189 314.5 Q183 295 172 283.5 Q161 272 142 265 L142 263 Q161 256 172 244.5 Q183 233 189 213.5 Q195 194 196.5 166.5 Q198 139 198 100 L198 1 Q198 -21 200.5 -35.5 Q203 -50 211.5 -59 Q220 -68 234.5 -72 Q249 -76 273 -76 L273 -159 L257 -159 Q206 -159 172.5 -153.5 Q139 -148 119.5 -131 Q100 -114 92.5 -84 Q85 -54 85 -4 L85 130 Q85 151 84 167 Q83 183 78 194.5 Q73 206 62.5 213.5 Q52 221 32 227 L32 301 Z " />
<glyph glyph-name="bar" unicode="&#x7c;" horiz-adv-x="249" d="M68 680 L181 680 L181 -159 L68 -159 L68 680 Z " />
<glyph glyph-name="braceright" unicode="&#x7d;" horiz-adv-x="306" d="M274 227 Q254 221 243.5 213.5 Q233 206 228 194.5 Q223 183 222 167 Q221 151 221 130 L221 -4 Q221 -54 213 -84 Q205 -114 185.5 -131 Q166 -148 133 -153.5 Q100 -159 49 -159 L33 -159 L33 -76 Q57 -76 71.5 -72 Q86 -68 94.5 -59 Q103 -50 105.5 -35.5 Q108 -21 108 1 L108 100 Q108 139 109.5 166.5 Q111 194 117 213.5 Q123 233 134 244.5 Q145 256 164 263 L164 265 Q145 272 134 283.5 Q123 295 117 314.5 Q111 334 109.5 361.5 Q108 389 108 428 L108 520 Q108 542 105.5 556.5 Q103 571 94.5 580 Q86 589 71.5 593 Q57 597 33 597 L33 680 L49 680 Q100 680 133 674.5 Q166 669 185.5 652 Q205 635 213 604.5 Q221 574 221 525 L221 398 Q221 377 222 361 Q223 345 228 333.5 Q233 322 243.5 314.5 Q254 307 274 301 L274 227 Z " />
<glyph glyph-name="asciitilde" unicode="&#x7e;" horiz-adv-x="574" d="M541 286 Q511 248 467 227.5 Q423 207 381 207 Q363 207 348 210 Q333 213 319.5 218 Q306 223 292 230 Q278 237 262 245 Q247 253 226 261.5 Q205 270 186 270 Q169 270 145 260.5 Q121 251 89 212 L34 301 Q41 313 55.5 328 Q70 343 89.5 355.5 Q109 368 134 377 Q159 386 188 386 Q221 386 248.5 374.5 Q276 363 307 347 Q324 339 341.5 330 Q359 321 385 321 Q413 321 442 335.5 Q471 350 491 373 L541 286 Z " />
<glyph glyph-name="uni00A0" unicode="&#xa0;" horiz-adv-x="200" d="" />
<glyph glyph-name="exclamdown" unicode="&#xa1;" horiz-adv-x="238" d="M75 302 L162 302 L176 106 L176 -204 L63 -204 L63 106 L75 302 Z M59 349 L59 476 L181 476 L181 349 L59 349 Z " />
<glyph glyph-name="cent" unicode="&#xa2;" horiz-adv-x="519" d="M488 128 Q482 111 469 90.5 Q456 70 436 50.5 Q416 31 388 15.5 Q360 0 323 -7 L323 -113 L225 -113 L225 -8 Q141 6 91 68 Q41 130 41 236 Q41 288 55 330 Q69 372 93.5 403.5 Q118 435 151.5 454.5 Q185 474 225 482 L225 580 L323 580 L323 483 Q388 472 429 434 Q470 396 487 345 L389 296 Q381 325 364.5 347 Q348 369 323 380 L323 95 Q352 106 368.5 129.5 Q385 153 393 179 L488 128 Z M154 238 Q154 185 173 149.5 Q192 114 225 98 L225 378 Q191 363 172.5 327 Q154 291 154 238 Z " />
<glyph glyph-name="sterling" unicode="&#xa3;" horiz-adv-x="565" d="M417 468 Q416 493 411.5 514.5 Q407 536 396.5 552 Q386 568 369.5 577 Q353 586 329 586 Q304 586 288.5 576.5 Q273 567 264 551 Q255 535 251.5 514 Q248 493 248 470 Q248 431 251 395 L392 395 L392 294 L257 294 Q258 280 258.5 264.5 Q259 249 259 232 Q259 214 257.5 195 Q256 176 251 159.5 Q246 143 237.5 129.5 Q229 116 215 107 L215 106 L250 106 Q267 106 289.5 106.5 Q312 107 340 107 L512 107 L512 0 L42 0 L42 100 Q70 102 89.5 108 Q109 114 121 128.5 Q133 143 138.5 167.5 Q144 192 144 231 Q144 248 144 263.5 Q144 279 142 294 L42 294 L42 395 L134 395 Q133 412 132.5 434 Q132 456 132 473 Q132 518 142 557.5 Q152 597 175 627 Q198 657 235.5 674 Q273 691 328 691 Q422 691 474.5 638 Q527 585 527 488 L417 468 Z " />
<glyph glyph-name="currency" unicode="&#xa4;" horiz-adv-x="561" d="M76 282 Q76 311 83 337 Q90 363 103 386 L76 412 L40 446 L119 525 L180 463 Q224 488 281 488 Q309 488 335 482.5 Q361 477 384 464 L443 523 L520 446 L461 386 Q486 342 486 282 Q486 253 480.5 227.5 Q475 202 462 179 L521 122 L443 44 L384 103 Q338 78 281 78 Q253 78 227 83.5 Q201 89 178 103 L118 43 L40 121 L101 181 Q76 226 76 282 Z M173 282 Q173 259 181.5 239 Q190 219 204.5 204 Q219 189 238.5 180.5 Q258 172 281 172 Q304 172 324 180.5 Q344 189 358.5 204 Q373 219 381.5 239 Q390 259 390 282 Q390 305 382 325 Q374 345 359.5 360 Q345 375 325 384 Q305 393 281 393 Q258 393 238.5 384.5 Q219 376 204.5 361 Q190 346 181.5 325.5 Q173 305 173 282 Z " />
<glyph glyph-name="yen" unicode="&#xa5;" horiz-adv-x="632" d="M78 368 L214 368 L29 680 L160 680 L320 400 L472 680 L603 680 L420 368 L554 368 L554 273 L375 273 L375 211 L554 211 L554 116 L375 116 L375 0 L259 0 L259 116 L78 116 L78 211 L259 211 L259 273 L78 273 L78 368 Z " />
<glyph glyph-name="brokenbar" unicode="&#xa6;" horiz-adv-x="253" d="M70 680 L183 680 L183 357 L70 357 L70 680 Z M70 164 L183 164 L183 -159 L70 -159 L70 164 Z " />
<glyph glyph-name="section" unicode="&#xa7;" horiz-adv-x="518" d="M318 230 Q337 239 348.5 255 Q360 271 360 288 Q360 311 343 324 Q326 337 297 350 L256 368 Q246 373 236 376.5 Q226 380 210 386 Q187 380 174 365 Q161 350 161 332 Q161 305 181 290.5 Q201 276 236 262 L318 230 Z M195 554 Q195 530 215 516.5 Q235 503 274 486 L343 456 Q368 445 392 432.5 Q416 420 434.5 403 Q453 386 464 363.5 Q475 341 475 311 Q475 284 468 264 Q461 244 450 228 Q439 212 425 200.5 Q411 189 398 180 Q407 173 418 164 Q429 155 438 142 Q447 129 453 112.5 Q459 96 459 75 Q459 34 442 4 Q425 -26 396.5 -46.5 Q368 -67 330 -77 Q292 -87 249 -87 Q208 -87 172.5 -77.5 Q137 -68 109.5 -54 Q82 -40 62 -22.5 Q42 -5 31 10 L110 79 Q130 51 164.5 29 Q199 7 252 7 Q297 7 321.5 22 Q346 37 346 66 Q346 91 322.5 107.5 Q299 124 266 136 L190 165 Q159 176 133 190 Q107 204 88.5 222.5 Q70 241 59.5 264.5 Q49 288 49 320 Q49 343 56.5 362 Q64 381 76.5 396 Q89 411 104.5 421 Q120 431 136 437 Q128 443 118 452 Q108 461 99.5 473.5 Q91 486 85 503.5 Q79 521 79 544 Q79 583 96.5 611 Q114 639 141.5 657 Q169 675 203.5 683.5 Q238 692 272 692 Q308 692 338.5 684.5 Q369 677 394.5 666 Q420 655 438.5 641.5 Q457 628 469 615 L403 544 Q378 568 343 583.5 Q308 599 269 599 Q236 599 215.5 587.5 Q195 576 195 554 Z " />
<glyph glyph-name="dieresis" unicode="&#xa8;" horiz-adv-x="500" d="M103 670 L211 670 L211 552 L103 552 L103 670 Z M290 670 L398 670 L398 552 L290 552 L290 670 Z " />
<glyph glyph-name="copyright" unicode="&#xa9;" horiz-adv-x="764" d="M541 248 Q535 234 522.5 217.5 Q510 201 491.5 186 Q473 171 446.5 161 Q420 151 386 151 Q342 151 307.5 165.5 Q273 180 250 206 Q227 232 215 268 Q203 304 203 348 Q203 392 216 428 Q229 464 252.5 490 Q276 516 310 530.5 Q344 545 386 545 Q419 545 444.5 535.5 Q470 526 488.5 512.5 Q507 499 519.5 483.5 Q532 468 539 456 L474 411 Q444 475 386 475 Q338 475 312.5 440 Q287 405 287 348 Q287 291 312.5 257 Q338 223 386 223 Q443 223 473 282 L541 248 Z M723 350 Q723 278 697 215.5 Q671 153 625 107 Q579 61 517 34.5 Q455 8 382 8 Q309 8 246.5 34.5 Q184 61 138.5 107 Q93 153 67 215.5 Q41 278 41 350 Q41 422 67 484.5 Q93 547 138.5 593 Q184 639 246.5 665.5 Q309 692 382 692 Q455 692 517 665.5 Q579 639 625 593 Q671 547 697 484.5 Q723 422 723 350 Z M640 350 Q640 404 620 452 Q600 500 565.5 536 Q531 572 484 592.5 Q437 613 382 613 Q327 613 280 592.5 Q233 572 198.5 536 Q164 500 144 452 Q124 404 124 350 Q124 296 144 248 Q164 200 198.5 164 Q233 128 280 107.5 Q327 87 382 87 Q437 87 484 107.5 Q531 128 565.5 164 Q600 200 620 248 Q640 296 640 350 Z " />
<glyph glyph-name="ordfeminine" unicode="&#xaa;" horiz-adv-x="386" d="M241 515 Q235 513 224.5 511 Q214 509 203 507 L186 504 Q157 499 138.5 490.5 Q120 482 120 461 Q120 440 134.5 430 Q149 420 173 420 Q203 420 222 435 Q241 450 241 481 L241 515 Z M316 440 Q316 426 319.5 420.5 Q323 415 335 415 L342 415 L342 361 Q341 361 339 360.5 Q337 360 335 360 Q330 359 322 358.5 Q314 358 304 358 Q259 358 247 389 Q237 379 216 368 Q195 357 154 357 Q132 357 111.5 363 Q91 369 75.5 381.5 Q60 394 50.5 413 Q41 432 41 459 Q41 508 72 528.5 Q103 549 154 559 L223 572 Q241 575 241 588 L241 592 Q241 612 228 621.5 Q215 631 186 631 Q123 631 125 575 L50 579 Q50 609 61 630.5 Q72 652 91 665.5 Q110 679 135.5 685.5 Q161 692 190 692 Q218 692 241 687 Q264 682 280.5 670.5 Q297 659 306.5 641 Q316 623 316 596 L316 440 Z " />
<glyph glyph-name="guillemotleft" unicode="&#xab;" horiz-adv-x="468" d="M249 218 L249 363 L411 502 L411 370 L316 294 L411 212 L411 82 L249 218 Z M45 218 L45 363 L207 502 L207 370 L112 294 L207 212 L207 82 L45 218 Z " />
<glyph glyph-name="logicalnot" unicode="&#xac;" horiz-adv-x="559" d="M497 178 L383 178 L383 358 L41 358 L41 454 L497 454 L497 178 Z " />
<glyph glyph-name="uni00AD" unicode="&#xad;" horiz-adv-x="407" d="M61 214 L61 322 L346 322 L346 214 L61 214 Z " />
<glyph glyph-name="registered" unicode="&#xae;" horiz-adv-x="764" d="M723 350 Q723 278 697 215.5 Q671 153 625 107 Q579 61 517 34.5 Q455 8 382 8 Q309 8 246.5 34.5 Q184 61 138.5 107 Q93 153 67 215.5 Q41 278 41 350 Q41 422 67 484.5 Q93 547 138.5 593 Q184 639 246.5 665.5 Q309 692 382 692 Q455 692 517 665.5 Q579 639 625 593 Q671 547 697 484.5 Q723 422 723 350 Z M640 350 Q640 404 620 452 Q600 500 565.5 536 Q531 572 484 592.5 Q437 613 382 613 Q327 613 280 592.5 Q233 572 198.5 536 Q164 500 144 452 Q124 404 124 350 Q124 296 144 248 Q164 200 198.5 164 Q233 128 280 107.5 Q327 87 382 87 Q437 87 484 107.5 Q531 128 565.5 164 Q600 200 620 248 Q640 296 640 350 Z M304 162 L226 162 L226 541 L393 541 Q447 541 474 527 Q503 513 523.5 486 Q544 459 544 419 Q544 370 518.5 342 Q493 314 455 302 L557 162 L458 162 L363 297 L304 297 L304 162 Z M383 370 Q407 370 420 371.5 Q433 373 441 377 Q465 389 465 419 Q465 450 441 461 Q433 465 420.5 466 Q408 467 383 467 L304 467 L304 370 L383 370 Z " />
<glyph glyph-name="macron" unicode="&#xaf;" horiz-adv-x="500" d="M104 680 L396 680 L396 587 L104 587 L104 680 Z " />
<glyph glyph-name="degree" unicode="&#xb0;" horiz-adv-x="434" d="M35 514 Q35 552 49 585 Q63 618 88 643 Q113 668 146 682 Q179 696 217 696 Q255 696 288 682 Q321 668 346 643 Q371 618 385 585 Q399 552 399 514 Q399 476 385 443 Q371 410 346 385 Q321 360 288 346 Q255 332 217 332 Q179 332 146 346 Q113 360 88 385 Q63 410 49 443 Q35 476 35 514 Z M141 514 Q141 483 163.5 460.5 Q186 438 217 438 Q248 438 270.5 460.5 Q293 483 293 514 Q293 545 270.5 567.5 Q248 590 217 590 Q186 590 163.5 567.5 Q141 545 141 514 Z " />
<glyph glyph-name="plusminus" unicode="&#xb1;" horiz-adv-x="692" d="M50 0 L50 106 L642 106 L642 0 L50 0 Z M400 136 L293 136 L293 293 L50 293 L50 399 L293 399 L293 597 L400 597 L400 399 L642 399 L642 293 L400 293 L400 136 Z " />
<glyph glyph-name="twosuperior" unicode="&#xb2;" horiz-adv-x="404" d="M58 519 Q53 541 53 557 Q53 585 63 609.5 Q73 634 92.5 652.5 Q112 671 140.5 681.5 Q169 692 205 692 Q271 692 309.5 655.5 Q348 619 348 556 Q348 521 334.5 490.5 Q321 460 299.5 435 Q278 410 251.5 390 Q225 370 200 355 Q214 356 237 356.5 Q260 357 283 357 L351 357 L351 266 L51 266 L51 340 Q91 368 128.5 396 Q166 424 186 444 Q209 465 228 493.5 Q247 522 247 554 Q247 577 234.5 590.5 Q222 604 198 604 Q170 604 158.5 586 Q147 568 147 545 Q147 534 149 523 Q151 512 154 502 L58 519 Z " />
<glyph glyph-name="threesuperior" unicode="&#xb3;" horiz-adv-x="379" d="M50 563 Q50 589 59 612.5 Q68 636 86 653.5 Q104 671 130 681.5 Q156 692 190 692 Q254 692 290.5 660.5 Q327 629 327 579 Q327 549 314.5 527 Q302 505 285 494 Q305 480 320.5 457.5 Q336 435 336 393 Q336 366 326 342.5 Q316 319 297.5 301 Q279 283 251.5 273 Q224 263 188 263 Q116 263 77.5 300.5 Q39 338 37 401 L131 416 Q134 349 188 349 Q216 349 227 365 Q238 381 238 399 Q238 410 234 419.5 Q230 429 220 435 Q203 445 171 445 L146 445 L146 523 L169 523 Q199 523 212 531 Q233 542 233 569 Q233 585 221.5 596.5 Q210 608 187 608 Q161 608 149.5 592 Q138 576 138 555 L50 563 Z " />
<glyph glyph-name="acute" unicode="&#xb4;" horiz-adv-x="500" d="M351 680 L250 552 L152 552 L216 680 L351 680 Z " />
<glyph glyph-name="mu" unicode="&#xb5;" horiz-adv-x="529" d="M179 476 L179 223 Q179 197 181 173.5 Q183 150 191 131 Q199 112 216.5 100.5 Q234 89 264 89 Q318 89 342 126 Q366 163 366 221 L366 476 L480 476 L480 0 L366 0 L366 61 Q353 33 321.5 12 Q290 -9 245 -9 Q207 -9 179 9 L179 -190 L65 -190 L65 476 L179 476 Z " />
<glyph glyph-name="paragraph" unicode="&#xb6;" horiz-adv-x="635" d="M265 297 L257 297 Q189 297 153 308 Q117 319 92 340 Q28 389 28 488 Q28 583 92 635 Q117 655 153 667.5 Q189 680 257 680 L596 680 L596 597 L525 597 L525 -128 L440 -128 L440 597 L353 597 L353 -128 L265 -128 L265 297 Z " />
<glyph glyph-name="periodcentered" unicode="&#xb7;" horiz-adv-x="248" d="M189 386 L189 254 L60 254 L60 386 L189 386 Z " />
<glyph glyph-name="cedilla" unicode="&#xb8;" horiz-adv-x="500" d="M288 3 L250 -30 Q285 -31 309 -49.5 Q333 -68 333 -106 Q333 -129 324 -145.5 Q315 -162 301 -173 Q287 -184 268 -189.5 Q249 -195 230 -195 Q199 -195 174 -183 L189 -137 Q202 -142 210.5 -143 Q219 -144 227 -144 Q245 -144 256.5 -135.5 Q268 -127 268 -112 Q268 -95 256 -88 Q244 -81 228 -81 Q211 -81 191 -91 L168 -49 L230 3 L288 3 Z " />
<glyph glyph-name="onesuperior" unicode="&#xb9;" horiz-adv-x="285" d="M223 262 L129 262 L129 518 L29 518 L29 600 L65 600 Q86 600 99 605 Q112 610 119.5 620 Q127 630 130 645 Q133 660 134 680 L223 680 L223 262 Z " />
<glyph glyph-name="ordmasculine" unicode="&#xba;" horiz-adv-x="375" d="M39 525 Q39 601 79.5 646.5 Q120 692 188 692 Q256 692 296 646.5 Q336 601 336 525 Q336 447 296.5 402 Q257 357 188 357 Q119 357 79 402 Q39 447 39 525 Z M116 525 Q116 477 136.5 452 Q157 427 188 427 Q218 427 238.5 452.5 Q259 478 259 525 Q259 571 239.5 596.5 Q220 622 188 622 Q156 622 136 596 Q116 570 116 525 Z " />
<glyph glyph-name="guillemotright" unicode="&#xbb;" horiz-adv-x="468" d="M57 82 L57 212 L152 294 L57 370 L57 502 L219 363 L219 218 L57 82 Z M261 82 L261 212 L356 294 L261 370 L261 502 L423 363 L423 218 L261 82 Z " />
<glyph glyph-name="onequarter" unicode="&#xbc;" horiz-adv-x="770" d="M242 0 L134 0 L491 680 L596 680 L242 0 Z M226 262 L132 262 L132 518 L32 518 L32 600 L68 600 Q89 600 102 605 Q115 610 122.5 620 Q130 630 133 645 Q136 660 137 680 L226 680 L226 262 Z M674 0 L587 0 L587 92 L402 92 L402 155 L583 414 L674 414 L674 175 L741 175 L741 92 L674 92 L674 0 Z M587 175 L587 211 Q587 225 587.5 241.5 Q588 258 589 272 Q590 289 591 305 L590 305 Q587 298 583 291 Q579 285 574 276.5 Q569 268 564 260 L542 226 Q536 217 530 208 Q524 199 519 191 Q513 182 508 175 L587 175 Z " />
<glyph glyph-name="onehalf" unicode="&#xbd;" horiz-adv-x="809" d="M479 253 Q474 275 474 291 Q474 319 484 343.5 Q494 368 513.5 386.5 Q533 405 561.5 415.5 Q590 426 626 426 Q692 426 730.5 389.5 Q769 353 769 290 Q769 255 755.5 224.5 Q742 194 720.5 169 Q699 144 672.5 124 Q646 104 621 89 Q635 90 658 90.5 Q681 91 704 91 L772 91 L772 0 L472 0 L472 74 Q512 102 549.5 130 Q587 158 607 178 Q630 199 649 227.5 Q668 256 668 288 Q668 311 655.5 324.5 Q643 338 619 338 Q591 338 579.5 320 Q568 302 568 279 Q568 268 570 257 Q572 246 575 236 L479 253 Z M225 262 L131 262 L131 518 L31 518 L31 600 L67 600 Q88 600 101 605 Q114 610 121.5 620 Q129 630 132 645 Q135 660 136 680 L225 680 L225 262 Z M245 0 L137 0 L494 680 L599 680 L245 0 Z " />
<glyph glyph-name="threequarters" unicode="&#xbe;" horiz-adv-x="861" d="M45 563 Q45 589 54 612.5 Q63 636 81 653.5 Q99 671 125 681.5 Q151 692 185 692 Q249 692 285.5 660.5 Q322 629 322 579 Q322 549 309.5 527 Q297 505 280 494 Q300 480 315.5 457.5 Q331 435 331 393 Q331 366 321 342.5 Q311 319 292.5 301 Q274 283 246.5 273 Q219 263 183 263 Q111 263 72.5 300.5 Q34 338 32 401 L126 416 Q129 349 183 349 Q211 349 222 365 Q233 381 233 399 Q233 410 229 419.5 Q225 429 215 435 Q198 445 166 445 L141 445 L141 523 L164 523 Q194 523 207 531 Q228 542 228 569 Q228 585 216.5 596.5 Q205 608 182 608 Q156 608 144.5 592 Q133 576 133 555 L45 563 Z M332 -3 L224 -3 L582 680 L687 680 L332 -3 Z M765 0 L678 0 L678 92 L493 92 L493 155 L674 414 L765 414 L765 175 L832 175 L832 92 L765 92 L765 0 Z M678 175 L678 211 Q678 225 678.5 241.5 Q679 258 680 272 Q681 289 682 305 L681 305 Q678 298 674 291 Q670 285 665 276.5 Q660 268 655 260 L633 226 Q627 217 621 208 Q615 199 610 191 Q604 182 599 175 L678 175 Z " />
<glyph glyph-name="questiondown" unicode="&#xbf;" horiz-adv-x="488" d="M440 70 Q451 50 456 26.5 Q461 3 461 -22 Q461 -61 446.5 -96 Q432 -131 404.5 -158 Q377 -185 336.5 -200.5 Q296 -216 245 -216 Q188 -216 147 -200 Q106 -184 79 -157 Q52 -130 39.5 -95 Q27 -60 27 -22 Q27 30 49.5 73.5 Q72 117 115 154 L148 181 Q165 196 176.5 207 Q188 218 195 229 Q202 240 205 252 Q208 264 208 281 L208 313 L316 313 L316 275 Q316 252 313.5 232.5 Q311 213 303 195 Q295 177 281 159.5 Q267 142 245 124 L203 89 Q174 66 162 38 Q150 10 150 -21 Q150 -62 174.5 -88 Q199 -114 247 -114 Q296 -114 320.5 -86.5 Q345 -59 345 -17 Q345 10 335.5 37.5 Q326 65 311 89 L440 70 Z M203 351 L203 476 L321 476 L321 351 L203 351 Z " />
<glyph glyph-name="Agrave" unicode="&#xc0;" horiz-adv-x="615" d="M304 889 L371 744 L273 744 L164 889 L304 889 Z M129 0 L4 0 L240 680 L376 680 L610 0 L481 0 L429 154 L182 154 L129 0 Z M331 468 Q323 492 317 513.5 Q311 535 306 555 L305 555 Q300 536 294 515 Q288 494 280 470 L216 261 L394 261 L331 468 Z " />
<glyph glyph-name="Aacute" unicode="&#xc1;" horiz-adv-x="615" d="M454 889 L345 744 L247 744 L314 889 L454 889 Z M129 0 L4 0 L240 680 L376 680 L610 0 L481 0 L429 154 L182 154 L129 0 Z M331 468 Q323 492 317 513.5 Q311 535 306 555 L305 555 Q300 536 294 515 Q288 494 280 470 L216 261 L394 261 L331 468 Z " />
<glyph glyph-name="Acircumflex" unicode="&#xc2;" horiz-adv-x="615" d="M255 744 L144 744 L270 889 L350 889 L477 744 L365 744 L309 806 L255 744 Z M129 0 L4 0 L240 680 L376 680 L610 0 L481 0 L429 154 L182 154 L129 0 Z M331 468 Q323 492 317 513.5 Q311 535 306 555 L305 555 Q300 536 294 515 Q288 494 280 470 L216 261 L394 261 L331 468 Z " />
<glyph glyph-name="Atilde" unicode="&#xc3;" horiz-adv-x="615" d="M478 861 Q470 842 460.5 823.5 Q451 805 437.5 790 Q424 775 406.5 766 Q389 757 365 757 Q345 757 330 762 Q315 767 299 775 Q282 783 267.5 790 Q253 797 242 797 Q225 797 217 783 Q209 769 204 754 L131 777 Q134 789 142.5 807 Q151 825 165 841.5 Q179 858 198.5 869.5 Q218 881 244 881 Q263 881 278.5 875 Q294 869 309 861 Q323 853 336.5 847.5 Q350 842 363 842 Q380 842 390.5 855.5 Q401 869 406 885 L478 861 Z M129 0 L4 0 L240 680 L376 680 L610 0 L481 0 L429 154 L182 154 L129 0 Z M331 468 Q323 492 317 513.5 Q311 535 306 555 L305 555 Q300 536 294 515 Q288 494 280 470 L216 261 L394 261 L331 468 Z " />
<glyph glyph-name="Adieresis" unicode="&#xc4;" horiz-adv-x="615" d="M165 871 L277 871 L277 744 L165 744 L165 871 Z M356 871 L468 871 L468 744 L356 744 L356 871 Z M129 0 L4 0 L240 680 L376 680 L610 0 L481 0 L429 154 L182 154 L129 0 Z M331 468 Q323 492 317 513.5 Q311 535 306 555 L305 555 Q300 536 294 515 Q288 494 280 470 L216 261 L394 261 L331 468 Z " />
<glyph glyph-name="Aring" unicode="&#xc5;" horiz-adv-x="615" d="M198 825 Q198 871 229 901.5 Q260 932 306 932 Q352 932 383 901.5 Q414 871 414 825 Q414 779 383 748.5 Q352 718 306 718 Q260 718 229 748.5 Q198 779 198 825 Z M266 825 Q266 808 277.5 797 Q289 786 305 786 Q321 786 332.5 797 Q344 808 344 825 Q344 842 332.5 853 Q321 864 305 864 Q289 864 277.5 853 Q266 842 266 825 Z M129 0 L4 0 L240 680 L376 680 L610 0 L481 0 L429 154 L182 154 L129 0 Z M331 468 Q323 492 317 513.5 Q311 535 306 555 L305 555 Q300 536 294 515 Q288 494 280 470 L216 261 L394 261 L331 468 Z " />
<glyph glyph-name="AE" unicode="&#xc6;" horiz-adv-x="953" d="M894 680 L894 573 L564 573 L564 405 L863 405 L863 298 L564 298 L564 107 L916 107 L916 0 L444 0 L444 164 L201 164 L104 0 L-24 0 L380 680 L894 680 Z M444 460 Q444 494 444 518.5 Q444 543 445 560 Q445 579 446 593 L445 593 Q432 567 415 537 Q398 507 378 473 L256 261 L444 261 L444 460 Z " />
<glyph glyph-name="Ccedilla" unicode="&#xc7;" horiz-adv-x="666" d="M643 156 Q632 133 612 106 Q592 79 561.5 54 Q531 29 489 11 Q447 -7 391 -11 L375 -30 Q410 -31 434 -49.5 Q458 -68 458 -106 Q458 -129 449 -145.5 Q440 -162 426 -173 Q412 -184 393 -189.5 Q374 -195 355 -195 Q324 -195 299 -183 L314 -137 Q327 -142 335.5 -143 Q344 -144 352 -144 Q370 -144 381.5 -135.5 Q393 -127 393 -112 Q393 -95 381 -88 Q369 -81 353 -81 Q336 -81 316 -91 L293 -49 L333 -11 Q262 -6 207.5 22 Q153 50 116 96 Q79 142 60 204 Q41 266 41 340 Q41 418 63.5 482.5 Q86 547 128 593.5 Q170 640 230 666 Q290 692 365 692 Q424 692 469 676 Q514 660 547 636 Q580 612 601.5 585 Q623 558 636 536 L531 471 Q506 525 465.5 554.5 Q425 584 365 584 Q320 584 284.5 566.5 Q249 549 224 517.5 Q199 486 186 440.5 Q173 395 173 340 Q173 229 223 164 Q273 99 365 99 Q423 99 464 126.5 Q505 154 529 204 L643 156 Z " />
<glyph glyph-name="Egrave" unicode="&#xc8;" horiz-adv-x="612" d="M326 889 L393 744 L295 744 L186 889 L326 889 Z M196 573 L196 405 L519 405 L519 298 L196 298 L196 107 L577 107 L577 0 L76 0 L76 680 L552 680 L552 573 L196 573 Z " />
<glyph glyph-name="Eacute" unicode="&#xc9;" horiz-adv-x="612" d="M464 889 L355 744 L257 744 L324 889 L464 889 Z M196 573 L196 405 L519 405 L519 298 L196 298 L196 107 L577 107 L577 0 L76 0 L76 680 L552 680 L552 573 L196 573 Z " />
<glyph glyph-name="Ecircumflex" unicode="&#xca;" horiz-adv-x="612" d="M266 744 L155 744 L281 889 L361 889 L488 744 L376 744 L320 806 L266 744 Z M196 573 L196 405 L519 405 L519 298 L196 298 L196 107 L577 107 L577 0 L76 0 L76 680 L552 680 L552 573 L196 573 Z " />
<glyph glyph-name="Edieresis" unicode="&#xcb;" horiz-adv-x="612" d="M173 871 L285 871 L285 744 L173 744 L173 871 Z M364 871 L476 871 L476 744 L364 744 L364 871 Z M196 573 L196 405 L519 405 L519 298 L196 298 L196 107 L577 107 L577 0 L76 0 L76 680 L552 680 L552 573 L196 573 Z " />
<glyph glyph-name="Igrave" unicode="&#xcc;" horiz-adv-x="272" d="M196 0 L76 0 L76 680 L196 680 L196 0 Z M137 889 L204 744 L106 744 L-3 889 L137 889 Z " />
<glyph glyph-name="Iacute" unicode="&#xcd;" horiz-adv-x="272" d="M196 0 L76 0 L76 680 L196 680 L196 0 Z M275 889 L166 744 L68 744 L135 889 L275 889 Z " />
<glyph glyph-name="Icircumflex" unicode="&#xce;" horiz-adv-x="272" d="M196 0 L76 0 L76 680 L196 680 L196 0 Z M83 744 L-28 744 L98 889 L178 889 L305 744 L193 744 L137 806 L83 744 Z " />
<glyph glyph-name="Idieresis" unicode="&#xcf;" horiz-adv-x="272" d="M196 0 L76 0 L76 680 L196 680 L196 0 Z M-15 889 L97 889 L97 762 L-15 762 L-15 889 Z M176 889 L288 889 L288 762 L176 762 L176 889 Z " />
<glyph glyph-name="Eth" unicode="&#xd0;" horiz-adv-x="690" d="M82 0 L82 289 L17 289 L17 390 L82 390 L82 680 L272 680 Q313 680 347.5 679 Q382 678 411.5 673.5 Q441 669 467.5 659.5 Q494 650 520 632 Q576 591 611.5 516.5 Q647 442 647 342 Q647 256 621.5 186 Q596 116 548 71 Q521 44 491.5 30 Q462 16 428.5 9 Q395 2 356 1 Q317 0 269 0 L82 0 Z M203 390 L401 390 L401 289 L203 289 L203 109 L282 109 Q339 109 382.5 114.5 Q426 120 458 150 Q482 175 500.5 225 Q519 275 519 338 Q519 401 501.5 450 Q484 499 449 529 Q419 555 377.5 562 Q336 569 269 569 L203 569 L203 390 Z " />
<glyph glyph-name="Ntilde" unicode="&#xd1;" horiz-adv-x="692" d="M530 861 Q522 842 512.5 823.5 Q503 805 489.5 790 Q476 775 458.5 766 Q441 757 417 757 Q397 757 382 762 Q367 767 351 775 Q334 783 319.5 790 Q305 797 294 797 Q277 797 269 783 Q261 769 256 754 L183 777 Q186 789 194.5 807 Q203 825 217 841.5 Q231 858 250.5 869.5 Q270 881 296 881 Q315 881 330.5 875 Q346 869 361 861 Q375 853 388.5 847.5 Q402 842 415 842 Q432 842 442.5 855.5 Q453 869 458 885 L530 861 Z M447 291 Q453 282 460.5 270 Q468 258 475.5 246 Q483 234 489.5 224 Q496 214 499 208 Q499 216 498.5 242 Q498 268 498 302.5 Q498 337 497.5 376.5 Q497 416 497 452 L497 680 L616 680 L616 0 L504 0 L236 409 Q228 421 220.5 433.5 Q213 446 207 456 Q201 466 197 472.5 Q193 479 193 479 Q193 467 193.5 442 Q194 417 194.5 383.5 Q195 350 195 310 Q195 270 195 227 L195 0 L76 0 L76 680 L188 680 L447 291 Z " />
<glyph glyph-name="Ograve" unicode="&#xd2;" horiz-adv-x="726" d="M371 889 L438 744 L340 744 L231 889 L371 889 Z M41 340 Q41 418 63.5 482.5 Q86 547 128 593.5 Q170 640 229.5 666 Q289 692 363 692 Q437 692 496.5 666 Q556 640 598 593.5 Q640 547 662.5 482.5 Q685 418 685 340 Q685 262 664 197.5 Q643 133 602 86.5 Q561 40 501 14 Q441 -12 363 -12 Q286 -12 226 14 Q166 40 125 86.5 Q84 133 62.5 197.5 Q41 262 41 340 Z M172 340 Q172 284 185 239.5 Q198 195 222.5 163 Q247 131 282.5 114 Q318 97 363 97 Q408 97 443.5 114 Q479 131 503.5 163 Q528 195 541 239.5 Q554 284 554 340 Q554 395 541 440.5 Q528 486 503 518 Q478 550 443 567.5 Q408 585 363 585 Q318 585 283 567.5 Q248 550 223 518 Q198 486 185 440.5 Q172 395 172 340 Z " />
<glyph glyph-name="Oacute" unicode="&#xd3;" horiz-adv-x="726" d="M495 889 L386 744 L288 744 L355 889 L495 889 Z M41 340 Q41 418 63.5 482.5 Q86 547 128 593.5 Q170 640 229.5 666 Q289 692 363 692 Q437 692 496.5 666 Q556 640 598 593.5 Q640 547 662.5 482.5 Q685 418 685 340 Q685 262 664 197.5 Q643 133 602 86.5 Q561 40 501 14 Q441 -12 363 -12 Q286 -12 226 14 Q166 40 125 86.5 Q84 133 62.5 197.5 Q41 262 41 340 Z M172 340 Q172 284 185 239.5 Q198 195 222.5 163 Q247 131 282.5 114 Q318 97 363 97 Q408 97 443.5 114 Q479 131 503.5 163 Q528 195 541 239.5 Q554 284 554 340 Q554 395 541 440.5 Q528 486 503 518 Q478 550 443 567.5 Q408 585 363 585 Q318 585 283 567.5 Q248 550 223 518 Q198 486 185 440.5 Q172 395 172 340 Z " />
<glyph glyph-name="Ocircumflex" unicode="&#xd4;" horiz-adv-x="726" d="M310 745 L199 745 L325 890 L405 890 L532 745 L420 745 L364 807 L310 745 Z M41 340 Q41 418 63.5 482.5 Q86 547 128 593.5 Q170 640 229.5 666 Q289 692 363 692 Q437 692 496.5 666 Q556 640 598 593.5 Q640 547 662.5 482.5 Q685 418 685 340 Q685 262 664 197.5 Q643 133 602 86.5 Q561 40 501 14 Q441 -12 363 -12 Q286 -12 226 14 Q166 40 125 86.5 Q84 133 62.5 197.5 Q41 262 41 340 Z M172 340 Q172 284 185 239.5 Q198 195 222.5 163 Q247 131 282.5 114 Q318 97 363 97 Q408 97 443.5 114 Q479 131 503.5 163 Q528 195 541 239.5 Q554 284 554 340 Q554 395 541 440.5 Q528 486 503 518 Q478 550 443 567.5 Q408 585 363 585 Q318 585 283 567.5 Q248 550 223 518 Q198 486 185 440.5 Q172 395 172 340 Z " />
<glyph glyph-name="Otilde" unicode="&#xd5;" horiz-adv-x="726" d="M539 861 Q531 842 521.5 823.5 Q512 805 498.5 790 Q485 775 467.5 766 Q450 757 426 757 Q406 757 391 762 Q376 767 360 775 Q343 783 328.5 790 Q314 797 303 797 Q286 797 278 783 Q270 769 265 754 L192 777 Q195 789 203.5 807 Q212 825 226 841.5 Q240 858 259.5 869.5 Q279 881 305 881 Q324 881 339.5 875 Q355 869 370 861 Q384 853 397.5 847.5 Q411 842 424 842 Q441 842 451.5 855.5 Q462 869 467 885 L539 861 Z M41 340 Q41 418 63.5 482.5 Q86 547 128 593.5 Q170 640 229.5 666 Q289 692 363 692 Q437 692 496.5 666 Q556 640 598 593.5 Q640 547 662.5 482.5 Q685 418 685 340 Q685 262 664 197.5 Q643 133 602 86.5 Q561 40 501 14 Q441 -12 363 -12 Q286 -12 226 14 Q166 40 125 86.5 Q84 133 62.5 197.5 Q41 262 41 340 Z M172 340 Q172 284 185 239.5 Q198 195 222.5 163 Q247 131 282.5 114 Q318 97 363 97 Q408 97 443.5 114 Q479 131 503.5 163 Q528 195 541 239.5 Q554 284 554 340 Q554 395 541 440.5 Q528 486 503 518 Q478 550 443 567.5 Q408 585 363 585 Q318 585 283 567.5 Q248 550 223 518 Q198 486 185 440.5 Q172 395 172 340 Z " />
<glyph glyph-name="Odieresis" unicode="&#xd6;" horiz-adv-x="726" d="M211 871 L323 871 L323 744 L211 744 L211 871 Z M402 871 L514 871 L514 744 L402 744 L402 871 Z M41 340 Q41 418 63.5 482.5 Q86 547 128 593.5 Q170 640 229.5 666 Q289 692 363 692 Q437 692 496.5 666 Q556 640 598 593.5 Q640 547 662.5 482.5 Q685 418 685 340 Q685 262 664 197.5 Q643 133 602 86.5 Q561 40 501 14 Q441 -12 363 -12 Q286 -12 226 14 Q166 40 125 86.5 Q84 133 62.5 197.5 Q41 262 41 340 Z M172 340 Q172 284 185 239.5 Q198 195 222.5 163 Q247 131 282.5 114 Q318 97 363 97 Q408 97 443.5 114 Q479 131 503.5 163 Q528 195 541 239.5 Q554 284 554 340 Q554 395 541 440.5 Q528 486 503 518 Q478 550 443 567.5 Q408 585 363 585 Q318 585 283 567.5 Q248 550 223 518 Q198 486 185 440.5 Q172 395 172 340 Z " />
<glyph glyph-name="multiply" unicode="&#xd7;" horiz-adv-x="648" d="M247 298 L38 507 L114 583 L323 374 L534 583 L610 508 L399 298 L610 87 L534 11 L323 222 L113 11 L38 87 L247 298 Z " />
<glyph glyph-name="Oslash" unicode="&#xd8;" horiz-adv-x="728" d="M43 340 Q43 418 65.5 482.5 Q88 547 130 593.5 Q172 640 231.5 666 Q291 692 365 692 Q472 692 549 638 L622 720 L701 647 L625 562 Q655 517 671 461.5 Q687 406 687 340 Q687 262 666 197.5 Q645 133 604 86.5 Q563 40 503 14 Q443 -12 365 -12 Q305 -12 255.5 3.5 Q206 19 168 48 L96 -32 L15 40 L95 129 Q43 216 43 340 Z M556 340 Q556 409 536 461 L248 138 Q294 97 365 97 Q410 97 445.5 114 Q481 131 505.5 163 Q530 195 543 239.5 Q556 284 556 340 Z M174 340 Q174 282 188 234 L471 551 Q426 585 365 585 Q320 585 285 567.5 Q250 550 225 518 Q200 486 187 440.5 Q174 395 174 340 Z " />
<glyph glyph-name="Ugrave" unicode="&#xd9;" horiz-adv-x="668" d="M338 889 L405 744 L307 744 L198 889 L338 889 Z M334 99 Q382 99 415 115.5 Q448 132 464 169 Q472 186 475.5 210 Q479 234 479 284 L479 680 L598 680 L598 282 Q598 245 596 217 Q594 189 590 167 Q586 145 579 127.5 Q572 110 563 94 Q529 38 469 13 Q409 -12 334 -12 Q259 -12 199 13 Q139 38 105 94 Q96 110 89 127.5 Q82 145 78 167 Q74 189 72 217 Q70 245 70 282 L70 680 L189 680 L189 284 Q189 234 192.5 210 Q196 186 204 169 Q220 132 253 115.5 Q286 99 334 99 Z " />
<glyph glyph-name="Uacute" unicode="&#xda;" horiz-adv-x="668" d="M470 889 L361 744 L263 744 L330 889 L470 889 Z M334 99 Q382 99 415 115.5 Q448 132 464 169 Q472 186 475.5 210 Q479 234 479 284 L479 680 L598 680 L598 282 Q598 245 596 217 Q594 189 590 167 Q586 145 579 127.5 Q572 110 563 94 Q529 38 469 13 Q409 -12 334 -12 Q259 -12 199 13 Q139 38 105 94 Q96 110 89 127.5 Q82 145 78 167 Q74 189 72 217 Q70 245 70 282 L70 680 L189 680 L189 284 Q189 234 192.5 210 Q196 186 204 169 Q220 132 253 115.5 Q286 99 334 99 Z " />
<glyph glyph-name="Ucircumflex" unicode="&#xdb;" horiz-adv-x="668" d="M286 744 L175 744 L301 889 L381 889 L508 744 L396 744 L340 806 L286 744 Z M334 99 Q382 99 415 115.5 Q448 132 464 169 Q472 186 475.5 210 Q479 234 479 284 L479 680 L598 680 L598 282 Q598 245 596 217 Q594 189 590 167 Q586 145 579 127.5 Q572 110 563 94 Q529 38 469 13 Q409 -12 334 -12 Q259 -12 199 13 Q139 38 105 94 Q96 110 89 127.5 Q82 145 78 167 Q74 189 72 217 Q70 245 70 282 L70 680 L189 680 L189 284 Q189 234 192.5 210 Q196 186 204 169 Q220 132 253 115.5 Q286 99 334 99 Z " />
<glyph glyph-name="Udieresis" unicode="&#xdc;" horiz-adv-x="668" d="M182 871 L294 871 L294 744 L182 744 L182 871 Z M373 871 L485 871 L485 744 L373 744 L373 871 Z M334 99 Q382 99 415 115.5 Q448 132 464 169 Q472 186 475.5 210 Q479 234 479 284 L479 680 L598 680 L598 282 Q598 245 596 217 Q594 189 590 167 Q586 145 579 127.5 Q572 110 563 94 Q529 38 469 13 Q409 -12 334 -12 Q259 -12 199 13 Q139 38 105 94 Q96 110 89 127.5 Q82 145 78 167 Q74 189 72 217 Q70 245 70 282 L70 680 L189 680 L189 284 Q189 234 192.5 210 Q196 186 204 169 Q220 132 253 115.5 Q286 99 334 99 Z " />
<glyph glyph-name="Yacute" unicode="&#xdd;" horiz-adv-x="622" d="M460 889 L351 744 L253 744 L320 889 L460 889 Z M369 0 L249 0 L249 278 L2 680 L141 680 L315 389 L492 680 L630 680 L369 278 L369 0 Z " />
<glyph glyph-name="Thorn" unicode="&#xde;" horiz-adv-x="603" d="M76 680 L196 680 L196 570 L303 570 Q333 570 362.5 568.5 Q392 567 419 562 Q446 557 470.5 547 Q495 537 515 520 Q546 494 563 455 Q580 416 580 369 Q580 322 563 282 Q546 242 515 216 Q495 199 470.5 189 Q446 179 419 174 Q392 169 362.5 167.5 Q333 166 303 166 L196 166 L196 0 L76 0 L76 680 Z M196 273 L316 273 Q351 273 372.5 276 Q394 279 409 286 Q431 297 443.5 318.5 Q456 340 456 369 Q456 397 443.5 419 Q431 441 409 452 Q394 459 372.5 462 Q351 465 316 465 L196 465 L196 273 Z " />
<glyph glyph-name="germandbls" unicode="&#xdf;" horiz-adv-x="517" d="M237 89 Q258 86 273 86 Q304 86 322 95.5 Q340 105 349 123 Q358 141 360.5 166 Q363 191 363 221 Q363 263 357.5 291 Q352 319 333 333 Q325 340 308.5 345.5 Q292 351 261 351 Q255 351 249.5 351 Q244 351 237 350 L237 440 Q244 439 249.5 439 Q255 439 261 439 Q302 439 320.5 456.5 Q339 474 339 519 Q339 559 316.5 577.5 Q294 596 257 596 Q237 596 218.5 588.5 Q200 581 189 562 Q181 548 179 529 Q177 510 177 484 L177 0 L63 0 L63 451 Q63 485 64 508.5 Q65 532 68 550 Q71 568 76 581 Q81 594 88 607 Q111 651 157.5 671.5 Q204 692 260 692 Q306 692 342 679.5 Q378 667 402 645.5 Q426 624 438.5 594 Q451 564 451 529 Q451 487 434.5 454 Q418 421 389 404 Q428 387 453 345 Q478 303 478 223 Q478 108 433.5 51.5 Q389 -5 283 -5 Q272 -5 260 -4.5 Q248 -4 237 -3 L237 89 Z " />
<glyph glyph-name="agrave" unicode="&#xe0;" horiz-adv-x="519" d="M449 109 Q449 86 454.5 77.5 Q460 69 480 69 L486 69 L486 -6 Q481 -7 469 -9 Q457 -11 432 -11 Q399 -11 377 -0.5 Q355 10 348 38 L347 38 Q340 30 329 21 Q318 12 301 4.5 Q284 -3 260.5 -8 Q237 -13 205 -13 Q170 -13 139.5 -4 Q109 5 86.5 23 Q64 41 50.5 69.5 Q37 98 37 137 Q37 164 44 184.5 Q51 205 64 221 Q86 247 122 262.5 Q158 278 205 286 L310 304 Q329 308 334.5 311.5 Q340 315 340 329 L340 337 Q340 367 320 382 Q300 397 255 397 Q158 397 159 314 L52 321 Q51 365 67.5 396 Q84 427 112.5 447 Q141 467 179 476 Q217 485 260 485 Q301 485 335.5 478 Q370 471 395.5 454.5 Q421 438 435 411 Q449 384 449 345 L449 109 Z M235 73 Q282 73 311 96.5 Q340 120 340 169 L340 227 Q327 222 314 218.5 Q301 215 275 210 L231 201 Q190 193 171.5 180 Q153 167 153 138 Q153 109 173 91 Q193 73 235 73 Z M267 680 L331 552 L233 552 L132 680 L267 680 Z " />
<glyph glyph-name="aacute" unicode="&#xe1;" horiz-adv-x="519" d="M449 109 Q449 86 454.5 77.5 Q460 69 480 69 L486 69 L486 -6 Q481 -7 469 -9 Q457 -11 432 -11 Q399 -11 377 -0.5 Q355 10 348 38 L347 38 Q340 30 329 21 Q318 12 301 4.5 Q284 -3 260.5 -8 Q237 -13 205 -13 Q170 -13 139.5 -4 Q109 5 86.5 23 Q64 41 50.5 69.5 Q37 98 37 137 Q37 164 44 184.5 Q51 205 64 221 Q86 247 122 262.5 Q158 278 205 286 L310 304 Q329 308 334.5 311.5 Q340 315 340 329 L340 337 Q340 367 320 382 Q300 397 255 397 Q158 397 159 314 L52 321 Q51 365 67.5 396 Q84 427 112.5 447 Q141 467 179 476 Q217 485 260 485 Q301 485 335.5 478 Q370 471 395.5 454.5 Q421 438 435 411 Q449 384 449 345 L449 109 Z M235 73 Q282 73 311 96.5 Q340 120 340 169 L340 227 Q327 222 314 218.5 Q301 215 275 210 L231 201 Q190 193 171.5 180 Q153 167 153 138 Q153 109 173 91 Q193 73 235 73 Z M393 680 L292 552 L194 552 L258 680 L393 680 Z " />
<glyph glyph-name="acircumflex" unicode="&#xe2;" horiz-adv-x="519" d="M449 109 Q449 86 454.5 77.5 Q460 69 480 69 L486 69 L486 -6 Q481 -7 469 -9 Q457 -11 432 -11 Q399 -11 377 -0.5 Q355 10 348 38 L347 38 Q340 30 329 21 Q318 12 301 4.5 Q284 -3 260.5 -8 Q237 -13 205 -13 Q170 -13 139.5 -4 Q109 5 86.5 23 Q64 41 50.5 69.5 Q37 98 37 137 Q37 164 44 184.5 Q51 205 64 221 Q86 247 122 262.5 Q158 278 205 286 L310 304 Q329 308 334.5 311.5 Q340 315 340 329 L340 337 Q340 367 320 382 Q300 397 255 397 Q158 397 159 314 L52 321 Q51 365 67.5 396 Q84 427 112.5 447 Q141 467 179 476 Q217 485 260 485 Q301 485 335.5 478 Q370 471 395.5 454.5 Q421 438 435 411 Q449 384 449 345 L449 109 Z M211 552 L107 552 L225 680 L301 680 L420 552 L315 552 L262 602 L211 552 Z M235 73 Q282 73 311 96.5 Q340 120 340 169 L340 227 Q327 222 314 218.5 Q301 215 275 210 L231 201 Q190 193 171.5 180 Q153 167 153 138 Q153 109 173 91 Q193 73 235 73 Z " />
<glyph glyph-name="atilde" unicode="&#xe3;" horiz-adv-x="519" d="M449 109 Q449 86 454.5 77.5 Q460 69 480 69 L486 69 L486 -6 Q481 -7 469 -9 Q457 -11 432 -11 Q399 -11 377 -0.5 Q355 10 348 38 L347 38 Q340 30 329 21 Q318 12 301 4.5 Q284 -3 260.5 -8 Q237 -13 205 -13 Q170 -13 139.5 -4 Q109 5 86.5 23 Q64 41 50.5 69.5 Q37 98 37 137 Q37 164 44 184.5 Q51 205 64 221 Q86 247 122 262.5 Q158 278 205 286 L310 304 Q329 308 334.5 311.5 Q340 315 340 329 L340 337 Q340 367 320 382 Q300 397 255 397 Q158 397 159 314 L52 321 Q51 365 67.5 396 Q84 427 112.5 447 Q141 467 179 476 Q217 485 260 485 Q301 485 335.5 478 Q370 471 395.5 454.5 Q421 438 435 411 Q449 384 449 345 L449 109 Z M434 651 Q426 632 416.5 613.5 Q407 595 393.5 580 Q380 565 362.5 556 Q345 547 321 547 Q301 547 286 552 Q271 557 255 565 Q238 573 223.5 580 Q209 587 198 587 Q181 587 173 573 Q165 559 160 544 L87 567 Q90 579 98.5 597 Q107 615 121 631.5 Q135 648 154.5 659.5 Q174 671 200 671 Q219 671 234.5 665 Q250 659 265 651 Q279 643 292.5 637.5 Q306 632 319 632 Q336 632 346.5 645.5 Q357 659 362 675 L434 651 Z M235 73 Q282 73 311 96.5 Q340 120 340 169 L340 227 Q327 222 314 218.5 Q301 215 275 210 L231 201 Q190 193 171.5 180 Q153 167 153 138 Q153 109 173 91 Q193 73 235 73 Z " />
<glyph glyph-name="adieresis" unicode="&#xe4;" horiz-adv-x="519" d="M449 109 Q449 86 454.5 77.5 Q460 69 480 69 L486 69 L486 -6 Q481 -7 469 -9 Q457 -11 432 -11 Q399 -11 377 -0.5 Q355 10 348 38 L347 38 Q340 30 329 21 Q318 12 301 4.5 Q284 -3 260.5 -8 Q237 -13 205 -13 Q170 -13 139.5 -4 Q109 5 86.5 23 Q64 41 50.5 69.5 Q37 98 37 137 Q37 164 44 184.5 Q51 205 64 221 Q86 247 122 262.5 Q158 278 205 286 L310 304 Q329 308 334.5 311.5 Q340 315 340 329 L340 337 Q340 367 320 382 Q300 397 255 397 Q158 397 159 314 L52 321 Q51 365 67.5 396 Q84 427 112.5 447 Q141 467 179 476 Q217 485 260 485 Q301 485 335.5 478 Q370 471 395.5 454.5 Q421 438 435 411 Q449 384 449 345 L449 109 Z M235 73 Q282 73 311 96.5 Q340 120 340 169 L340 227 Q327 222 314 218.5 Q301 215 275 210 L231 201 Q190 193 171.5 180 Q153 167 153 138 Q153 109 173 91 Q193 73 235 73 Z M116 670 L224 670 L224 552 L116 552 L116 670 Z M303 670 L411 670 L411 552 L303 552 L303 670 Z " />
<glyph glyph-name="aring" unicode="&#xe5;" horiz-adv-x="519" d="M449 109 Q449 86 454.5 77.5 Q460 69 480 69 L486 69 L486 -6 Q481 -7 469 -9 Q457 -11 432 -11 Q399 -11 377 -0.5 Q355 10 348 38 L347 38 Q340 30 329 21 Q318 12 301 4.5 Q284 -3 260.5 -8 Q237 -13 205 -13 Q170 -13 139.5 -4 Q109 5 86.5 23 Q64 41 50.5 69.5 Q37 98 37 137 Q37 164 44 184.5 Q51 205 64 221 Q86 247 122 262.5 Q158 278 205 286 L310 304 Q329 308 334.5 311.5 Q340 315 340 329 L340 337 Q340 367 320 382 Q300 397 255 397 Q158 397 159 314 L52 321 Q51 365 67.5 396 Q84 427 112.5 447 Q141 467 179 476 Q217 485 260 485 Q301 485 335.5 478 Q370 471 395.5 454.5 Q421 438 435 411 Q449 384 449 345 L449 109 Z M163 608 Q163 650 191 677.5 Q219 705 261 705 Q303 705 331 677.5 Q359 650 359 608 Q359 566 331 538.5 Q303 511 261 511 Q219 511 191 538.5 Q163 566 163 608 Z M235 73 Q282 73 311 96.5 Q340 120 340 169 L340 227 Q327 222 314 218.5 Q301 215 275 210 L231 201 Q190 193 171.5 180 Q153 167 153 138 Q153 109 173 91 Q193 73 235 73 Z M225 608 Q225 593 235.5 583 Q246 573 260 573 Q274 573 284.5 583 Q295 593 295 608 Q295 623 284.5 633 Q274 643 260 643 Q246 643 235.5 633 Q225 623 225 608 Z " />
<glyph glyph-name="ae" unicode="&#xe6;" horiz-adv-x="829" d="M417 435 Q443 457 480 472 Q517 487 569 487 Q624 487 666 467.5 Q708 448 736.5 413.5 Q765 379 779.5 332.5 Q794 286 794 231 Q794 225 793.5 219 Q793 213 793 207 L446 207 Q449 183 458 161 Q467 139 483.5 122.5 Q500 106 523.5 96 Q547 86 579 86 Q611 86 634.5 95.5 Q658 105 674.5 118 Q691 131 701 145 Q711 159 717 168 L796 108 Q788 96 771.5 75.5 Q755 55 728 35.5 Q701 16 662.5 2 Q624 -12 572 -12 Q539 -12 510 -4.5 Q481 3 458.5 14 Q436 25 420 37.5 Q404 50 396 60 Q384 46 367.5 33 Q351 20 329 9.5 Q307 -1 278 -7 Q249 -13 212 -13 Q174 -13 141.5 -4 Q109 5 86 23.5 Q63 42 50 70.5 Q37 99 37 138 Q37 173 49.5 198 Q62 223 84 240.5 Q106 258 137 268.5 Q168 279 205 286 L310 304 Q329 308 334.5 311.5 Q340 315 340 329 L340 337 Q340 367 320 382 Q300 397 255 397 Q158 397 159 314 L52 321 Q51 365 67.5 396 Q84 427 112.5 447 Q141 467 179 476 Q217 485 260 485 Q311 485 351.5 473.5 Q392 462 417 435 Z M569 396 Q545 396 523.5 388 Q502 380 486 365.5 Q470 351 460 332 Q450 313 449 292 L681 292 Q679 339 648 367.5 Q617 396 569 396 Z M235 73 Q282 73 311 96.5 Q340 120 340 169 L340 227 Q327 222 314 218.5 Q301 215 275 210 L231 201 Q190 193 171.5 180 Q153 167 153 138 Q153 109 173 91 Q193 73 235 73 Z " />
<glyph glyph-name="ccedilla" unicode="&#xe7;" horiz-adv-x="505" d="M384 303 Q371 341 344 365 Q317 389 273 389 Q216 389 182.5 349.5 Q149 310 149 238 Q149 166 182.5 126.5 Q216 87 273 87 Q322 87 348 111.5 Q374 136 387 168 L479 119 Q471 100 455 78 Q439 56 414.5 36.5 Q390 17 356 3 Q322 -11 279 -12 L260 -30 Q295 -31 319 -49.5 Q343 -68 343 -106 Q343 -129 334 -145.5 Q325 -162 311 -173 Q297 -184 278 -189.5 Q259 -195 240 -195 Q209 -195 184 -183 L199 -137 Q212 -142 220.5 -143 Q229 -144 237 -144 Q255 -144 266.5 -135.5 Q278 -127 278 -112 Q278 -95 266 -88 Q254 -81 238 -81 Q221 -81 201 -91 L178 -49 L225 -9 Q140 4 88 66.5 Q36 129 36 236 Q36 296 54 342.5 Q72 389 103.5 421.5 Q135 454 178 470.5 Q221 487 270 487 Q312 487 345.5 476.5 Q379 466 405 448 Q431 430 449.5 405.5 Q468 381 479 353 L384 303 Z " />
<glyph glyph-name="egrave" unicode="&#xe8;" horiz-adv-x="530" d="M497 108 Q489 96 472.5 75.5 Q456 55 429 35.5 Q402 16 363.5 2 Q325 -12 273 -12 Q220 -12 176.5 6 Q133 24 101.5 57 Q70 90 53 137 Q36 184 36 242 Q36 297 54 342 Q72 387 103.5 419.5 Q135 452 177.5 469.5 Q220 487 270 487 Q325 487 367 467.5 Q409 448 437.5 413.5 Q466 379 480.5 332.5 Q495 286 495 231 Q495 225 494.5 219 Q494 213 494 207 L147 207 Q150 183 159 161 Q168 139 184.5 122.5 Q201 106 224 96 Q247 86 279 86 Q311 86 335 95.5 Q359 105 375.5 118 Q392 131 402 145 Q412 159 418 168 L497 108 Z M270 396 Q246 396 224.5 388 Q203 380 187 365.5 Q171 351 161 332 Q151 313 150 292 L382 292 Q380 339 349 367.5 Q318 396 270 396 Z M275 680 L339 552 L241 552 L140 680 L275 680 Z " />
<glyph glyph-name="eacute" unicode="&#xe9;" horiz-adv-x="530" d="M497 108 Q489 96 472.5 75.5 Q456 55 429 35.5 Q402 16 363.5 2 Q325 -12 273 -12 Q220 -12 176.5 6 Q133 24 101.5 57 Q70 90 53 137 Q36 184 36 242 Q36 297 54 342 Q72 387 103.5 419.5 Q135 452 177.5 469.5 Q220 487 270 487 Q325 487 367 467.5 Q409 448 437.5 413.5 Q466 379 480.5 332.5 Q495 286 495 231 Q495 225 494.5 219 Q494 213 494 207 L147 207 Q150 183 159 161 Q168 139 184.5 122.5 Q201 106 224 96 Q247 86 279 86 Q311 86 335 95.5 Q359 105 375.5 118 Q392 131 402 145 Q412 159 418 168 L497 108 Z M270 396 Q246 396 224.5 388 Q203 380 187 365.5 Q171 351 161 332 Q151 313 150 292 L382 292 Q380 339 349 367.5 Q318 396 270 396 Z M411 680 L310 552 L212 552 L276 680 L411 680 Z " />
<glyph glyph-name="ecircumflex" unicode="&#xea;" horiz-adv-x="530" d="M497 108 Q489 96 472.5 75.5 Q456 55 429 35.5 Q402 16 363.5 2 Q325 -12 273 -12 Q220 -12 176.5 6 Q133 24 101.5 57 Q70 90 53 137 Q36 184 36 242 Q36 297 54 342 Q72 387 103.5 419.5 Q135 452 177.5 469.5 Q220 487 270 487 Q325 487 367 467.5 Q409 448 437.5 413.5 Q466 379 480.5 332.5 Q495 286 495 231 Q495 225 494.5 219 Q494 213 494 207 L147 207 Q150 183 159 161 Q168 139 184.5 122.5 Q201 106 224 96 Q247 86 279 86 Q311 86 335 95.5 Q359 105 375.5 118 Q392 131 402 145 Q412 159 418 168 L497 108 Z M270 396 Q246 396 224.5 388 Q203 380 187 365.5 Q171 351 161 332 Q151 313 150 292 L382 292 Q380 339 349 367.5 Q318 396 270 396 Z M221 552 L117 552 L235 680 L311 680 L430 552 L325 552 L272 602 L221 552 Z " />
<glyph glyph-name="edieresis" unicode="&#xeb;" horiz-adv-x="530" d="M497 108 Q489 96 472.5 75.5 Q456 55 429 35.5 Q402 16 363.5 2 Q325 -12 273 -12 Q220 -12 176.5 6 Q133 24 101.5 57 Q70 90 53 137 Q36 184 36 242 Q36 297 54 342 Q72 387 103.5 419.5 Q135 452 177.5 469.5 Q220 487 270 487 Q325 487 367 467.5 Q409 448 437.5 413.5 Q466 379 480.5 332.5 Q495 286 495 231 Q495 225 494.5 219 Q494 213 494 207 L147 207 Q150 183 159 161 Q168 139 184.5 122.5 Q201 106 224 96 Q247 86 279 86 Q311 86 335 95.5 Q359 105 375.5 118 Q392 131 402 145 Q412 159 418 168 L497 108 Z M270 396 Q246 396 224.5 388 Q203 380 187 365.5 Q171 351 161 332 Q151 313 150 292 L382 292 Q380 339 349 367.5 Q318 396 270 396 Z M127 670 L235 670 L235 552 L127 552 L127 670 Z M314 670 L422 670 L422 552 L314 552 L314 670 Z " />
<glyph glyph-name="igrave" unicode="&#xec;" horiz-adv-x="240" d="M177 0 L63 0 L63 476 L177 476 L177 0 Z M108 680 L172 552 L74 552 L-27 680 L108 680 Z " />
<glyph glyph-name="iacute" unicode="&#xed;" horiz-adv-x="240" d="M177 0 L63 0 L63 476 L177 476 L177 0 Z M266 680 L165 552 L67 552 L131 680 L266 680 Z " />
<glyph glyph-name="icircumflex" unicode="&#xee;" horiz-adv-x="240" d="M177 0 L63 0 L63 476 L177 476 L177 0 Z M67 552 L-37 552 L81 680 L157 680 L276 552 L171 552 L118 602 L67 552 Z " />
<glyph glyph-name="idieresis" unicode="&#xef;" horiz-adv-x="240" d="M177 0 L63 0 L63 476 L177 476 L177 0 Z M-25 670 L83 670 L83 552 L-25 552 L-25 670 Z M162 670 L270 670 L270 552 L162 552 L162 670 Z " />
<glyph glyph-name="eth" unicode="&#xf0;" horiz-adv-x="541" d="M147 245 Q147 168 180.5 125 Q214 82 268 82 Q324 82 357 125 Q390 168 390 245 Q390 322 357.5 361.5 Q325 401 268 401 Q212 401 179.5 361 Q147 321 147 245 Z M464 677 L492 601 L409 574 Q451 505 476.5 427.5 Q502 350 502 260 Q502 203 487.5 153.5 Q473 104 444 67 Q415 30 371 9 Q327 -12 268 -12 Q217 -12 174.5 6 Q132 24 101 57.5 Q70 91 53 138 Q36 185 36 244 Q36 302 53.5 348.5 Q71 395 102 427 Q133 459 175 476 Q217 493 267 493 Q287 493 308.5 488.5 Q330 484 353 474 Q347 491 339 509 Q331 527 318 545 L166 495 L137 573 L266 613 Q249 633 234 646.5 Q219 660 204 674 L286 725 Q312 699 329.5 680 Q347 661 362 642 L464 677 Z " />
<glyph glyph-name="ntilde" unicode="&#xf1;" horiz-adv-x="544" d="M486 0 L372 0 L372 241 Q372 268 370.5 291 Q369 314 364 332 Q356 358 336.5 372.5 Q317 387 280 387 Q226 387 200.5 350 Q175 313 175 255 L175 0 L61 0 L61 473 L175 473 L175 415 Q192 445 230.5 466.5 Q269 488 326 488 Q402 488 444 442 Q455 429 463 415.5 Q471 402 476 382.5 Q481 363 483.5 336 Q486 309 486 270 L486 0 Z M473 652 Q465 633 455.5 614.5 Q446 596 432.5 581 Q419 566 401.5 557 Q384 548 360 548 Q340 548 325 553 Q310 558 294 566 Q277 574 262.5 581 Q248 588 237 588 Q220 588 212 574 Q204 560 199 545 L126 568 Q129 580 137.5 598 Q146 616 160 632.5 Q174 649 193.5 660.5 Q213 672 239 672 Q258 672 273.5 666 Q289 660 304 652 Q318 644 331.5 638.5 Q345 633 358 633 Q375 633 385.5 646.5 Q396 660 401 676 L473 652 Z " />
<glyph glyph-name="ograve" unicode="&#xf2;" horiz-adv-x="548" d="M36 236 Q36 293 53 339.5 Q70 386 101 419 Q132 452 176 469.5 Q220 487 274 487 Q328 487 372 469.5 Q416 452 447 419 Q478 386 495 339.5 Q512 293 512 236 Q512 179 495.5 133 Q479 87 448 55 Q417 23 373 5.5 Q329 -12 274 -12 Q219 -12 175 5.5 Q131 23 100 55 Q69 87 52.5 133 Q36 179 36 236 Z M149 238 Q149 166 184 126 Q219 86 274 86 Q329 86 364 126.5 Q399 167 399 238 Q399 310 365 350 Q331 390 274 390 Q217 390 183 350 Q149 310 149 238 Z M276 680 L340 552 L242 552 L141 680 L276 680 Z " />
<glyph glyph-name="oacute" unicode="&#xf3;" horiz-adv-x="548" d="M36 236 Q36 293 53 339.5 Q70 386 101 419 Q132 452 176 469.5 Q220 487 274 487 Q328 487 372 469.5 Q416 452 447 419 Q478 386 495 339.5 Q512 293 512 236 Q512 179 495.5 133 Q479 87 448 55 Q417 23 373 5.5 Q329 -12 274 -12 Q219 -12 175 5.5 Q131 23 100 55 Q69 87 52.5 133 Q36 179 36 236 Z M149 238 Q149 166 184 126 Q219 86 274 86 Q329 86 364 126.5 Q399 167 399 238 Q399 310 365 350 Q331 390 274 390 Q217 390 183 350 Q149 310 149 238 Z M411 680 L310 552 L212 552 L276 680 L411 680 Z " />
<glyph glyph-name="ocircumflex" unicode="&#xf4;" horiz-adv-x="548" d="M36 236 Q36 293 53 339.5 Q70 386 101 419 Q132 452 176 469.5 Q220 487 274 487 Q328 487 372 469.5 Q416 452 447 419 Q478 386 495 339.5 Q512 293 512 236 Q512 179 495.5 133 Q479 87 448 55 Q417 23 373 5.5 Q329 -12 274 -12 Q219 -12 175 5.5 Q131 23 100 55 Q69 87 52.5 133 Q36 179 36 236 Z M149 238 Q149 166 184 126 Q219 86 274 86 Q329 86 364 126.5 Q399 167 399 238 Q399 310 365 350 Q331 390 274 390 Q217 390 183 350 Q149 310 149 238 Z M225 552 L121 552 L239 680 L315 680 L434 552 L329 552 L276 602 L225 552 Z " />
<glyph glyph-name="otilde" unicode="&#xf5;" horiz-adv-x="548" d="M36 236 Q36 293 53 339.5 Q70 386 101 419 Q132 452 176 469.5 Q220 487 274 487 Q328 487 372 469.5 Q416 452 447 419 Q478 386 495 339.5 Q512 293 512 236 Q512 179 495.5 133 Q479 87 448 55 Q417 23 373 5.5 Q329 -12 274 -12 Q219 -12 175 5.5 Q131 23 100 55 Q69 87 52.5 133 Q36 179 36 236 Z M149 238 Q149 166 184 126 Q219 86 274 86 Q329 86 364 126.5 Q399 167 399 238 Q399 310 365 350 Q331 390 274 390 Q217 390 183 350 Q149 310 149 238 Z M451 651 Q443 632 433.5 613.5 Q424 595 410.5 580 Q397 565 379.5 556 Q362 547 338 547 Q318 547 303 552 Q288 557 272 565 Q255 573 240.5 580 Q226 587 215 587 Q198 587 190 573 Q182 559 177 544 L104 567 Q107 579 115.5 597 Q124 615 138 631.5 Q152 648 171.5 659.5 Q191 671 217 671 Q236 671 251.5 665 Q267 659 282 651 Q296 643 309.5 637.5 Q323 632 336 632 Q353 632 363.5 645.5 Q374 659 379 675 L451 651 Z " />
<glyph glyph-name="odieresis" unicode="&#xf6;" horiz-adv-x="548" d="M36 236 Q36 293 53 339.5 Q70 386 101 419 Q132 452 176 469.5 Q220 487 274 487 Q328 487 372 469.5 Q416 452 447 419 Q478 386 495 339.5 Q512 293 512 236 Q512 179 495.5 133 Q479 87 448 55 Q417 23 373 5.5 Q329 -12 274 -12 Q219 -12 175 5.5 Q131 23 100 55 Q69 87 52.5 133 Q36 179 36 236 Z M149 238 Q149 166 184 126 Q219 86 274 86 Q329 86 364 126.5 Q399 167 399 238 Q399 310 365 350 Q331 390 274 390 Q217 390 183 350 Q149 310 149 238 Z M125 670 L233 670 L233 552 L125 552 L125 670 Z M312 670 L420 670 L420 552 L312 552 L312 670 Z " />
<glyph glyph-name="divide" unicode="&#xf7;" horiz-adv-x="758" d="M43 185 L43 291 L715 291 L715 185 L43 185 Z M443 132 L443 0 L314 0 L314 132 L443 132 Z M443 476 L443 344 L314 344 L314 476 L443 476 Z " />
<glyph glyph-name="oslash" unicode="&#xf8;" horiz-adv-x="548" d="M36 236 Q36 293 53 339.5 Q70 386 101 419 Q132 452 176 469.5 Q220 487 274 487 Q334 487 382 464 L437 535 L516 471 L462 401 Q486 369 499 327.5 Q512 286 512 236 Q512 179 495.5 133 Q479 87 448 55 Q417 23 373 5.5 Q329 -12 274 -12 Q213 -12 163 10 L119 -47 L37 17 L82 76 Q36 139 36 236 Z M399 238 Q399 257 396.5 274 Q394 291 389 305 L227 95 Q248 86 274 86 Q329 86 364 126.5 Q399 167 399 238 Z M149 238 Q149 202 158 174 L319 382 Q297 390 274 390 Q217 390 183 350 Q149 310 149 238 Z " />
<glyph glyph-name="ugrave" unicode="&#xf9;" horiz-adv-x="536" d="M58 476 L172 476 L172 223 Q172 197 174 173.5 Q176 150 184 131 Q192 112 209.5 100.5 Q227 89 257 89 Q311 89 335 126 Q359 163 359 221 L359 476 L473 476 L473 0 L359 0 L359 61 Q342 31 305 9.5 Q268 -12 217 -12 Q181 -12 151 -0.5 Q121 11 100 34 Q89 47 81 60.5 Q73 74 68 93.5 Q63 113 60.5 140 Q58 167 58 206 L58 476 Z M277 680 L341 552 L243 552 L142 680 L277 680 Z " />
<glyph glyph-name="uacute" unicode="&#xfa;" horiz-adv-x="536" d="M58 476 L172 476 L172 223 Q172 197 174 173.5 Q176 150 184 131 Q192 112 209.5 100.5 Q227 89 257 89 Q311 89 335 126 Q359 163 359 221 L359 476 L473 476 L473 0 L359 0 L359 61 Q342 31 305 9.5 Q268 -12 217 -12 Q181 -12 151 -0.5 Q121 11 100 34 Q89 47 81 60.5 Q73 74 68 93.5 Q63 113 60.5 140 Q58 167 58 206 L58 476 Z M404 680 L303 552 L205 552 L269 680 L404 680 Z " />
<glyph glyph-name="ucircumflex" unicode="&#xfb;" horiz-adv-x="536" d="M58 476 L172 476 L172 223 Q172 197 174 173.5 Q176 150 184 131 Q192 112 209.5 100.5 Q227 89 257 89 Q311 89 335 126 Q359 163 359 221 L359 476 L473 476 L473 0 L359 0 L359 61 Q342 31 305 9.5 Q268 -12 217 -12 Q181 -12 151 -0.5 Q121 11 100 34 Q89 47 81 60.5 Q73 74 68 93.5 Q63 113 60.5 140 Q58 167 58 206 L58 476 Z M217 552 L113 552 L231 680 L307 680 L426 552 L321 552 L268 602 L217 552 Z " />
<glyph glyph-name="udieresis" unicode="&#xfc;" horiz-adv-x="536" d="M58 476 L172 476 L172 223 Q172 197 174 173.5 Q176 150 184 131 Q192 112 209.5 100.5 Q227 89 257 89 Q311 89 335 126 Q359 163 359 221 L359 476 L473 476 L473 0 L359 0 L359 61 Q342 31 305 9.5 Q268 -12 217 -12 Q181 -12 151 -0.5 Q121 11 100 34 Q89 47 81 60.5 Q73 74 68 93.5 Q63 113 60.5 140 Q58 167 58 206 L58 476 Z M125 670 L233 670 L233 552 L125 552 L125 670 Z M312 670 L420 670 L420 552 L312 552 L312 670 Z " />
<glyph glyph-name="yacute" unicode="&#xfd;" horiz-adv-x="454" d="M436 476 L277 -57 Q265 -97 253.5 -121 Q242 -145 227 -161 Q208 -181 182 -189.5 Q156 -198 116 -198 Q93 -198 79 -196 Q65 -194 54 -192 L54 -99 Q63 -101 72.5 -102.5 Q82 -104 93 -104 Q130 -104 145 -88.5 Q160 -73 169 -44 L177 -15 L6 476 L125 476 L203 219 Q208 202 212.5 185 Q217 168 221 154 Q225 137 229 121 L230 121 Q233 136 237 153 Q240 167 244.5 184.5 Q249 202 254 219 L322 476 L436 476 Z M363 680 L262 552 L164 552 L228 680 L363 680 Z " />
<glyph glyph-name="thorn" unicode="&#xfe;" horiz-adv-x="564" d="M317 -12 Q270 -12 235 5.5 Q200 23 177 50 L177 -189 L63 -189 L63 680 L177 680 L177 424 Q197 450 233.5 469 Q270 488 317 488 Q365 488 404 469.5 Q443 451 470.5 417.5 Q498 384 513 337.5 Q528 291 528 236 Q528 182 513 136.5 Q498 91 470 58 Q442 25 403.5 6.5 Q365 -12 317 -12 Z M172 238 Q172 169 205.5 128 Q239 87 293 87 Q348 87 381 127 Q414 167 414 238 Q414 310 381 350 Q348 390 293 390 Q239 390 205.5 348.5 Q172 307 172 238 Z " />
<glyph glyph-name="ydieresis" unicode="&#xff;" horiz-adv-x="454" d="M78 679 L190 679 L190 552 L78 552 L78 679 Z M269 679 L381 679 L381 552 L269 552 L269 679 Z M436 476 L277 -57 Q265 -97 253.5 -121 Q242 -145 227 -161 Q208 -181 182 -189.5 Q156 -198 116 -198 Q93 -198 79 -196 Q65 -194 54 -192 L54 -99 Q63 -101 72.5 -102.5 Q82 -104 93 -104 Q130 -104 145 -88.5 Q160 -73 169 -44 L177 -15 L6 476 L125 476 L203 219 Q208 202 212.5 185 Q217 168 221 154 Q225 137 229 121 L230 121 Q233 136 237 153 Q240 167 244.5 184.5 Q249 202 254 219 L322 476 L436 476 Z " />
<glyph glyph-name="Amacron" unicode="&#x100;" horiz-adv-x="615" d="M129 0 L4 0 L240 680 L376 680 L610 0 L481 0 L429 154 L182 154 L129 0 Z M331 468 Q323 492 317 513.5 Q311 535 306 555 L305 555 Q300 536 294 515 Q288 494 280 470 L216 261 L394 261 L331 468 Z M159 867 L451 867 L451 774 L159 774 L159 867 Z " />
<glyph glyph-name="amacron" unicode="&#x101;" horiz-adv-x="519" d="M449 109 Q449 86 454.5 77.5 Q460 69 480 69 L486 69 L486 -6 Q481 -7 469 -9 Q457 -11 432 -11 Q399 -11 377 -0.5 Q355 10 348 38 L347 38 Q340 30 329 21 Q318 12 301 4.5 Q284 -3 260.5 -8 Q237 -13 205 -13 Q170 -13 139.5 -4 Q109 5 86.5 23 Q64 41 50.5 69.5 Q37 98 37 137 Q37 164 44 184.5 Q51 205 64 221 Q86 247 122 262.5 Q158 278 205 286 L310 304 Q329 308 334.5 311.5 Q340 315 340 329 L340 337 Q340 367 320 382 Q300 397 255 397 Q158 397 159 314 L52 321 Q51 365 67.5 396 Q84 427 112.5 447 Q141 467 179 476 Q217 485 260 485 Q301 485 335.5 478 Q370 471 395.5 454.5 Q421 438 435 411 Q449 384 449 345 L449 109 Z M235 73 Q282 73 311 96.5 Q340 120 340 169 L340 227 Q327 222 314 218.5 Q301 215 275 210 L231 201 Q190 193 171.5 180 Q153 167 153 138 Q153 109 173 91 Q193 73 235 73 Z M111 680 L403 680 L403 587 L111 587 L111 680 Z " />
<glyph glyph-name="Abreve" unicode="&#x102;" horiz-adv-x="615" d="M129 0 L4 0 L240 680 L376 680 L610 0 L481 0 L429 154 L182 154 L129 0 Z M331 468 Q323 492 317 513.5 Q311 535 306 555 L305 555 Q300 536 294 515 Q288 494 280 470 L216 261 L394 261 L331 468 Z M306 826 Q353 826 367 889 L458 889 Q447 817 408 777.5 Q369 738 306 738 Q243 738 203.5 777.5 Q164 817 154 889 L244 889 Q259 826 306 826 Z " />
<glyph glyph-name="abreve" unicode="&#x103;" horiz-adv-x="519" d="M449 109 Q449 86 454.5 77.5 Q460 69 480 69 L486 69 L486 -6 Q481 -7 469 -9 Q457 -11 432 -11 Q399 -11 377 -0.5 Q355 10 348 38 L347 38 Q340 30 329 21 Q318 12 301 4.5 Q284 -3 260.5 -8 Q237 -13 205 -13 Q170 -13 139.5 -4 Q109 5 86.5 23 Q64 41 50.5 69.5 Q37 98 37 137 Q37 164 44 184.5 Q51 205 64 221 Q86 247 122 262.5 Q158 278 205 286 L310 304 Q329 308 334.5 311.5 Q340 315 340 329 L340 337 Q340 367 320 382 Q300 397 255 397 Q158 397 159 314 L52 321 Q51 365 67.5 396 Q84 427 112.5 447 Q141 467 179 476 Q217 485 260 485 Q301 485 335.5 478 Q370 471 395.5 454.5 Q421 438 435 411 Q449 384 449 345 L449 109 Z M235 73 Q282 73 311 96.5 Q340 120 340 169 L340 227 Q327 222 314 218.5 Q301 215 275 210 L231 201 Q190 193 171.5 180 Q153 167 153 138 Q153 109 173 91 Q193 73 235 73 Z M251 617 Q298 617 312 680 L403 680 Q392 608 353 568.5 Q314 529 251 529 Q188 529 148.5 568.5 Q109 608 99 680 L189 680 Q204 617 251 617 Z " />
<glyph glyph-name="Aogonek" unicode="&#x104;" horiz-adv-x="615" d="M594 -202 Q575 -213 555 -217 Q535 -221 519 -221 Q496 -221 476 -214.5 Q456 -208 440 -195 Q424 -182 415 -162 Q406 -142 406 -114 Q406 -77 429.5 -48.5 Q453 -20 481 0 L429 154 L182 154 L129 0 L4 0 L240 680 L376 680 L610 0 Q596 -8 576.5 -21 Q557 -34 539.5 -48.5 Q522 -63 510 -78.5 Q498 -94 498 -108 Q498 -134 526 -134 Q536 -134 544 -131.5 Q552 -129 560 -125 L594 -202 Z M331 468 Q323 492 317 513.5 Q311 535 306 555 L305 555 Q300 536 294 515 Q288 494 280 470 L216 261 L394 261 L331 468 Z " />
<glyph glyph-name="aogonek" unicode="&#x105;" horiz-adv-x="519" d="M486 -6 Q482 -7 473 -8.5 Q464 -10 447 -11 Q432 -20 417 -32 Q402 -44 389.5 -56.5 Q377 -69 369 -82.5 Q361 -96 361 -108 Q361 -134 389 -134 Q399 -134 407 -131.5 Q415 -129 423 -125 L457 -202 Q438 -213 418 -217 Q398 -221 382 -221 Q359 -221 339 -214.5 Q319 -208 303 -195.5 Q287 -183 278 -163 Q269 -143 269 -116 Q269 -94 277.5 -75.5 Q286 -57 299.5 -41.5 Q313 -26 330 -13.5 Q347 -1 363 9 Q353 19 348 38 L347 38 Q340 30 329 21 Q318 12 301 4.5 Q284 -3 260.5 -8 Q237 -13 205 -13 Q170 -13 139.5 -4 Q109 5 86.5 23 Q64 41 50.5 69.5 Q37 98 37 137 Q37 164 44 184.5 Q51 205 64 221 Q86 247 122 262.5 Q158 278 205 286 L310 304 Q329 308 334.5 311.5 Q340 315 340 329 L340 337 Q340 367 320 382 Q300 397 255 397 Q158 397 159 314 L52 321 Q51 365 67.5 396 Q84 427 112.5 447 Q141 467 179 476 Q217 485 260 485 Q301 485 335.5 478 Q370 471 395.5 454.5 Q421 438 435 411 Q449 384 449 345 L449 109 Q449 86 454.5 77.5 Q460 69 480 69 L486 69 L486 -6 Z M235 73 Q282 73 311 96.5 Q340 120 340 169 L340 227 Q327 222 314 218.5 Q301 215 275 210 L231 201 Q190 193 171.5 180 Q153 167 153 138 Q153 109 173 91 Q193 73 235 73 Z " />
<glyph glyph-name="Cacute" unicode="&#x106;" horiz-adv-x="666" d="M501 889 L392 744 L294 744 L361 889 L501 889 Z M643 156 Q631 132 610 103 Q589 74 555 48.5 Q521 23 474.5 5.5 Q428 -12 365 -12 Q287 -12 226.5 14 Q166 40 124.5 86.5 Q83 133 62 197.5 Q41 262 41 340 Q41 418 63.5 482.5 Q86 547 128 593.5 Q170 640 230 666 Q290 692 365 692 Q424 692 469 676 Q514 660 547 636 Q580 612 601.5 585 Q623 558 636 536 L531 471 Q506 525 465.5 554.5 Q425 584 365 584 Q320 584 284.5 566.5 Q249 549 224 517.5 Q199 486 186 440.5 Q173 395 173 340 Q173 229 223 164 Q273 99 365 99 Q423 99 464 126.5 Q505 154 529 204 L643 156 Z " />
<glyph glyph-name="cacute" unicode="&#x107;" horiz-adv-x="505" d="M384 303 Q371 341 344 365 Q317 389 273 389 Q216 389 182.5 349.5 Q149 310 149 238 Q149 166 182.5 126.5 Q216 87 273 87 Q322 87 348 111.5 Q374 136 387 168 L479 119 Q471 100 454.5 77 Q438 54 412 34.5 Q386 15 351 1.5 Q316 -12 270 -12 Q218 -12 175 4 Q132 20 101 51.5 Q70 83 53 129.5 Q36 176 36 236 Q36 296 54 342.5 Q72 389 103.5 421.5 Q135 454 178 470.5 Q221 487 270 487 Q312 487 345.5 476.5 Q379 466 405 448 Q431 430 449.5 405.5 Q468 381 479 353 L384 303 Z M408 680 L307 552 L209 552 L273 680 L408 680 Z " />
<glyph glyph-name="Ccircumflex" unicode="&#x108;" horiz-adv-x="666" d="M310 745 L199 745 L325 890 L405 890 L532 745 L420 745 L364 807 L310 745 Z M643 156 Q631 132 610 103 Q589 74 555 48.5 Q521 23 474.5 5.5 Q428 -12 365 -12 Q287 -12 226.5 14 Q166 40 124.5 86.5 Q83 133 62 197.5 Q41 262 41 340 Q41 418 63.5 482.5 Q86 547 128 593.5 Q170 640 230 666 Q290 692 365 692 Q424 692 469 676 Q514 660 547 636 Q580 612 601.5 585 Q623 558 636 536 L531 471 Q506 525 465.5 554.5 Q425 584 365 584 Q320 584 284.5 566.5 Q249 549 224 517.5 Q199 486 186 440.5 Q173 395 173 340 Q173 229 223 164 Q273 99 365 99 Q423 99 464 126.5 Q505 154 529 204 L643 156 Z " />
<glyph glyph-name="ccircumflex" unicode="&#x109;" horiz-adv-x="505" d="M384 303 Q371 341 344 365 Q317 389 273 389 Q216 389 182.5 349.5 Q149 310 149 238 Q149 166 182.5 126.5 Q216 87 273 87 Q322 87 348 111.5 Q374 136 387 168 L479 119 Q471 100 454.5 77 Q438 54 412 34.5 Q386 15 351 1.5 Q316 -12 270 -12 Q218 -12 175 4 Q132 20 101 51.5 Q70 83 53 129.5 Q36 176 36 236 Q36 296 54 342.5 Q72 389 103.5 421.5 Q135 454 178 470.5 Q221 487 270 487 Q312 487 345.5 476.5 Q379 466 405 448 Q431 430 449.5 405.5 Q468 381 479 353 L384 303 Z M222 552 L118 552 L236 680 L312 680 L431 552 L326 552 L273 602 L222 552 Z " />
<glyph glyph-name="Cdotaccent" unicode="&#x10a;" horiz-adv-x="666" d="M643 156 Q631 132 610 103 Q589 74 555 48.5 Q521 23 474.5 5.5 Q428 -12 365 -12 Q287 -12 226.5 14 Q166 40 124.5 86.5 Q83 133 62 197.5 Q41 262 41 340 Q41 418 63.5 482.5 Q86 547 128 593.5 Q170 640 230 666 Q290 692 365 692 Q424 692 469 676 Q514 660 547 636 Q580 612 601.5 585 Q623 558 636 536 L531 471 Q506 525 465.5 554.5 Q425 584 365 584 Q320 584 284.5 566.5 Q249 549 224 517.5 Q199 486 186 440.5 Q173 395 173 340 Q173 229 223 164 Q273 99 365 99 Q423 99 464 126.5 Q505 154 529 204 L643 156 Z M308 889 L425 889 L425 762 L308 762 L308 889 Z " />
<glyph glyph-name="cdotaccent" unicode="&#x10b;" horiz-adv-x="505" d="M384 303 Q371 341 344 365 Q317 389 273 389 Q216 389 182.5 349.5 Q149 310 149 238 Q149 166 182.5 126.5 Q216 87 273 87 Q322 87 348 111.5 Q374 136 387 168 L479 119 Q471 100 454.5 77 Q438 54 412 34.5 Q386 15 351 1.5 Q316 -12 270 -12 Q218 -12 175 4 Q132 20 101 51.5 Q70 83 53 129.5 Q36 176 36 236 Q36 296 54 342.5 Q72 389 103.5 421.5 Q135 454 178 470.5 Q221 487 270 487 Q312 487 345.5 476.5 Q379 466 405 448 Q431 430 449.5 405.5 Q468 381 479 353 L384 303 Z M212 680 L329 680 L329 553 L212 553 L212 680 Z " />
<glyph glyph-name="Ccaron" unicode="&#x10c;" horiz-adv-x="666" d="M364 827 L420 889 L532 889 L405 744 L325 744 L199 889 L310 889 L364 827 Z M643 156 Q631 132 610 103 Q589 74 555 48.5 Q521 23 474.5 5.5 Q428 -12 365 -12 Q287 -12 226.5 14 Q166 40 124.5 86.5 Q83 133 62 197.5 Q41 262 41 340 Q41 418 63.5 482.5 Q86 547 128 593.5 Q170 640 230 666 Q290 692 365 692 Q424 692 469 676 Q514 660 547 636 Q580 612 601.5 585 Q623 558 636 536 L531 471 Q506 525 465.5 554.5 Q425 584 365 584 Q320 584 284.5 566.5 Q249 549 224 517.5 Q199 486 186 440.5 Q173 395 173 340 Q173 229 223 164 Q273 99 365 99 Q423 99 464 126.5 Q505 154 529 204 L643 156 Z " />
<glyph glyph-name="ccaron" unicode="&#x10d;" horiz-adv-x="505" d="M384 303 Q371 341 344 365 Q317 389 273 389 Q216 389 182.5 349.5 Q149 310 149 238 Q149 166 182.5 126.5 Q216 87 273 87 Q322 87 348 111.5 Q374 136 387 168 L479 119 Q471 100 454.5 77 Q438 54 412 34.5 Q386 15 351 1.5 Q316 -12 270 -12 Q218 -12 175 4 Q132 20 101 51.5 Q70 83 53 129.5 Q36 176 36 236 Q36 296 54 342.5 Q72 389 103.5 421.5 Q135 454 178 470.5 Q221 487 270 487 Q312 487 345.5 476.5 Q379 466 405 448 Q431 430 449.5 405.5 Q468 381 479 353 L384 303 Z M275 630 L328 680 L433 680 L314 552 L238 552 L120 680 L224 680 L275 630 Z " />
<glyph glyph-name="Dcaron" unicode="&#x10e;" horiz-adv-x="684" d="M335 827 L391 889 L503 889 L376 744 L296 744 L170 889 L281 889 L335 827 Z M197 109 L276 109 Q333 109 376.5 114.5 Q420 120 452 150 Q476 175 494.5 225 Q513 275 513 338 Q513 401 495.5 450 Q478 499 443 529 Q413 555 371.5 562 Q330 569 263 569 L197 569 L197 109 Z M76 0 L76 680 L266 680 Q307 680 341.5 679 Q376 678 405.5 673.5 Q435 669 461.5 659.5 Q488 650 514 632 Q570 591 605.5 516.5 Q641 442 641 342 Q641 256 615.5 186 Q590 116 542 71 Q515 44 485.5 30 Q456 16 422.5 9 Q389 2 350 1 Q311 0 263 0 L76 0 Z " />
<glyph glyph-name="dcaron" unicode="&#x10f;" horiz-adv-x="575" d="M247 -12 Q199 -12 160.5 6.5 Q122 25 94 58 Q66 91 51 136.5 Q36 182 36 236 Q36 291 51 337.5 Q66 384 93.5 417.5 Q121 451 160 469.5 Q199 488 247 488 Q294 488 330.5 469 Q367 450 387 424 L387 680 L501 680 L501 0 L387 0 L387 50 Q364 22 329.5 5 Q295 -12 247 -12 Z M392 238 Q392 307 358.5 348.5 Q325 390 271 390 Q216 390 183 350 Q150 310 150 238 Q150 167 183 127 Q216 87 271 87 Q325 87 358.5 128 Q392 169 392 238 Z M551 552 L580 680 L701 680 L637 552 L551 552 Z " />
<glyph glyph-name="Dcroat" unicode="&#x110;" horiz-adv-x="690" d="M82 0 L82 289 L17 289 L17 390 L82 390 L82 680 L272 680 Q313 680 347.5 679 Q382 678 411.5 673.5 Q441 669 467.5 659.5 Q494 650 520 632 Q576 591 611.5 516.5 Q647 442 647 342 Q647 256 621.5 186 Q596 116 548 71 Q521 44 491.5 30 Q462 16 428.5 9 Q395 2 356 1 Q317 0 269 0 L82 0 Z M203 390 L401 390 L401 289 L203 289 L203 109 L282 109 Q339 109 382.5 114.5 Q426 120 458 150 Q482 175 500.5 225 Q519 275 519 338 Q519 401 501.5 450 Q484 499 449 529 Q419 555 377.5 562 Q336 569 269 569 L203 569 L203 390 Z " />
<glyph glyph-name="dcroat" unicode="&#x111;" horiz-adv-x="564" d="M501 540 L501 0 L387 0 L387 50 Q364 22 329.5 5 Q295 -12 247 -12 Q199 -12 160.5 6.5 Q122 25 94 58 Q66 91 51 136.5 Q36 182 36 236 Q36 291 51 337.5 Q66 384 93.5 417.5 Q121 451 160 469.5 Q199 488 247 488 Q294 488 330.5 469 Q367 450 387 424 L387 540 L236 540 L236 617 L387 617 L387 680 L501 680 L501 617 L589 617 L589 540 L501 540 Z M392 238 Q392 307 358.5 348.5 Q325 390 271 390 Q216 390 183 350 Q150 310 150 238 Q150 167 183 127 Q216 87 271 87 Q325 87 358.5 128 Q392 169 392 238 Z " />
<glyph glyph-name="Emacron" unicode="&#x112;" horiz-adv-x="612" d="M196 573 L196 405 L519 405 L519 298 L196 298 L196 107 L577 107 L577 0 L76 0 L76 680 L552 680 L552 573 L196 573 Z M171 867 L463 867 L463 774 L171 774 L171 867 Z " />
<glyph glyph-name="emacron" unicode="&#x113;" horiz-adv-x="531" d="M497 108 Q489 96 472.5 75.5 Q456 55 429 35.5 Q402 16 363.5 2 Q325 -12 273 -12 Q220 -12 176.5 6 Q133 24 101.5 57 Q70 90 53 137 Q36 184 36 242 Q36 297 54 342 Q72 387 103.5 419.5 Q135 452 177.5 469.5 Q220 487 270 487 Q327 487 369.5 468.5 Q412 450 439.5 416.5 Q467 383 481 337 Q495 291 495 236 Q495 230 494.5 221.5 Q494 213 494 207 L147 207 Q150 183 159 161 Q168 139 184.5 122.5 Q201 106 224 96 Q247 86 279 86 Q311 86 335 95.5 Q359 105 375.5 118 Q392 131 402 145 Q412 159 418 168 L497 108 Z M270 396 Q246 396 224.5 388 Q203 380 187 365.5 Q171 351 161 332 Q151 313 150 292 L382 292 Q380 339 349 367.5 Q318 396 270 396 Z M123 680 L415 680 L415 587 L123 587 L123 680 Z " />
<glyph glyph-name="Ebreve" unicode="&#x114;" horiz-adv-x="612" d="M196 573 L196 405 L519 405 L519 298 L196 298 L196 107 L577 107 L577 0 L76 0 L76 680 L552 680 L552 573 L196 573 Z M326 826 Q373 826 387 889 L478 889 Q467 817 428 777.5 Q389 738 326 738 Q263 738 223.5 777.5 Q184 817 174 889 L264 889 Q279 826 326 826 Z " />
<glyph glyph-name="ebreve" unicode="&#x115;" horiz-adv-x="531" d="M497 108 Q489 96 472.5 75.5 Q456 55 429 35.5 Q402 16 363.5 2 Q325 -12 273 -12 Q220 -12 176.5 6 Q133 24 101.5 57 Q70 90 53 137 Q36 184 36 242 Q36 297 54 342 Q72 387 103.5 419.5 Q135 452 177.5 469.5 Q220 487 270 487 Q327 487 369.5 468.5 Q412 450 439.5 416.5 Q467 383 481 337 Q495 291 495 236 Q495 230 494.5 221.5 Q494 213 494 207 L147 207 Q150 183 159 161 Q168 139 184.5 122.5 Q201 106 224 96 Q247 86 279 86 Q311 86 335 95.5 Q359 105 375.5 118 Q392 131 402 145 Q412 159 418 168 L497 108 Z M270 396 Q246 396 224.5 388 Q203 380 187 365.5 Q171 351 161 332 Q151 313 150 292 L382 292 Q380 339 349 367.5 Q318 396 270 396 Z M279 617 Q326 617 340 680 L431 680 Q420 608 381 568.5 Q342 529 279 529 Q216 529 176.5 568.5 Q137 608 127 680 L217 680 Q232 617 279 617 Z " />
<glyph glyph-name="Edotaccent" unicode="&#x116;" horiz-adv-x="612" d="M196 573 L196 405 L519 405 L519 298 L196 298 L196 107 L577 107 L577 0 L76 0 L76 680 L552 680 L552 573 L196 573 Z M263 889 L380 889 L380 762 L263 762 L263 889 Z " />
<glyph glyph-name="edotaccent" unicode="&#x117;" horiz-adv-x="531" d="M497 108 Q489 96 472.5 75.5 Q456 55 429 35.5 Q402 16 363.5 2 Q325 -12 273 -12 Q220 -12 176.5 6 Q133 24 101.5 57 Q70 90 53 137 Q36 184 36 242 Q36 297 54 342 Q72 387 103.5 419.5 Q135 452 177.5 469.5 Q220 487 270 487 Q327 487 369.5 468.5 Q412 450 439.5 416.5 Q467 383 481 337 Q495 291 495 236 Q495 230 494.5 221.5 Q494 213 494 207 L147 207 Q150 183 159 161 Q168 139 184.5 122.5 Q201 106 224 96 Q247 86 279 86 Q311 86 335 95.5 Q359 105 375.5 118 Q392 131 402 145 Q412 159 418 168 L497 108 Z M270 396 Q246 396 224.5 388 Q203 380 187 365.5 Q171 351 161 332 Q151 313 150 292 L382 292 Q380 339 349 367.5 Q318 396 270 396 Z M217 680 L334 680 L334 553 L217 553 L217 680 Z " />
<glyph glyph-name="Eogonek" unicode="&#x118;" horiz-adv-x="612" d="M511 -202 Q492 -213 472 -217 Q452 -221 436 -221 Q413 -221 393 -214.5 Q373 -208 357 -195 Q341 -182 332 -162 Q323 -142 323 -114 Q323 -96 330 -79.5 Q337 -63 348 -49 Q359 -35 373 -22.5 Q387 -10 401 0 L76 0 L76 680 L552 680 L552 573 L196 573 L196 405 L519 405 L519 298 L196 298 L196 107 L577 107 L577 0 L522 0 Q504 -11 485 -24.5 Q466 -38 450.5 -52 Q435 -66 425 -80.5 Q415 -95 415 -108 Q415 -134 443 -134 Q453 -134 461 -131.5 Q469 -129 477 -125 L511 -202 Z " />
<glyph glyph-name="eogonek" unicode="&#x119;" horiz-adv-x="531" d="M335 -202 Q316 -213 296 -217 Q276 -221 260 -221 Q237 -221 217 -214.5 Q197 -208 181 -195 Q165 -182 156 -162 Q147 -142 147 -114 Q147 -81 169.5 -54 Q192 -27 219 -7 Q135 10 85.5 75.5 Q36 141 36 242 Q36 297 54 342 Q72 387 103.5 419.5 Q135 452 177.5 469.5 Q220 487 270 487 Q327 487 369.5 468.5 Q412 450 439.5 416.5 Q467 383 481 337 Q495 291 495 236 Q495 230 494.5 221.5 Q494 213 494 207 L147 207 Q150 183 159 161 Q168 139 184.5 122.5 Q201 106 224 96 Q247 86 279 86 Q311 86 335 95.5 Q359 105 375.5 118 Q392 131 402 145 Q412 159 418 168 L497 108 Q490 97 477.5 81 Q465 65 445.5 48.5 Q426 32 398.5 17 Q371 2 335 -5 Q317 -16 300 -29 Q283 -42 269.5 -55.5 Q256 -69 247.5 -82.5 Q239 -96 239 -108 Q239 -134 267 -134 Q277 -134 285 -131.5 Q293 -129 301 -125 L335 -202 Z M270 396 Q246 396 224.5 388 Q203 380 187 365.5 Q171 351 161 332 Q151 313 150 292 L382 292 Q380 339 349 367.5 Q318 396 270 396 Z " />
<glyph glyph-name="Ecaron" unicode="&#x11a;" horiz-adv-x="612" d="M320 827 L376 889 L488 889 L361 744 L281 744 L155 889 L266 889 L320 827 Z M196 573 L196 405 L519 405 L519 298 L196 298 L196 107 L577 107 L577 0 L76 0 L76 680 L552 680 L552 573 L196 573 Z " />
<glyph glyph-name="ecaron" unicode="&#x11b;" horiz-adv-x="531" d="M497 108 Q489 96 472.5 75.5 Q456 55 429 35.5 Q402 16 363.5 2 Q325 -12 273 -12 Q220 -12 176.5 6 Q133 24 101.5 57 Q70 90 53 137 Q36 184 36 242 Q36 297 54 342 Q72 387 103.5 419.5 Q135 452 177.5 469.5 Q220 487 270 487 Q327 487 369.5 468.5 Q412 450 439.5 416.5 Q467 383 481 337 Q495 291 495 236 Q495 230 494.5 221.5 Q494 213 494 207 L147 207 Q150 183 159 161 Q168 139 184.5 122.5 Q201 106 224 96 Q247 86 279 86 Q311 86 335 95.5 Q359 105 375.5 118 Q392 131 402 145 Q412 159 418 168 L497 108 Z M270 396 Q246 396 224.5 388 Q203 380 187 365.5 Q171 351 161 332 Q151 313 150 292 L382 292 Q380 339 349 367.5 Q318 396 270 396 Z M275 630 L328 680 L433 680 L314 552 L238 552 L120 680 L224 680 L275 630 Z " />
<glyph glyph-name="Gcircumflex" unicode="&#x11c;" horiz-adv-x="700" d="M316 744 L205 744 L331 889 L411 889 L538 744 L426 744 L370 806 L316 744 Z M41 340 Q41 418 64 482.5 Q87 547 129.5 593.5 Q172 640 232 666 Q292 692 367 692 Q426 692 471 676 Q516 660 549 636 Q582 612 603.5 585 Q625 558 638 536 L533 471 Q508 525 467.5 554.5 Q427 584 367 584 Q322 584 286 566.5 Q250 549 225 517.5 Q200 486 186.5 440.5 Q173 395 173 340 Q173 284 186.5 239 Q200 194 225 162 Q250 130 286 112.5 Q322 95 367 95 Q410 95 440.5 107 Q471 119 491.5 140.5 Q512 162 522.5 193 Q533 224 535 263 L331 263 L331 372 L647 372 L647 0 L533 0 L533 52 Q504 26 457.5 7 Q411 -12 354 -12 Q280 -12 222 14 Q164 40 123.5 86.5 Q83 133 62 197.5 Q41 262 41 340 Z " />
<glyph glyph-name="gcircumflex" unicode="&#x11d;" horiz-adv-x="564" d="M164 -23 Q166 -40 171.5 -55.5 Q177 -71 189 -83 Q201 -95 220.5 -102 Q240 -109 271 -109 Q336 -109 362 -80.5 Q388 -52 388 16 L388 59 L387 59 Q381 51 370 40.5 Q359 30 342.5 20.5 Q326 11 302 4.5 Q278 -2 247 -2 Q199 -2 160 15 Q121 32 93.5 63 Q66 94 51.5 138.5 Q37 183 37 237 Q37 293 51 339.5 Q65 386 92 419 Q119 452 158 470 Q197 488 246 488 Q296 488 332 469 Q368 450 388 424 L388 476 L502 476 L502 27 Q502 -11 498.5 -37.5 Q495 -64 487 -87 Q464 -147 409.5 -172.5 Q355 -198 267 -198 Q159 -198 105.5 -153.5 Q52 -109 49 -32 L164 -23 Z M393 241 Q393 310 361 350 Q329 390 272 390 Q214 390 182.5 351.5 Q151 313 151 241 Q151 169 182.5 131.5 Q214 94 272 94 Q329 94 361 133 Q393 172 393 241 Z M235 552 L131 552 L249 680 L325 680 L444 552 L339 552 L286 602 L235 552 Z " />
<glyph glyph-name="Gbreve" unicode="&#x11e;" horiz-adv-x="700" d="M41 340 Q41 418 64 482.5 Q87 547 129.5 593.5 Q172 640 232 666 Q292 692 367 692 Q426 692 471 676 Q516 660 549 636 Q582 612 603.5 585 Q625 558 638 536 L533 471 Q508 525 467.5 554.5 Q427 584 367 584 Q322 584 286 566.5 Q250 549 225 517.5 Q200 486 186.5 440.5 Q173 395 173 340 Q173 284 186.5 239 Q200 194 225 162 Q250 130 286 112.5 Q322 95 367 95 Q410 95 440.5 107 Q471 119 491.5 140.5 Q512 162 522.5 193 Q533 224 535 263 L331 263 L331 372 L647 372 L647 0 L533 0 L533 52 Q504 26 457.5 7 Q411 -12 354 -12 Q280 -12 222 14 Q164 40 123.5 86.5 Q83 133 62 197.5 Q41 262 41 340 Z M369 826 Q416 826 430 889 L521 889 Q510 817 471 777.5 Q432 738 369 738 Q306 738 266.5 777.5 Q227 817 217 889 L307 889 Q322 826 369 826 Z " />
<glyph glyph-name="gbreve" unicode="&#x11f;" horiz-adv-x="564" d="M164 -23 Q166 -40 171.5 -55.5 Q177 -71 189 -83 Q201 -95 220.5 -102 Q240 -109 271 -109 Q336 -109 362 -80.5 Q388 -52 388 16 L388 59 L387 59 Q381 51 370 40.5 Q359 30 342.5 20.5 Q326 11 302 4.5 Q278 -2 247 -2 Q199 -2 160 15 Q121 32 93.5 63 Q66 94 51.5 138.5 Q37 183 37 237 Q37 293 51 339.5 Q65 386 92 419 Q119 452 158 470 Q197 488 246 488 Q296 488 332 469 Q368 450 388 424 L388 476 L502 476 L502 27 Q502 -11 498.5 -37.5 Q495 -64 487 -87 Q464 -147 409.5 -172.5 Q355 -198 267 -198 Q159 -198 105.5 -153.5 Q52 -109 49 -32 L164 -23 Z M393 241 Q393 310 361 350 Q329 390 272 390 Q214 390 182.5 351.5 Q151 313 151 241 Q151 169 182.5 131.5 Q214 94 272 94 Q329 94 361 133 Q393 172 393 241 Z M285 617 Q332 617 346 680 L437 680 Q426 608 387 568.5 Q348 529 285 529 Q222 529 182.5 568.5 Q143 608 133 680 L223 680 Q238 617 285 617 Z " />
<glyph glyph-name="Gdotaccent" unicode="&#x120;" horiz-adv-x="700" d="M41 340 Q41 418 64 482.5 Q87 547 129.5 593.5 Q172 640 232 666 Q292 692 367 692 Q426 692 471 676 Q516 660 549 636 Q582 612 603.5 585 Q625 558 638 536 L533 471 Q508 525 467.5 554.5 Q427 584 367 584 Q322 584 286 566.5 Q250 549 225 517.5 Q200 486 186.5 440.5 Q173 395 173 340 Q173 284 186.5 239 Q200 194 225 162 Q250 130 286 112.5 Q322 95 367 95 Q410 95 440.5 107 Q471 119 491.5 140.5 Q512 162 522.5 193 Q533 224 535 263 L331 263 L331 372 L647 372 L647 0 L533 0 L533 52 Q504 26 457.5 7 Q411 -12 354 -12 Q280 -12 222 14 Q164 40 123.5 86.5 Q83 133 62 197.5 Q41 262 41 340 Z M311 889 L428 889 L428 762 L311 762 L311 889 Z " />
<glyph glyph-name="gdotaccent" unicode="&#x121;" horiz-adv-x="564" d="M164 -23 Q166 -40 171.5 -55.5 Q177 -71 189 -83 Q201 -95 220.5 -102 Q240 -109 271 -109 Q336 -109 362 -80.5 Q388 -52 388 16 L388 59 L387 59 Q381 51 370 40.5 Q359 30 342.5 20.5 Q326 11 302 4.5 Q278 -2 247 -2 Q199 -2 160 15 Q121 32 93.5 63 Q66 94 51.5 138.5 Q37 183 37 237 Q37 293 51 339.5 Q65 386 92 419 Q119 452 158 470 Q197 488 246 488 Q296 488 332 469 Q368 450 388 424 L388 476 L502 476 L502 27 Q502 -11 498.5 -37.5 Q495 -64 487 -87 Q464 -147 409.5 -172.5 Q355 -198 267 -198 Q159 -198 105.5 -153.5 Q52 -109 49 -32 L164 -23 Z M393 241 Q393 310 361 350 Q329 390 272 390 Q214 390 182.5 351.5 Q151 313 151 241 Q151 169 182.5 131.5 Q214 94 272 94 Q329 94 361 133 Q393 172 393 241 Z M226 680 L343 680 L343 553 L226 553 L226 680 Z " />
<glyph glyph-name="Gcommaaccent" unicode="&#x122;" horiz-adv-x="700" d="M41 340 Q41 418 64 482.5 Q87 547 129.5 593.5 Q172 640 232 666 Q292 692 367 692 Q426 692 471 676 Q516 660 549 636 Q582 612 603.5 585 Q625 558 638 536 L533 471 Q508 525 467.5 554.5 Q427 584 367 584 Q322 584 286 566.5 Q250 549 225 517.5 Q200 486 186.5 440.5 Q173 395 173 340 Q173 284 186.5 239 Q200 194 225 162 Q250 130 286 112.5 Q322 95 367 95 Q410 95 440.5 107 Q471 119 491.5 140.5 Q512 162 522.5 193 Q533 224 535 263 L331 263 L331 372 L647 372 L647 0 L533 0 L533 52 Q504 26 457.5 7 Q411 -12 354 -12 Q280 -12 222 14 Q164 40 123.5 86.5 Q83 133 62 197.5 Q41 262 41 340 Z M426 -60 L426 -112 Q426 -126 425.5 -141.5 Q425 -157 424 -169 Q421 -196 414 -218 Q407 -240 393 -255.5 Q379 -271 355.5 -279.5 Q332 -288 297 -289 L297 -224 Q325 -222 339.5 -210.5 Q354 -199 354 -173 L354 -171 L297 -171 L297 -60 L426 -60 Z " />
<glyph glyph-name="gcommaaccent" unicode="&#x123;" horiz-adv-x="564" d="M164 -23 Q166 -40 171.5 -55.5 Q177 -71 189 -83 Q201 -95 220.5 -102 Q240 -109 271 -109 Q336 -109 362 -80.5 Q388 -52 388 16 L388 59 L387 59 Q381 51 370 40.5 Q359 30 342.5 20.5 Q326 11 302 4.5 Q278 -2 247 -2 Q199 -2 160 15 Q121 32 93.5 63 Q66 94 51.5 138.5 Q37 183 37 237 Q37 293 51 339.5 Q65 386 92 419 Q119 452 158 470 Q197 488 246 488 Q296 488 332 469 Q368 450 388 424 L388 476 L502 476 L502 27 Q502 -11 498.5 -37.5 Q495 -64 487 -87 Q464 -147 409.5 -172.5 Q355 -198 267 -198 Q159 -198 105.5 -153.5 Q52 -109 49 -32 L164 -23 Z M393 241 Q393 310 361 350 Q329 390 272 390 Q214 390 182.5 351.5 Q151 313 151 241 Q151 169 182.5 131.5 Q214 94 272 94 Q329 94 361 133 Q393 172 393 241 Z M219 569 L219 621 Q219 635 219.5 650.5 Q220 666 221 678 Q224 705 231 727 Q238 749 252 764.5 Q266 780 289.5 788.5 Q313 797 348 798 L348 733 Q320 731 305.5 719.5 Q291 708 291 682 L291 680 L348 680 L348 569 L219 569 Z " />
<glyph glyph-name="Hcircumflex" unicode="&#x124;" horiz-adv-x="696" d="M294 745 L183 745 L309 890 L389 890 L516 745 L404 745 L348 807 L294 745 Z M196 298 L196 0 L76 0 L76 680 L196 680 L196 405 L500 405 L500 680 L620 680 L620 0 L498 0 L500 298 L196 298 Z " />
<glyph glyph-name="hcircumflex" unicode="&#x125;" horiz-adv-x="546" d="M488 0 L374 0 L374 241 Q374 268 372.5 291 Q371 314 366 332 Q358 358 338.5 372.5 Q319 387 282 387 Q228 387 202.5 350 Q177 313 177 255 L177 0 L63 0 L63 680 L177 680 L177 415 Q194 447 232.5 467.5 Q271 488 325 488 Q366 488 399 474.5 Q432 461 456 429 Q464 417 470 404 Q476 391 480 372.5 Q484 354 486 329 Q488 304 488 270 L488 0 Z M228 745 L124 745 L242 873 L318 873 L437 745 L332 745 L279 795 L228 745 Z " />
<glyph glyph-name="Hbar" unicode="&#x126;" horiz-adv-x="696" d="M196 298 L196 0 L76 0 L76 680 L196 680 L196 559 L500 559 L500 680 L620 680 L620 0 L498 0 L500 298 L196 298 Z M500 405 L500 474 L196 474 L196 405 L500 405 Z " />
<glyph glyph-name="hbar" unicode="&#x127;" horiz-adv-x="546" d="M-25 617 L63 617 L63 680 L177 680 L177 617 L328 617 L328 540 L177 540 L177 415 Q194 447 232.5 467.5 Q271 488 325 488 Q366 488 399 474.5 Q432 461 456 429 Q464 417 470 404 Q476 391 480 372.5 Q484 354 486 329 Q488 304 488 270 L488 0 L374 0 L374 241 Q374 268 372.5 291 Q371 314 366 332 Q358 358 338.5 372.5 Q319 387 282 387 Q228 387 202.5 350 Q177 313 177 255 L177 0 L63 0 L63 540 L-25 540 L-25 617 Z " />
<glyph glyph-name="Itilde" unicode="&#x128;" horiz-adv-x="272" d="M310 861 Q302 842 292.5 823.5 Q283 805 269.5 790 Q256 775 238.5 766 Q221 757 197 757 Q177 757 162 762 Q147 767 131 775 Q114 783 99.5 790 Q85 797 74 797 Q57 797 49 783 Q41 769 36 754 L-37 777 Q-34 789 -25.5 807 Q-17 825 -3 841.5 Q11 858 30.5 869.5 Q50 881 76 881 Q95 881 110.5 875 Q126 869 141 861 Q155 853 168.5 847.5 Q182 842 195 842 Q212 842 222.5 855.5 Q233 869 238 885 L310 861 Z M196 0 L76 0 L76 680 L196 680 L196 0 Z " />
<glyph glyph-name="itilde" unicode="&#x129;" horiz-adv-x="240" d="M177 0 L63 0 L63 476 L177 476 L177 0 Z M296 651 Q288 632 278.5 613.5 Q269 595 255.5 580 Q242 565 224.5 556 Q207 547 183 547 Q163 547 148 552 Q133 557 117 565 Q100 573 85.5 580 Q71 587 60 587 Q43 587 35 573 Q27 559 22 544 L-51 567 Q-48 579 -39.5 597 Q-31 615 -17 631.5 Q-3 648 16.5 659.5 Q36 671 62 671 Q81 671 96.5 665 Q112 659 127 651 Q141 643 154.5 637.5 Q168 632 181 632 Q198 632 208.5 645.5 Q219 659 224 675 L296 651 Z " />
<glyph glyph-name="Imacron" unicode="&#x12a;" horiz-adv-x="272" d="M196 0 L76 0 L76 680 L196 680 L196 0 Z M-10 868 L282 868 L282 775 L-10 775 L-10 868 Z " />
<glyph glyph-name="imacron" unicode="&#x12b;" horiz-adv-x="240" d="M177 0 L63 0 L63 476 L177 476 L177 0 Z M-26 680 L266 680 L266 587 L-26 587 L-26 680 Z " />
<glyph glyph-name="Ibreve" unicode="&#x12c;" horiz-adv-x="272" d="M196 0 L76 0 L76 680 L196 680 L196 0 Z M136 825 Q183 825 197 888 L288 888 Q277 816 238 776.5 Q199 737 136 737 Q73 737 33.5 776.5 Q-6 816 -16 888 L74 888 Q89 825 136 825 Z " />
<glyph glyph-name="ibreve" unicode="&#x12d;" horiz-adv-x="240" d="M177 0 L63 0 L63 476 L177 476 L177 0 Z M120 617 Q167 617 181 680 L272 680 Q261 608 222 568.5 Q183 529 120 529 Q57 529 17.5 568.5 Q-22 608 -32 680 L58 680 Q73 617 120 617 Z " />
<glyph glyph-name="Iogonek" unicode="&#x12e;" horiz-adv-x="272" d="M184 -202 Q165 -213 145 -217 Q125 -221 109 -221 Q86 -221 66 -214.5 Q46 -208 30 -195 Q14 -182 5 -162 Q-4 -142 -4 -114 Q-4 -93 4.5 -75.5 Q13 -58 25 -44 Q37 -30 51 -19 Q65 -8 76 0 L76 680 L196 680 L196 0 Q181 -9 162.5 -21 Q144 -33 127.5 -47.5 Q111 -62 99.5 -77.5 Q88 -93 88 -108 Q88 -134 116 -134 Q126 -134 134 -131.5 Q142 -129 150 -125 L184 -202 Z " />
<glyph glyph-name="iogonek" unicode="&#x12f;" horiz-adv-x="240" d="M167 -202 Q148 -213 128 -217 Q108 -221 92 -221 Q69 -221 49 -214.5 Q29 -208 13 -195 Q-3 -182 -12 -162 Q-21 -142 -21 -114 Q-21 -93 -12 -75.5 Q-3 -58 9.5 -44 Q22 -30 36.5 -19 Q51 -8 63 0 L63 476 L177 476 L177 0 Q162 -9 144 -21 Q126 -33 109.5 -47.5 Q93 -62 82 -77.5 Q71 -93 71 -108 Q71 -134 99 -134 Q109 -134 117 -131.5 Q125 -129 133 -125 L167 -202 Z M177 564 L63 564 L63 680 L177 680 L177 564 Z " />
<glyph glyph-name="Idotaccent" unicode="&#x130;" horiz-adv-x="272" d="M196 0 L76 0 L76 680 L196 680 L196 0 Z M78 884 L195 884 L195 757 L78 757 L78 884 Z " />
<glyph glyph-name="dotlessi" unicode="&#x131;" horiz-adv-x="240" d="M177 0 L63 0 L63 476 L177 476 L177 0 Z " />
<glyph glyph-name="IJ" unicode="&#x132;" horiz-adv-x="649" d="M196 0 L76 0 L76 680 L196 680 L196 0 Z M577 680 L577 207 Q577 165 572.5 128.5 Q568 92 548 64 Q534 45 514 31.5 Q494 18 469.5 9 Q445 0 418 -4 Q391 -8 364 -8 Q345 -8 326 -7 Q307 -6 288 -1 L288 106 Q315 100 348 100 Q380 100 400.5 107 Q421 114 433 127 Q447 144 452 168.5 Q457 193 457 238 L457 680 L577 680 Z " />
<glyph glyph-name="ij" unicode="&#x133;" horiz-adv-x="484" d="M177 0 L63 0 L63 476 L177 476 L177 0 Z M177 564 L63 564 L63 680 L177 680 L177 564 Z M421 476 L421 -47 Q421 -87 419 -103.5 Q417 -120 412 -133 Q403 -155 386 -168.5 Q369 -182 348.5 -189 Q328 -196 305 -198 Q282 -200 261 -200 Q254 -200 247.5 -200 Q241 -200 230 -199 L230 -104 Q246 -103 260 -101.5 Q274 -100 284.5 -94.5 Q295 -89 301 -78 Q307 -67 307 -47 L307 476 L421 476 Z M421 564 L307 564 L307 680 L421 680 L421 564 Z " />
<glyph glyph-name="Jcircumflex" unicode="&#x134;" horiz-adv-x="379" d="M178 744 L67 744 L193 889 L273 889 L400 744 L288 744 L232 806 L178 744 Z M307 680 L307 207 Q307 165 302.5 128.5 Q298 92 278 64 Q264 45 244 31.5 Q224 18 199.5 9 Q175 0 148 -4 Q121 -8 94 -8 Q75 -8 56 -7 Q37 -6 18 -1 L18 106 Q45 100 78 100 Q110 100 130.5 107 Q151 114 163 127 Q177 144 182 168.5 Q187 193 187 238 L187 680 L307 680 Z " />
<glyph glyph-name="jcircumflex" unicode="&#x135;" horiz-adv-x="240" d="M177 476 L177 -47 Q177 -87 175 -103.5 Q173 -120 168 -133 Q159 -155 142 -168.5 Q125 -182 104.5 -189 Q84 -196 61 -198 Q38 -200 17 -200 Q10 -200 3.5 -200 Q-3 -200 -14 -199 L-14 -104 Q2 -103 16 -101.5 Q30 -100 40.5 -94.5 Q51 -89 57 -78 Q63 -67 63 -47 L63 476 L177 476 Z M64 552 L-40 552 L78 680 L154 680 L273 552 L168 552 L115 602 L64 552 Z " />
<glyph glyph-name="Kcommaaccent" unicode="&#x136;" horiz-adv-x="661" d="M661 0 L508 0 L288 311 L196 220 L196 0 L76 0 L76 680 L196 680 L196 373 L493 680 L655 680 L378 399 L661 0 Z M401 -60 L401 -112 Q401 -126 400.5 -141.5 Q400 -157 399 -169 Q396 -196 389 -218 Q382 -240 368 -255.5 Q354 -271 330.5 -279.5 Q307 -288 272 -289 L272 -224 Q300 -222 314.5 -210.5 Q329 -199 329 -173 L329 -171 L272 -171 L272 -60 L401 -60 Z " />
<glyph glyph-name="kcommaaccent" unicode="&#x137;" horiz-adv-x="535" d="M177 680 L177 281 L369 476 L516 476 L328 291 L533 0 L391 0 L247 213 L177 149 L177 0 L63 0 L63 680 L177 680 Z M342 -60 L342 -112 Q342 -126 341.5 -141.5 Q341 -157 340 -169 Q337 -196 330 -218 Q323 -240 309 -255.5 Q295 -271 271.5 -279.5 Q248 -288 213 -289 L213 -224 Q241 -222 255.5 -210.5 Q270 -199 270 -173 L270 -171 L213 -171 L213 -60 L342 -60 Z " />
<glyph glyph-name="kgreenlandic" unicode="&#x138;" horiz-adv-x="535" d="M478 379 Q432 379 398.5 355.5 Q365 332 326 291 L531 0 L389 0 L245 213 L175 149 L175 0 L61 0 L61 475 L175 475 L175 281 L266 374 Q292 400 316 421 Q340 442 364 456.5 Q388 471 414 478.5 Q440 486 471 486 Q476 486 479.5 485.5 Q483 485 488 485 L488 379 L478 379 L478 379 Z " />
<glyph glyph-name="Lacute" unicode="&#x139;" horiz-adv-x="503" d="M277 889 L168 744 L70 744 L137 889 L277 889 Z M197 680 L197 110 L489 110 L489 0 L76 0 L76 680 L197 680 Z " />
<glyph glyph-name="lacute" unicode="&#x13a;" horiz-adv-x="248" d="M274 889 L165 744 L67 744 L134 889 L274 889 Z M181 0 L67 0 L67 680 L181 680 L181 0 Z " />
<glyph glyph-name="Lcommaaccent" unicode="&#x13b;" horiz-adv-x="503" d="M197 680 L197 110 L489 110 L489 0 L76 0 L76 680 L197 680 Z M340 -60 L340 -112 Q340 -126 339.5 -141.5 Q339 -157 338 -169 Q335 -196 328 -218 Q321 -240 307 -255.5 Q293 -271 269.5 -279.5 Q246 -288 211 -289 L211 -224 Q239 -222 253.5 -210.5 Q268 -199 268 -173 L268 -171 L211 -171 L211 -60 L340 -60 Z " />
<glyph glyph-name="lcommaaccent" unicode="&#x13c;" horiz-adv-x="248" d="M181 0 L67 0 L67 680 L181 680 L181 0 Z M187 -60 L187 -112 Q187 -126 186.5 -141.5 Q186 -157 185 -169 Q182 -196 175 -218 Q168 -240 154 -255.5 Q140 -271 116.5 -279.5 Q93 -288 58 -289 L58 -224 Q86 -222 100.5 -210.5 Q115 -199 115 -173 L115 -171 L58 -171 L58 -60 L187 -60 Z " />
<glyph glyph-name="Lcaron" unicode="&#x13d;" horiz-adv-x="504" d="M197 680 L197 110 L489 110 L489 0 L76 0 L76 680 L197 680 Z M282 551 L311 679 L432 679 L368 551 L282 551 Z " />
<glyph glyph-name="lcaron" unicode="&#x13e;" horiz-adv-x="258" d="M181 0 L67 0 L67 680 L181 680 L181 0 Z M230 551 L259 679 L380 679 L316 551 L230 551 Z " />
<glyph glyph-name="Ldot" unicode="&#x13f;" horiz-adv-x="504" d="M197 680 L197 110 L489 110 L489 0 L76 0 L76 680 L197 680 Z M417 476 L417 344 L288 344 L288 476 L417 476 Z " />
<glyph glyph-name="ldot" unicode="&#x140;" horiz-adv-x="366" d="M181 0 L67 0 L67 680 L181 680 L181 0 Z M372 476 L372 344 L243 344 L243 476 L372 476 Z " />
<glyph glyph-name="Lslash" unicode="&#x141;" horiz-adv-x="516" d="M210 680 L210 400 L394 518 L394 399 L210 280 L210 110 L502 110 L502 0 L89 0 L89 202 L19 157 L19 277 L89 322 L89 680 L210 680 Z " />
<glyph glyph-name="lslash" unicode="&#x142;" horiz-adv-x="271" d="M196 484 L265 529 L265 404 L196 359 L196 0 L82 0 L82 285 L19 244 L19 369 L82 410 L82 680 L196 680 L196 484 Z " />
<glyph glyph-name="Nacute" unicode="&#x143;" horiz-adv-x="692" d="M487 889 L378 744 L280 744 L347 889 L487 889 Z M447 291 Q453 282 460.5 270 Q468 258 475.5 246 Q483 234 489.5 224 Q496 214 499 208 Q499 216 498.5 242 Q498 268 498 302.5 Q498 337 497.5 376.5 Q497 416 497 452 L497 680 L616 680 L616 0 L504 0 L236 409 Q228 421 220.5 433.5 Q213 446 207 456 Q201 466 197 472.5 Q193 479 193 479 Q193 467 193.5 442 Q194 417 194.5 383.5 Q195 350 195 310 Q195 270 195 227 L195 0 L76 0 L76 680 L188 680 L447 291 Z " />
<glyph glyph-name="nacute" unicode="&#x144;" horiz-adv-x="546" d="M488 0 L374 0 L374 241 Q374 268 372.5 291 Q371 314 366 332 Q358 358 338.5 372.5 Q319 387 282 387 Q228 387 202.5 350 Q177 313 177 255 L177 0 L63 0 L63 476 L177 476 L177 415 Q194 447 232.5 467.5 Q271 488 325 488 Q366 488 399 474.5 Q432 461 456 429 Q464 417 470 404 Q476 391 480 372.5 Q484 354 486 329 Q488 304 488 270 L488 0 Z M402 680 L301 552 L203 552 L267 680 L402 680 Z " />
<glyph glyph-name="Ncommaaccent" unicode="&#x145;" horiz-adv-x="692" d="M447 291 Q453 282 460.5 270 Q468 258 475.5 246 Q483 234 489.5 224 Q496 214 499 208 Q499 216 498.5 242 Q498 268 498 302.5 Q498 337 497.5 376.5 Q497 416 497 452 L497 680 L616 680 L616 0 L504 0 L236 409 Q228 421 220.5 433.5 Q213 446 207 456 Q201 466 197 472.5 Q193 479 193 479 Q193 467 193.5 442 Q194 417 194.5 383.5 Q195 350 195 310 Q195 270 195 227 L195 0 L76 0 L76 680 L188 680 L447 291 Z M414 -60 L414 -112 Q414 -126 413.5 -141.5 Q413 -157 412 -169 Q409 -196 402 -218 Q395 -240 381 -255.5 Q367 -271 343.5 -279.5 Q320 -288 285 -289 L285 -224 Q313 -222 327.5 -210.5 Q342 -199 342 -173 L342 -171 L285 -171 L285 -60 L414 -60 Z " />
<glyph glyph-name="ncommaaccent" unicode="&#x146;" horiz-adv-x="546" d="M488 0 L374 0 L374 241 Q374 268 372.5 291 Q371 314 366 332 Q358 358 338.5 372.5 Q319 387 282 387 Q228 387 202.5 350 Q177 313 177 255 L177 0 L63 0 L63 476 L177 476 L177 415 Q194 447 232.5 467.5 Q271 488 325 488 Q366 488 399 474.5 Q432 461 456 429 Q464 417 470 404 Q476 391 480 372.5 Q484 354 486 329 Q488 304 488 270 L488 0 Z M337 -60 L337 -112 Q337 -126 336.5 -141.5 Q336 -157 335 -169 Q332 -196 325 -218 Q318 -240 304 -255.5 Q290 -271 266.5 -279.5 Q243 -288 208 -289 L208 -224 Q236 -222 250.5 -210.5 Q265 -199 265 -173 L265 -171 L208 -171 L208 -60 L337 -60 Z " />
<glyph glyph-name="Ncaron" unicode="&#x147;" horiz-adv-x="692" d="M349 827 L405 889 L517 889 L390 744 L310 744 L184 889 L295 889 L349 827 Z M447 291 Q453 282 460.5 270 Q468 258 475.5 246 Q483 234 489.5 224 Q496 214 499 208 Q499 216 498.5 242 Q498 268 498 302.5 Q498 337 497.5 376.5 Q497 416 497 452 L497 680 L616 680 L616 0 L504 0 L236 409 Q228 421 220.5 433.5 Q213 446 207 456 Q201 466 197 472.5 Q193 479 193 479 Q193 467 193.5 442 Q194 417 194.5 383.5 Q195 350 195 310 Q195 270 195 227 L195 0 L76 0 L76 680 L188 680 L447 291 Z " />
<glyph glyph-name="ncaron" unicode="&#x148;" horiz-adv-x="546" d="M488 0 L374 0 L374 241 Q374 268 372.5 291 Q371 314 366 332 Q358 358 338.5 372.5 Q319 387 282 387 Q228 387 202.5 350 Q177 313 177 255 L177 0 L63 0 L63 476 L177 476 L177 415 Q194 447 232.5 467.5 Q271 488 325 488 Q366 488 399 474.5 Q432 461 456 429 Q464 417 470 404 Q476 391 480 372.5 Q484 354 486 329 Q488 304 488 270 L488 0 Z M282 630 L335 680 L440 680 L321 552 L245 552 L127 680 L231 680 L282 630 Z " />
<glyph glyph-name="napostrophe" unicode="&#x149;" horiz-adv-x="546" d="M488 0 L374 0 L374 241 Q374 268 372.5 291 Q371 314 366 332 Q358 358 338.5 372.5 Q319 387 282 387 Q228 387 202.5 350 Q177 313 177 255 L177 0 L63 0 L63 476 L177 476 L177 415 Q194 447 232.5 467.5 Q271 488 325 488 Q366 488 399 474.5 Q432 461 456 429 Q464 417 470 404 Q476 391 480 372.5 Q484 354 486 329 Q488 304 488 270 L488 0 Z M122 791 L122 739 Q122 725 121.5 709.5 Q121 694 120 682 Q117 655 110 633 Q103 611 89 595.5 Q75 580 51.5 571.5 Q28 563 -7 562 L-7 627 Q21 629 35.5 640.5 Q50 652 50 678 L50 680 L-7 680 L-7 791 L122 791 Z " />
<glyph glyph-name="Eng" unicode="&#x14a;" horiz-adv-x="692" d="M447 291 Q453 282 460.5 270 Q468 258 475.5 246 Q483 234 489.5 224 Q496 214 499 208 Q499 216 498.5 242 Q498 268 498 302.5 Q498 337 497.5 376.5 Q497 416 497 452 L497 680 L616 680 L616 17 Q616 -25 611.5 -61.5 Q607 -98 587 -126 Q573 -145 553 -158.5 Q533 -172 508.5 -181 Q484 -190 457 -194 Q430 -198 403 -198 Q384 -198 365 -197 Q346 -196 327 -191 L327 -84 Q354 -90 389 -90 Q421 -90 441.5 -83 Q462 -76 474 -63 Q485 -50 490 -33 Q495 -16 497 10 L236 409 Q228 421 220.5 433.5 Q213 446 207 456 Q201 466 197 472.5 Q193 479 193 479 Q193 467 193.5 442 Q194 417 194.5 383.5 Q195 350 195 310 Q195 270 195 227 L195 0 L76 0 L76 680 L188 680 L447 291 Z " />
<glyph glyph-name="eng" unicode="&#x14b;" horiz-adv-x="546" d="M488 -47 Q488 -87 486 -103.5 Q484 -120 479 -133 Q470 -155 453 -168.5 Q436 -182 415.5 -189 Q395 -196 372 -198 Q349 -200 328 -200 Q321 -200 314.5 -200 Q308 -200 297 -199 L297 -104 Q313 -103 327 -101.5 Q341 -100 351.5 -94.5 Q362 -89 368 -78 Q374 -67 374 -47 L374 241 Q374 268 372.5 291 Q371 314 366 332 Q358 358 338.5 372.5 Q319 387 282 387 Q228 387 202.5 350 Q177 313 177 255 L177 0 L63 0 L63 476 L177 476 L177 415 Q194 447 232.5 467.5 Q271 488 325 488 Q366 488 399 474.5 Q432 461 456 429 Q464 417 470 404 Q476 391 480 372.5 Q484 354 486 329 Q488 304 488 270 L488 -47 Z " />
<glyph glyph-name="Omacron" unicode="&#x14c;" horiz-adv-x="726" d="M41 340 Q41 418 63.5 482.5 Q86 547 128 593.5 Q170 640 229.5 666 Q289 692 363 692 Q437 692 496.5 666 Q556 640 598 593.5 Q640 547 662.5 482.5 Q685 418 685 340 Q685 262 664 197.5 Q643 133 602 86.5 Q561 40 501 14 Q441 -12 363 -12 Q286 -12 226 14 Q166 40 125 86.5 Q84 133 62.5 197.5 Q41 262 41 340 Z M172 340 Q172 284 185 239.5 Q198 195 222.5 163 Q247 131 282.5 114 Q318 97 363 97 Q408 97 443.5 114 Q479 131 503.5 163 Q528 195 541 239.5 Q554 284 554 340 Q554 395 541 440.5 Q528 486 503 518 Q478 550 443 567.5 Q408 585 363 585 Q318 585 283 567.5 Q248 550 223 518 Q198 486 185 440.5 Q172 395 172 340 Z M217 867 L509 867 L509 774 L217 774 L217 867 Z " />
<glyph glyph-name="omacron" unicode="&#x14d;" horiz-adv-x="548" d="M36 236 Q36 293 53 339.5 Q70 386 101 419 Q132 452 176 469.5 Q220 487 274 487 Q328 487 372 469.5 Q416 452 447 419 Q478 386 495 339.5 Q512 293 512 236 Q512 179 495.5 133 Q479 87 448 55 Q417 23 373 5.5 Q329 -12 274 -12 Q219 -12 175 5.5 Q131 23 100 55 Q69 87 52.5 133 Q36 179 36 236 Z M149 238 Q149 166 184 126 Q219 86 274 86 Q329 86 364 126.5 Q399 167 399 238 Q399 310 365 350 Q331 390 274 390 Q217 390 183 350 Q149 310 149 238 Z M128 680 L420 680 L420 587 L128 587 L128 680 Z " />
<glyph glyph-name="Obreve" unicode="&#x14e;" horiz-adv-x="726" d="M41 340 Q41 418 63.5 482.5 Q86 547 128 593.5 Q170 640 229.5 666 Q289 692 363 692 Q437 692 496.5 666 Q556 640 598 593.5 Q640 547 662.5 482.5 Q685 418 685 340 Q685 262 664 197.5 Q643 133 602 86.5 Q561 40 501 14 Q441 -12 363 -12 Q286 -12 226 14 Q166 40 125 86.5 Q84 133 62.5 197.5 Q41 262 41 340 Z M172 340 Q172 284 185 239.5 Q198 195 222.5 163 Q247 131 282.5 114 Q318 97 363 97 Q408 97 443.5 114 Q479 131 503.5 163 Q528 195 541 239.5 Q554 284 554 340 Q554 395 541 440.5 Q528 486 503 518 Q478 550 443 567.5 Q408 585 363 585 Q318 585 283 567.5 Q248 550 223 518 Q198 486 185 440.5 Q172 395 172 340 Z M363 825 Q410 825 424 888 L515 888 Q504 816 465 776.5 Q426 737 363 737 Q300 737 260.5 776.5 Q221 816 211 888 L301 888 Q316 825 363 825 Z " />
<glyph glyph-name="obreve" unicode="&#x14f;" horiz-adv-x="548" d="M36 236 Q36 293 53 339.5 Q70 386 101 419 Q132 452 176 469.5 Q220 487 274 487 Q328 487 372 469.5 Q416 452 447 419 Q478 386 495 339.5 Q512 293 512 236 Q512 179 495.5 133 Q479 87 448 55 Q417 23 373 5.5 Q329 -12 274 -12 Q219 -12 175 5.5 Q131 23 100 55 Q69 87 52.5 133 Q36 179 36 236 Z M149 238 Q149 166 184 126 Q219 86 274 86 Q329 86 364 126.5 Q399 167 399 238 Q399 310 365 350 Q331 390 274 390 Q217 390 183 350 Q149 310 149 238 Z M274 617 Q321 617 335 680 L426 680 Q415 608 376 568.5 Q337 529 274 529 Q211 529 171.5 568.5 Q132 608 122 680 L212 680 Q227 617 274 617 Z " />
<glyph glyph-name="Ohungarumlaut" unicode="&#x150;" horiz-adv-x="726" d="M600 889 L491 744 L393 744 L460 889 L600 889 Z M411 889 L302 744 L204 744 L271 889 L411 889 Z M41 340 Q41 418 63.5 482.5 Q86 547 128 593.5 Q170 640 229.5 666 Q289 692 363 692 Q437 692 496.5 666 Q556 640 598 593.5 Q640 547 662.5 482.5 Q685 418 685 340 Q685 262 664 197.5 Q643 133 602 86.5 Q561 40 501 14 Q441 -12 363 -12 Q286 -12 226 14 Q166 40 125 86.5 Q84 133 62.5 197.5 Q41 262 41 340 Z M172 340 Q172 284 185 239.5 Q198 195 222.5 163 Q247 131 282.5 114 Q318 97 363 97 Q408 97 443.5 114 Q479 131 503.5 163 Q528 195 541 239.5 Q554 284 554 340 Q554 395 541 440.5 Q528 486 503 518 Q478 550 443 567.5 Q408 585 363 585 Q318 585 283 567.5 Q248 550 223 518 Q198 486 185 440.5 Q172 395 172 340 Z " />
<glyph glyph-name="ohungarumlaut" unicode="&#x151;" horiz-adv-x="548" d="M36 236 Q36 293 53 339.5 Q70 386 101 419 Q132 452 176 469.5 Q220 487 274 487 Q328 487 372 469.5 Q416 452 447 419 Q478 386 495 339.5 Q512 293 512 236 Q512 179 495.5 133 Q479 87 448 55 Q417 23 373 5.5 Q329 -12 274 -12 Q219 -12 175 5.5 Q131 23 100 55 Q69 87 52.5 133 Q36 179 36 236 Z M149 238 Q149 166 184 126 Q219 86 274 86 Q329 86 364 126.5 Q399 167 399 238 Q399 310 365 350 Q331 390 274 390 Q217 390 183 350 Q149 310 149 238 Z M496 680 L395 552 L297 552 L361 680 L496 680 Z M319 680 L218 552 L120 552 L184 680 L319 680 Z " />
<glyph glyph-name="OE" unicode="&#x152;" horiz-adv-x="951" d="M444 560 Q405 566 375 566 Q325 566 285 552 Q245 538 216 509 Q187 480 171.5 435.5 Q156 391 156 331 Q156 271 173 226 Q190 181 220 151 Q250 121 290 106 Q330 91 376 91 Q423 91 444 97 L444 560 Z M482 0 Q456 -5 427.5 -7.5 Q399 -10 372 -10 Q297 -10 236 11.5 Q175 33 132 76 Q89 119 65.5 182 Q42 245 42 329 Q42 409 65 472.5 Q88 536 130.5 580 Q173 624 234.5 647.5 Q296 671 373 671 Q400 671 427.5 668.5 Q455 666 482 661 L891 661 L891 560 L552 560 L552 392 L861 392 L861 295 L552 295 L552 102 L914 102 L914 0 L482 0 Z " />
<glyph glyph-name="oe" unicode="&#x153;" horiz-adv-x="879" d="M846 108 Q838 96 821.5 75.5 Q805 55 778 35.5 Q751 16 712.5 2 Q674 -12 622 -12 Q568 -12 525 6 Q482 24 450 57 Q418 24 373.5 6 Q329 -12 274 -12 Q219 -12 175 5.5 Q131 23 100 55 Q69 87 52.5 133 Q36 179 36 236 Q36 293 53 339.5 Q70 386 101 419 Q132 452 176 469.5 Q220 487 274 487 Q386 487 449 416 Q481 450 524.5 468.5 Q568 487 619 487 Q674 487 716 467.5 Q758 448 786.5 413.5 Q815 379 829.5 332.5 Q844 286 844 231 Q844 225 843.5 219 Q843 213 843 207 L496 207 Q499 183 508 161 Q517 139 533.5 122.5 Q550 106 573.5 96 Q597 86 629 86 Q661 86 684.5 95.5 Q708 105 724.5 118 Q741 131 751 145 Q761 159 767 168 L846 108 Z M149 238 Q149 166 184 126 Q219 86 274 86 Q329 86 364 126.5 Q399 167 399 238 Q399 310 365 350 Q331 390 274 390 Q217 390 183 350 Q149 310 149 238 Z M619 396 Q595 396 573.5 388 Q552 380 536 365.5 Q520 351 510 332 Q500 313 499 292 L731 292 Q729 339 698 367.5 Q667 396 619 396 Z " />
<glyph glyph-name="Racute" unicode="&#x154;" horiz-adv-x="644" d="M457 889 L348 744 L250 744 L317 889 L457 889 Z M196 272 L196 0 L76 0 L76 680 L325 680 Q369 680 413 676 Q457 672 496 649 Q541 623 567 580.5 Q593 538 593 475 Q593 418 569 377 Q545 336 503 308 Q491 300 476.5 294.5 Q462 289 450 284 L620 0 L477 0 L319 272 L196 272 Z M196 380 L325 380 Q362 380 383.5 383 Q405 386 421 393 Q444 404 456.5 427 Q469 450 469 478 Q469 506 456.5 528.5 Q444 551 421 561 Q405 568 383.5 571 Q362 574 325 574 L196 574 L196 380 Z " />
<glyph glyph-name="racute" unicode="&#x155;" horiz-adv-x="356" d="M177 476 L177 406 Q180 415 189.5 429 Q199 443 215.5 456 Q232 469 256.5 478.5 Q281 488 316 488 Q321 488 323.5 488 Q326 488 334 487 L334 371 Q326 372 318 372.5 Q310 373 302 373 Q256 373 229.5 356.5 Q203 340 190 308 Q183 290 180 268 Q177 246 177 214 L177 0 L63 0 L63 476 L177 476 Z M263 680 L162 552 L64 552 L128 680 L263 680 Z " />
<glyph glyph-name="Rcommaaccent" unicode="&#x156;" horiz-adv-x="644" d="M196 272 L196 0 L76 0 L76 680 L325 680 Q369 680 413 676 Q457 672 496 649 Q541 623 567 580.5 Q593 538 593 475 Q593 418 569 377 Q545 336 503 308 Q491 300 476.5 294.5 Q462 289 450 284 L620 0 L477 0 L319 272 L196 272 Z M196 380 L325 380 Q362 380 383.5 383 Q405 386 421 393 Q444 404 456.5 427 Q469 450 469 478 Q469 506 456.5 528.5 Q444 551 421 561 Q405 568 383.5 571 Q362 574 325 574 L196 574 L196 380 Z M383 -60 L383 -112 Q383 -126 382.5 -141.5 Q382 -157 381 -169 Q378 -196 371 -218 Q364 -240 350 -255.5 Q336 -271 312.5 -279.5 Q289 -288 254 -289 L254 -224 Q282 -222 296.5 -210.5 Q311 -199 311 -173 L311 -171 L254 -171 L254 -60 L383 -60 Z " />
<glyph glyph-name="rcommaaccent" unicode="&#x157;" horiz-adv-x="356" d="M177 476 L177 406 Q180 415 189.5 429 Q199 443 215.5 456 Q232 469 256.5 478.5 Q281 488 316 488 Q321 488 323.5 488 Q326 488 334 487 L334 371 Q326 372 318 372.5 Q310 373 302 373 Q256 373 229.5 356.5 Q203 340 190 308 Q183 290 180 268 Q177 246 177 214 L177 0 L63 0 L63 476 L177 476 Z M186 -60 L186 -112 Q186 -126 185.5 -141.5 Q185 -157 184 -169 Q181 -196 174 -218 Q167 -240 153 -255.5 Q139 -271 115.5 -279.5 Q92 -288 57 -289 L57 -224 Q85 -222 99.5 -210.5 Q114 -199 114 -173 L114 -171 L57 -171 L57 -60 L186 -60 Z " />
<glyph glyph-name="Rcaron" unicode="&#x158;" horiz-adv-x="644" d="M308 828 L364 890 L476 890 L349 745 L269 745 L143 890 L254 890 L308 828 Z M196 272 L196 0 L76 0 L76 680 L325 680 Q369 680 413 676 Q457 672 496 649 Q541 623 567 580.5 Q593 538 593 475 Q593 418 569 377 Q545 336 503 308 Q491 300 476.5 294.5 Q462 289 450 284 L620 0 L477 0 L319 272 L196 272 Z M196 380 L325 380 Q362 380 383.5 383 Q405 386 421 393 Q444 404 456.5 427 Q469 450 469 478 Q469 506 456.5 528.5 Q444 551 421 561 Q405 568 383.5 571 Q362 574 325 574 L196 574 L196 380 Z " />
<glyph glyph-name="rcaron" unicode="&#x159;" horiz-adv-x="356" d="M177 476 L177 406 Q180 415 189.5 429 Q199 443 215.5 456 Q232 469 256.5 478.5 Q281 488 316 488 Q321 488 323.5 488 Q326 488 334 487 L334 371 Q326 372 318 372.5 Q310 373 302 373 Q256 373 229.5 356.5 Q203 340 190 308 Q183 290 180 268 Q177 246 177 214 L177 0 L63 0 L63 476 L177 476 Z M183 630 L236 680 L341 680 L222 552 L146 552 L28 680 L132 680 L183 630 Z " />
<glyph glyph-name="Sacute" unicode="&#x15a;" horiz-adv-x="622" d="M438 889 L329 744 L231 744 L298 889 L438 889 Z M480 505 Q451 540 406 563.5 Q361 587 304 587 Q244 587 211.5 561 Q179 535 179 496 Q179 458 205 440.5 Q231 423 289 410 L371 392 Q419 381 459 367 Q499 353 528 331 Q557 309 573.5 276.5 Q590 244 590 198 Q590 151 571 112 Q552 73 517 45.5 Q482 18 431.5 3 Q381 -12 317 -12 Q261 -12 214.5 0.5 Q168 13 131 33 Q94 53 66.5 77.5 Q39 102 21 127 L121 199 Q133 180 152.5 161.5 Q172 143 198 128 Q224 113 255.5 104 Q287 95 323 95 Q392 95 426.5 120.5 Q461 146 461 187 Q461 227 429 245.5 Q397 264 345 275 L254 295 Q212 304 175 318 Q138 332 110.5 355 Q83 378 66.5 410.5 Q50 443 50 490 Q50 535 70 572.5 Q90 610 124.5 636.5 Q159 663 206 677.5 Q253 692 307 692 Q360 692 402 680.5 Q444 669 476.5 652 Q509 635 532.5 615 Q556 595 571 579 L480 505 Z " />
<glyph glyph-name="sacute" unicode="&#x15b;" horiz-adv-x="481" d="M369 341 Q344 365 310.5 380 Q277 395 235 395 Q201 395 179 383 Q157 371 157 348 Q157 335 163 327 Q169 319 181.5 313 Q194 307 213 302.5 Q232 298 257 293 L314 280 Q341 274 366 265 Q391 256 409.5 241 Q428 226 439.5 204 Q451 182 451 149 Q451 108 434 78 Q417 48 388 28 Q359 8 321.5 -2 Q284 -12 243 -12 Q200 -12 164.5 -2.5 Q129 7 101 21 Q73 35 53.5 52.5 Q34 70 23 85 L100 153 Q120 126 155.5 104 Q191 82 246 82 Q289 82 312.5 96 Q336 110 336 136 Q336 161 317 169 Q298 177 263 185 L192 200 Q161 207 134 217.5 Q107 228 87 244.5 Q67 261 55.5 284 Q44 307 44 340 Q44 379 61 407 Q78 435 105.5 453 Q133 471 167.5 479.5 Q202 488 236 488 Q272 488 303 481 Q334 474 359.5 463 Q385 452 404 438.5 Q423 425 435 412 L369 341 Z M375 680 L274 552 L176 552 L240 680 L375 680 Z " />
<glyph glyph-name="Scircumflex" unicode="&#x15c;" horiz-adv-x="622" d="M248 745 L137 745 L263 890 L343 890 L470 745 L358 745 L302 807 L248 745 Z M480 505 Q451 540 406 563.5 Q361 587 304 587 Q244 587 211.5 561 Q179 535 179 496 Q179 458 205 440.5 Q231 423 289 410 L371 392 Q419 381 459 367 Q499 353 528 331 Q557 309 573.5 276.5 Q590 244 590 198 Q590 151 571 112 Q552 73 517 45.5 Q482 18 431.5 3 Q381 -12 317 -12 Q261 -12 214.5 0.5 Q168 13 131 33 Q94 53 66.5 77.5 Q39 102 21 127 L121 199 Q133 180 152.5 161.5 Q172 143 198 128 Q224 113 255.5 104 Q287 95 323 95 Q392 95 426.5 120.5 Q461 146 461 187 Q461 227 429 245.5 Q397 264 345 275 L254 295 Q212 304 175 318 Q138 332 110.5 355 Q83 378 66.5 410.5 Q50 443 50 490 Q50 535 70 572.5 Q90 610 124.5 636.5 Q159 663 206 677.5 Q253 692 307 692 Q360 692 402 680.5 Q444 669 476.5 652 Q509 635 532.5 615 Q556 595 571 579 L480 505 Z " />
<glyph glyph-name="scircumflex" unicode="&#x15d;" horiz-adv-x="481" d="M369 341 Q344 365 310.5 380 Q277 395 235 395 Q201 395 179 383 Q157 371 157 348 Q157 335 163 327 Q169 319 181.5 313 Q194 307 213 302.5 Q232 298 257 293 L314 280 Q341 274 366 265 Q391 256 409.5 241 Q428 226 439.5 204 Q451 182 451 149 Q451 108 434 78 Q417 48 388 28 Q359 8 321.5 -2 Q284 -12 243 -12 Q200 -12 164.5 -2.5 Q129 7 101 21 Q73 35 53.5 52.5 Q34 70 23 85 L100 153 Q120 126 155.5 104 Q191 82 246 82 Q289 82 312.5 96 Q336 110 336 136 Q336 161 317 169 Q298 177 263 185 L192 200 Q161 207 134 217.5 Q107 228 87 244.5 Q67 261 55.5 284 Q44 307 44 340 Q44 379 61 407 Q78 435 105.5 453 Q133 471 167.5 479.5 Q202 488 236 488 Q272 488 303 481 Q334 474 359.5 463 Q385 452 404 438.5 Q423 425 435 412 L369 341 Z M193 552 L89 552 L207 680 L283 680 L402 552 L297 552 L244 602 L193 552 Z " />
<glyph glyph-name="Scedilla" unicode="&#x15e;" horiz-adv-x="622" d="M480 505 Q451 540 406 563.5 Q361 587 304 587 Q244 587 211.5 561 Q179 535 179 496 Q179 458 205 440.5 Q231 423 289 410 L371 392 Q419 381 459 367 Q499 353 528 331 Q557 309 573.5 276.5 Q590 244 590 198 Q590 153 572.5 115.5 Q555 78 522.5 50.5 Q490 23 443 7 Q396 -9 337 -11 L316 -30 Q351 -31 375 -49.5 Q399 -68 399 -106 Q399 -129 390 -145.5 Q381 -162 367 -173 Q353 -184 334 -189.5 Q315 -195 296 -195 Q265 -195 240 -183 L255 -137 Q268 -142 276.5 -143 Q285 -144 293 -144 Q311 -144 322.5 -135.5 Q334 -127 334 -112 Q334 -95 322 -88 Q310 -81 294 -81 Q277 -81 257 -91 L234 -49 L280 -10 Q232 -6 191.5 7 Q151 20 118.5 39 Q86 58 61.5 81 Q37 104 21 127 L121 199 Q133 180 152.5 161.5 Q172 143 198 128 Q224 113 255.5 104 Q287 95 323 95 Q392 95 426.5 120.5 Q461 146 461 187 Q461 227 429 245.5 Q397 264 345 275 L254 295 Q212 304 175 318 Q138 332 110.5 355 Q83 378 66.5 410.5 Q50 443 50 490 Q50 535 70 572.5 Q90 610 124.5 636.5 Q159 663 206 677.5 Q253 692 307 692 Q360 692 402 680.5 Q444 669 476.5 652 Q509 635 532.5 615 Q556 595 571 579 L480 505 Z " />
<glyph glyph-name="scedilla" unicode="&#x15f;" horiz-adv-x="481" d="M369 341 Q344 365 310.5 380 Q277 395 235 395 Q201 395 179 383 Q157 371 157 348 Q157 335 163 327 Q169 319 181.5 313 Q194 307 213 302.5 Q232 298 257 293 L314 280 Q341 274 366 265 Q391 256 409.5 241 Q428 226 439.5 204 Q451 182 451 149 Q451 111 436.5 82.5 Q422 54 397 34 Q372 14 338.5 3 Q305 -8 268 -11 L246 -30 Q281 -31 305 -49.5 Q329 -68 329 -106 Q329 -129 320 -145.5 Q311 -162 297 -173 Q283 -184 264 -189.5 Q245 -195 226 -195 Q195 -195 170 -183 L185 -137 Q198 -142 206.5 -143 Q215 -144 223 -144 Q241 -144 252.5 -135.5 Q264 -127 264 -112 Q264 -95 252 -88 Q240 -81 224 -81 Q207 -81 187 -91 L164 -49 L210 -10 Q174 -7 144 3 Q114 13 90.5 26.5 Q67 40 50 55.5 Q33 71 23 85 L100 153 Q120 126 155.5 104 Q191 82 246 82 Q289 82 312.5 96 Q336 110 336 136 Q336 161 317 169 Q298 177 263 185 L192 200 Q161 207 134 217.5 Q107 228 87 244.5 Q67 261 55.5 284 Q44 307 44 340 Q44 379 61 407 Q78 435 105.5 453 Q133 471 167.5 479.5 Q202 488 236 488 Q272 488 303 481 Q334 474 359.5 463 Q385 452 404 438.5 Q423 425 435 412 L369 341 Z " />
<glyph glyph-name="Scaron" unicode="&#x160;" horiz-adv-x="622" d="M311 827 L367 889 L479 889 L352 744 L272 744 L146 889 L257 889 L311 827 Z M480 505 Q451 540 406 563.5 Q361 587 304 587 Q244 587 211.5 561 Q179 535 179 496 Q179 458 205 440.5 Q231 423 289 410 L371 392 Q419 381 459 367 Q499 353 528 331 Q557 309 573.5 276.5 Q590 244 590 198 Q590 151 571 112 Q552 73 517 45.5 Q482 18 431.5 3 Q381 -12 317 -12 Q261 -12 214.5 0.5 Q168 13 131 33 Q94 53 66.5 77.5 Q39 102 21 127 L121 199 Q133 180 152.5 161.5 Q172 143 198 128 Q224 113 255.5 104 Q287 95 323 95 Q392 95 426.5 120.5 Q461 146 461 187 Q461 227 429 245.5 Q397 264 345 275 L254 295 Q212 304 175 318 Q138 332 110.5 355 Q83 378 66.5 410.5 Q50 443 50 490 Q50 535 70 572.5 Q90 610 124.5 636.5 Q159 663 206 677.5 Q253 692 307 692 Q360 692 402 680.5 Q444 669 476.5 652 Q509 635 532.5 615 Q556 595 571 579 L480 505 Z " />
<glyph glyph-name="scaron" unicode="&#x161;" horiz-adv-x="481" d="M369 341 Q344 365 310.5 380 Q277 395 235 395 Q201 395 179 383 Q157 371 157 348 Q157 335 163 327 Q169 319 181.5 313 Q194 307 213 302.5 Q232 298 257 293 L314 280 Q341 274 366 265 Q391 256 409.5 241 Q428 226 439.5 204 Q451 182 451 149 Q451 108 434 78 Q417 48 388 28 Q359 8 321.5 -2 Q284 -12 243 -12 Q200 -12 164.5 -2.5 Q129 7 101 21 Q73 35 53.5 52.5 Q34 70 23 85 L100 153 Q120 126 155.5 104 Q191 82 246 82 Q289 82 312.5 96 Q336 110 336 136 Q336 161 317 169 Q298 177 263 185 L192 200 Q161 207 134 217.5 Q107 228 87 244.5 Q67 261 55.5 284 Q44 307 44 340 Q44 379 61 407 Q78 435 105.5 453 Q133 471 167.5 479.5 Q202 488 236 488 Q272 488 303 481 Q334 474 359.5 463 Q385 452 404 438.5 Q423 425 435 412 L369 341 Z M243 630 L296 680 L401 680 L282 552 L206 552 L88 680 L192 680 L243 630 Z " />
<glyph glyph-name="uni0162" unicode="&#x162;" horiz-adv-x="555" d="M19 680 L536 680 L536 573 L338 573 L338 0 L310 0 L276 -30 Q311 -31 335 -49.5 Q359 -68 359 -106 Q359 -129 350 -145.5 Q341 -162 327 -173 Q313 -184 294 -189.5 Q275 -195 256 -195 Q225 -195 200 -183 L215 -137 Q228 -142 236.5 -143 Q245 -144 253 -144 Q271 -144 282.5 -135.5 Q294 -127 294 -112 Q294 -95 282 -88 Q270 -81 254 -81 Q237 -81 217 -91 L194 -49 L252 0 L218 0 L218 573 L19 573 L19 680 Z " />
<glyph glyph-name="uni0163" unicode="&#x163;" horiz-adv-x="367" d="M339 -4 Q304 -12 254 -12 L240 -12 L219 -30 Q254 -31 278 -49.5 Q302 -68 302 -106 Q302 -129 293 -145.5 Q284 -162 270 -173 Q256 -184 237 -189.5 Q218 -195 199 -195 Q168 -195 143 -183 L158 -137 Q171 -142 179.5 -143 Q188 -144 196 -144 Q214 -144 225.5 -135.5 Q237 -127 237 -112 Q237 -95 225 -88 Q213 -81 197 -81 Q180 -81 160 -91 L137 -49 L190 -4 Q153 4 134 29 Q120 46 117 68 Q114 90 114 125 L114 387 L12 387 L12 476 L114 476 L114 642 L228 667 L228 476 L339 476 L339 387 L228 387 L228 144 Q228 124 231 113 Q234 102 241 95 Q248 87 261 84.5 Q274 82 289 82 Q304 82 317 83 Q330 84 339 86 L339 -4 Z " />
<glyph glyph-name="Tcaron" unicode="&#x164;" horiz-adv-x="555" d="M277 827 L333 889 L445 889 L318 744 L238 744 L112 889 L223 889 L277 827 Z M19 680 L536 680 L536 573 L338 573 L338 0 L218 0 L218 573 L19 573 L19 680 Z " />
<glyph glyph-name="tcaron" unicode="&#x165;" horiz-adv-x="367" d="M339 -4 Q304 -12 254 -12 Q219 -12 186.5 -3.5 Q154 5 134 29 Q120 46 117 68 Q114 90 114 125 L114 387 L12 387 L12 476 L114 476 L114 642 L228 667 L228 476 L339 476 L339 387 L228 387 L228 144 Q228 124 231 113 Q234 102 241 95 Q248 87 261 84.5 Q274 82 289 82 Q304 82 317 83 Q330 84 339 86 L339 -4 Z M303 552 L332 680 L453 680 L389 552 L303 552 Z " />
<glyph glyph-name="Tbar" unicode="&#x166;" horiz-adv-x="555" d="M94 461 L218 461 L218 573 L19 573 L19 680 L536 680 L536 573 L338 573 L338 461 L462 461 L462 376 L338 376 L338 0 L218 0 L218 376 L94 376 L94 461 Z " />
<glyph glyph-name="tbar" unicode="&#x167;" horiz-adv-x="379" d="M11 315 L122 315 L122 387 L20 387 L20 476 L122 476 L122 642 L236 667 L236 476 L347 476 L347 387 L236 387 L236 315 L358 315 L358 238 L236 238 L236 144 Q236 124 239 113 Q242 102 249 95 Q256 87 269 84.5 Q282 82 297 82 Q312 82 325 83 Q338 84 347 86 L347 -4 Q312 -12 262 -12 Q227 -12 194.5 -3.5 Q162 5 142 29 Q128 46 125 68 Q122 90 122 125 L122 238 L11 238 L11 315 Z " />
<glyph glyph-name="Utilde" unicode="&#x168;" horiz-adv-x="668" d="M334 99 Q382 99 415 115.5 Q448 132 464 169 Q472 186 475.5 210 Q479 234 479 284 L479 680 L598 680 L598 282 Q598 245 596 217 Q594 189 590 167 Q586 145 579 127.5 Q572 110 563 94 Q529 38 469 13 Q409 -12 334 -12 Q259 -12 199 13 Q139 38 105 94 Q96 110 89 127.5 Q82 145 78 167 Q74 189 72 217 Q70 245 70 282 L70 680 L189 680 L189 284 Q189 234 192.5 210 Q196 186 204 169 Q220 132 253 115.5 Q286 99 334 99 Z M511 860 Q503 841 493.5 822.5 Q484 804 470.5 789 Q457 774 439.5 765 Q422 756 398 756 Q378 756 363 761 Q348 766 332 774 Q315 782 300.5 789 Q286 796 275 796 Q258 796 250 782 Q242 768 237 753 L164 776 Q167 788 175.5 806 Q184 824 198 840.5 Q212 857 231.5 868.5 Q251 880 277 880 Q296 880 311.5 874 Q327 868 342 860 Q356 852 369.5 846.5 Q383 841 396 841 Q413 841 423.5 854.5 Q434 868 439 884 L511 860 Z " />
<glyph glyph-name="utilde" unicode="&#x169;" horiz-adv-x="536" d="M58 476 L172 476 L172 223 Q172 197 174 173.5 Q176 150 184 131 Q192 112 209.5 100.5 Q227 89 257 89 Q311 89 335 126 Q359 163 359 221 L359 476 L473 476 L473 0 L359 0 L359 61 Q342 31 305 9.5 Q268 -12 217 -12 Q181 -12 151 -0.5 Q121 11 100 34 Q89 47 81 60.5 Q73 74 68 93.5 Q63 113 60.5 140 Q58 167 58 206 L58 476 Z M446 651 Q438 632 428.5 613.5 Q419 595 405.5 580 Q392 565 374.5 556 Q357 547 333 547 Q313 547 298 552 Q283 557 267 565 Q250 573 235.5 580 Q221 587 210 587 Q193 587 185 573 Q177 559 172 544 L99 567 Q102 579 110.5 597 Q119 615 133 631.5 Q147 648 166.5 659.5 Q186 671 212 671 Q231 671 246.5 665 Q262 659 277 651 Q291 643 304.5 637.5 Q318 632 331 632 Q348 632 358.5 645.5 Q369 659 374 675 L446 651 Z " />
<glyph glyph-name="Umacron" unicode="&#x16a;" horiz-adv-x="668" d="M334 99 Q382 99 415 115.5 Q448 132 464 169 Q472 186 475.5 210 Q479 234 479 284 L479 680 L598 680 L598 282 Q598 245 596 217 Q594 189 590 167 Q586 145 579 127.5 Q572 110 563 94 Q529 38 469 13 Q409 -12 334 -12 Q259 -12 199 13 Q139 38 105 94 Q96 110 89 127.5 Q82 145 78 167 Q74 189 72 217 Q70 245 70 282 L70 680 L189 680 L189 284 Q189 234 192.5 210 Q196 186 204 169 Q220 132 253 115.5 Q286 99 334 99 Z M188 867 L480 867 L480 774 L188 774 L188 867 Z " />
<glyph glyph-name="umacron" unicode="&#x16b;" horiz-adv-x="536" d="M58 476 L172 476 L172 223 Q172 197 174 173.5 Q176 150 184 131 Q192 112 209.5 100.5 Q227 89 257 89 Q311 89 335 126 Q359 163 359 221 L359 476 L473 476 L473 0 L359 0 L359 61 Q342 31 305 9.5 Q268 -12 217 -12 Q181 -12 151 -0.5 Q121 11 100 34 Q89 47 81 60.5 Q73 74 68 93.5 Q63 113 60.5 140 Q58 167 58 206 L58 476 Z M122 680 L414 680 L414 587 L122 587 L122 680 Z " />
<glyph glyph-name="Ubreve" unicode="&#x16c;" horiz-adv-x="668" d="M334 99 Q382 99 415 115.5 Q448 132 464 169 Q472 186 475.5 210 Q479 234 479 284 L479 680 L598 680 L598 282 Q598 245 596 217 Q594 189 590 167 Q586 145 579 127.5 Q572 110 563 94 Q529 38 469 13 Q409 -12 334 -12 Q259 -12 199 13 Q139 38 105 94 Q96 110 89 127.5 Q82 145 78 167 Q74 189 72 217 Q70 245 70 282 L70 680 L189 680 L189 284 Q189 234 192.5 210 Q196 186 204 169 Q220 132 253 115.5 Q286 99 334 99 Z M334 826 Q381 826 395 889 L486 889 Q475 817 436 777.5 Q397 738 334 738 Q271 738 231.5 777.5 Q192 817 182 889 L272 889 Q287 826 334 826 Z " />
<glyph glyph-name="ubreve" unicode="&#x16d;" horiz-adv-x="536" d="M58 476 L172 476 L172 223 Q172 197 174 173.5 Q176 150 184 131 Q192 112 209.5 100.5 Q227 89 257 89 Q311 89 335 126 Q359 163 359 221 L359 476 L473 476 L473 0 L359 0 L359 61 Q342 31 305 9.5 Q268 -12 217 -12 Q181 -12 151 -0.5 Q121 11 100 34 Q89 47 81 60.5 Q73 74 68 93.5 Q63 113 60.5 140 Q58 167 58 206 L58 476 Z M268 617 Q315 617 329 680 L420 680 Q409 608 370 568.5 Q331 529 268 529 Q205 529 165.5 568.5 Q126 608 116 680 L206 680 Q221 617 268 617 Z " />
<glyph glyph-name="Uring" unicode="&#x16e;" horiz-adv-x="668" d="M226 825 Q226 871 257 901.5 Q288 932 334 932 Q380 932 411 901.5 Q442 871 442 825 Q442 779 411 748.5 Q380 718 334 718 Q288 718 257 748.5 Q226 779 226 825 Z M294 825 Q294 808 305.5 797 Q317 786 333 786 Q349 786 360.5 797 Q372 808 372 825 Q372 842 360.5 853 Q349 864 333 864 Q317 864 305.5 853 Q294 842 294 825 Z M334 99 Q382 99 415 115.5 Q448 132 464 169 Q472 186 475.5 210 Q479 234 479 284 L479 680 L598 680 L598 282 Q598 245 596 217 Q594 189 590 167 Q586 145 579 127.5 Q572 110 563 94 Q529 38 469 13 Q409 -12 334 -12 Q259 -12 199 13 Q139 38 105 94 Q96 110 89 127.5 Q82 145 78 167 Q74 189 72 217 Q70 245 70 282 L70 680 L189 680 L189 284 Q189 234 192.5 210 Q196 186 204 169 Q220 132 253 115.5 Q286 99 334 99 Z " />
<glyph glyph-name="uring" unicode="&#x16f;" horiz-adv-x="536" d="M58 476 L172 476 L172 223 Q172 197 174 173.5 Q176 150 184 131 Q192 112 209.5 100.5 Q227 89 257 89 Q311 89 335 126 Q359 163 359 221 L359 476 L473 476 L473 0 L359 0 L359 61 Q342 31 305 9.5 Q268 -12 217 -12 Q181 -12 151 -0.5 Q121 11 100 34 Q89 47 81 60.5 Q73 74 68 93.5 Q63 113 60.5 140 Q58 167 58 206 L58 476 Z M169 607 Q169 649 197.5 677 Q226 705 268 705 Q310 705 338.5 677 Q367 649 367 607 Q367 565 338.5 537 Q310 509 268 509 Q226 509 197.5 537 Q169 565 169 607 Z M228 607 Q228 590 239.5 579 Q251 568 267 568 Q283 568 294.5 579 Q306 590 306 607 Q306 624 294.5 635 Q283 646 267 646 Q251 646 239.5 635 Q228 624 228 607 Z " />
<glyph glyph-name="Uhungarumlaut" unicode="&#x170;" horiz-adv-x="668" d="M586 889 L477 744 L379 744 L446 889 L586 889 Z M397 889 L288 744 L190 744 L257 889 L397 889 Z M334 99 Q382 99 415 115.5 Q448 132 464 169 Q472 186 475.5 210 Q479 234 479 284 L479 680 L598 680 L598 282 Q598 245 596 217 Q594 189 590 167 Q586 145 579 127.5 Q572 110 563 94 Q529 38 469 13 Q409 -12 334 -12 Q259 -12 199 13 Q139 38 105 94 Q96 110 89 127.5 Q82 145 78 167 Q74 189 72 217 Q70 245 70 282 L70 680 L189 680 L189 284 Q189 234 192.5 210 Q196 186 204 169 Q220 132 253 115.5 Q286 99 334 99 Z " />
<glyph glyph-name="uhungarumlaut" unicode="&#x171;" horiz-adv-x="536" d="M58 476 L172 476 L172 223 Q172 197 174 173.5 Q176 150 184 131 Q192 112 209.5 100.5 Q227 89 257 89 Q311 89 335 126 Q359 163 359 221 L359 476 L473 476 L473 0 L359 0 L359 61 Q342 31 305 9.5 Q268 -12 217 -12 Q181 -12 151 -0.5 Q121 11 100 34 Q89 47 81 60.5 Q73 74 68 93.5 Q63 113 60.5 140 Q58 167 58 206 L58 476 Z M494 680 L393 552 L295 552 L359 680 L494 680 Z M317 680 L216 552 L118 552 L182 680 L317 680 Z " />
<glyph glyph-name="Uogonek" unicode="&#x172;" horiz-adv-x="668" d="M397 -202 Q378 -213 358 -217 Q338 -221 322 -221 Q299 -221 279 -214.5 Q259 -208 243 -195 Q227 -182 218 -162 Q209 -142 209 -114 Q209 -80 231 -54 Q253 -28 279 -8 Q222 -1 177 24 Q132 49 105 94 Q96 110 89 127.5 Q82 145 78 167 Q74 189 72 217 Q70 245 70 282 L70 680 L189 680 L189 284 Q189 234 192.5 210 Q196 186 204 169 Q220 132 253 115.5 Q286 99 334 99 Q382 99 415 115.5 Q448 132 464 169 Q472 186 475.5 210 Q479 234 479 284 L479 680 L598 680 L598 282 Q598 245 596 217 Q594 189 590 167 Q586 145 579 127.5 Q572 110 563 94 Q535 48 489.5 23 Q444 -2 386 -9 Q370 -19 355 -31 Q340 -43 328 -55.5 Q316 -68 308.5 -81.5 Q301 -95 301 -108 Q301 -134 329 -134 Q339 -134 347 -131.5 Q355 -129 363 -125 L397 -202 Z " />
<glyph glyph-name="uogonek" unicode="&#x173;" horiz-adv-x="536" d="M465 -202 Q446 -213 426 -217 Q406 -221 390 -221 Q367 -221 347 -214.5 Q327 -208 311 -195 Q295 -182 286 -162 Q277 -142 277 -114 Q277 -80 302 -50 Q327 -20 359 0 L359 61 Q342 31 305 9.5 Q268 -12 217 -12 Q181 -12 151 -0.5 Q121 11 100 34 Q89 47 81 60.5 Q73 74 68 93.5 Q63 113 60.5 140 Q58 167 58 206 L58 476 L172 476 L172 223 Q172 197 174 173.5 Q176 150 184 131 Q192 112 209.5 100.5 Q227 89 257 89 Q311 89 335 126 Q359 163 359 221 L359 476 L473 476 L473 0 Q456 -10 437.5 -23 Q419 -36 404 -50.5 Q389 -65 379 -80 Q369 -95 369 -108 Q369 -134 397 -134 Q407 -134 415 -131.5 Q423 -129 431 -125 L465 -202 Z " />
<glyph glyph-name="Wcircumflex" unicode="&#x174;" horiz-adv-x="866" d="M378 744 L267 744 L393 889 L473 889 L600 744 L488 744 L432 806 L378 744 Z M594 234 Q597 222 600 208 Q603 194 605.5 180 Q608 166 610 154 Q612 142 612 135 L631 240 L720 680 L844 680 L693 0 L537 0 L458 356 Q453 378 449 402.5 Q445 427 441.5 448 Q438 469 436 482.5 Q434 496 434 496 Q428 471 424 446 Q419 425 415 400 Q411 375 406 355 L330 0 L172 0 L24 680 L152 680 L236 235 Q239 220 241.5 203.5 Q244 187 246.5 172.5 Q249 158 251 149 Q253 140 253 140 Q257 156 262.5 184.5 Q268 213 273 235 L366 680 L500 680 L594 234 Z " />
<glyph glyph-name="wcircumflex" unicode="&#x175;" horiz-adv-x="714" d="M395 182 Q385 217 375 260.5 Q365 304 359 341 L358 341 Q350 306 340.5 262 Q331 218 320 180 L267 0 L154 0 L17 476 L133 476 L189 266 Q198 231 206 200 Q214 169 221 132 L222 132 Q229 167 236 197 Q243 227 254 269 L309 476 L410 476 L465 266 Q471 243 475.5 226 Q480 209 483.5 194.5 Q487 180 490.5 165 Q494 150 497 132 L498 132 Q501 150 504.5 164.5 Q508 179 511.5 194.5 Q515 210 520 228 Q525 246 531 269 L587 476 L701 476 L556 0 L445 0 L395 182 Z M306 552 L202 552 L320 680 L396 680 L515 552 L410 552 L357 602 L306 552 Z " />
<glyph glyph-name="Ycircumflex" unicode="&#x176;" horiz-adv-x="622" d="M259 744 L148 744 L274 889 L354 889 L481 744 L369 744 L313 806 L259 744 Z M369 0 L249 0 L249 278 L2 680 L141 680 L315 389 L492 680 L630 680 L369 278 L369 0 Z " />
<glyph glyph-name="ycircumflex" unicode="&#x177;" horiz-adv-x="454" d="M436 476 L277 -57 Q265 -97 253.5 -121 Q242 -145 227 -161 Q208 -181 182 -189.5 Q156 -198 116 -198 Q93 -198 79 -196 Q65 -194 54 -192 L54 -99 Q63 -101 72.5 -102.5 Q82 -104 93 -104 Q130 -104 145 -88.5 Q160 -73 169 -44 L177 -15 L6 476 L125 476 L203 219 Q208 202 212.5 185 Q217 168 221 154 Q225 137 229 121 L230 121 Q233 136 237 153 Q240 167 244.5 184.5 Q249 202 254 219 L322 476 L436 476 Z M177 552 L73 552 L191 680 L267 680 L386 552 L281 552 L228 602 L177 552 Z " />
<glyph glyph-name="Ydieresis" unicode="&#x178;" horiz-adv-x="622" d="M369 0 L249 0 L249 278 L2 680 L141 680 L315 389 L492 680 L630 680 L369 278 L369 0 Z M167 871 L279 871 L279 744 L167 744 L167 871 Z M358 871 L470 871 L470 744 L358 744 L358 871 Z " />
<glyph glyph-name="Zacute" unicode="&#x179;" horiz-adv-x="581" d="M448 889 L339 744 L241 744 L308 889 L448 889 Z M543 0 L31 0 L31 99 L391 572 L48 572 L48 680 L541 680 L541 582 L183 109 L543 109 L543 0 Z " />
<glyph glyph-name="zacute" unicode="&#x17a;" horiz-adv-x="480" d="M440 475 L440 386 L186 100 L440 100 L440 0 L36 0 L36 88 L294 375 L45 375 L45 475 L440 475 Z M378 680 L277 552 L179 552 L243 680 L378 680 Z " />
<glyph glyph-name="Zdotaccent" unicode="&#x17b;" horiz-adv-x="581" d="M543 0 L31 0 L31 99 L391 572 L48 572 L48 680 L541 680 L541 582 L183 109 L543 109 L543 0 Z M249 890 L366 890 L366 763 L249 763 L249 890 Z " />
<glyph glyph-name="zdotaccent" unicode="&#x17c;" horiz-adv-x="480" d="M440 475 L440 386 L186 100 L440 100 L440 0 L36 0 L36 88 L294 375 L45 375 L45 475 L440 475 Z M191 680 L308 680 L308 553 L191 553 L191 680 Z " />
<glyph glyph-name="Zcaron" unicode="&#x17d;" horiz-adv-x="581" d="M307 827 L363 889 L475 889 L348 744 L268 744 L142 889 L253 889 L307 827 Z M543 0 L31 0 L31 99 L391 572 L48 572 L48 680 L541 680 L541 582 L183 109 L543 109 L543 0 Z " />
<glyph glyph-name="zcaron" unicode="&#x17e;" horiz-adv-x="480" d="M440 475 L440 386 L186 100 L440 100 L440 0 L36 0 L36 88 L294 375 L45 375 L45 475 L440 475 Z M248 630 L301 680 L406 680 L287 552 L211 552 L93 680 L197 680 L248 630 Z " />
<glyph glyph-name="florin" unicode="&#x192;" horiz-adv-x="359" d="M-64 -89 Q-51 -93 -35.5 -95.5 Q-20 -98 -6 -98 Q10 -98 20 -93.5 Q30 -89 36 -80 Q42 -71 45.5 -57 Q49 -43 52 -25 L122 363 L25 363 L41 464 L137 464 L160 585 Q172 648 200.5 675 Q229 702 283 702 Q312 702 341.5 696.5 Q371 691 401 681 L378 586 Q354 591 341 593.5 Q328 596 314 596 Q298 596 288.5 591.5 Q279 587 273.5 579 Q268 571 265 559 Q262 547 259 531 L246 464 L347 464 L332 363 L231 363 Q213 257 192 147 Q171 37 153 -69 Q142 -135 110 -168.5 Q78 -202 12 -202 Q-21 -202 -52 -196.5 Q-83 -191 -100 -185 L-64 -89 Z " />
<glyph glyph-name="Aringacute" unicode="&#x1fa;" horiz-adv-x="615" d="M243 761 Q243 790 262.5 809 Q282 828 311 828 Q340 828 359 809 Q378 790 378 761 Q378 732 359 713 Q340 694 311 694 Q282 694 262.5 713 Q243 732 243 761 Z M292 761 Q292 753 297 748 Q302 743 310 743 Q318 743 323 748 Q328 753 328 761 Q328 769 323 774 Q318 779 310 779 Q302 779 297 774 Q292 769 292 761 Z M246 839 L332 919 L501 919 L374 839 L246 839 Z M129 0 L4 0 L240 680 L376 680 L610 0 L481 0 L429 154 L182 154 L129 0 Z M331 468 Q323 492 317 513.5 Q311 535 306 555 L305 555 Q300 536 294 515 Q288 494 280 470 L216 261 L394 261 L331 468 Z " />
<glyph glyph-name="aringacute" unicode="&#x1fb;" horiz-adv-x="519" d="M192 731 L278 811 L447 811 L320 731 L192 731 Z M163 608 Q163 650 191 677.5 Q219 705 261 705 Q303 705 331 677.5 Q359 650 359 608 Q359 566 331 538.5 Q303 511 261 511 Q219 511 191 538.5 Q163 566 163 608 Z M225 608 Q225 593 235.5 583 Q246 573 260 573 Q274 573 284.5 583 Q295 593 295 608 Q295 623 284.5 633 Q274 643 260 643 Q246 643 235.5 633 Q225 623 225 608 Z M449 109 Q449 86 454.5 77.5 Q460 69 480 69 L486 69 L486 -6 Q481 -7 469 -9 Q457 -11 432 -11 Q399 -11 377 -0.5 Q355 10 348 38 L347 38 Q340 30 329 21 Q318 12 301 4.5 Q284 -3 260.5 -8 Q237 -13 205 -13 Q170 -13 139.5 -4 Q109 5 86.5 23 Q64 41 50.5 69.5 Q37 98 37 137 Q37 164 44 184.5 Q51 205 64 221 Q86 247 122 262.5 Q158 278 205 286 L310 304 Q329 308 334.5 311.5 Q340 315 340 329 L340 337 Q340 367 320 382 Q300 397 255 397 Q158 397 159 314 L52 321 Q51 365 67.5 396 Q84 427 112.5 447 Q141 467 179 476 Q217 485 260 485 Q301 485 335.5 478 Q370 471 395.5 454.5 Q421 438 435 411 Q449 384 449 345 L449 109 Z M235 73 Q282 73 311 96.5 Q340 120 340 169 L340 227 Q327 222 314 218.5 Q301 215 275 210 L231 201 Q190 193 171.5 180 Q153 167 153 138 Q153 109 173 91 Q193 73 235 73 Z " />
<glyph glyph-name="AEacute" unicode="&#x1fc;" horiz-adv-x="953" d="M613 889 L504 744 L406 744 L473 889 L613 889 Z M894 680 L894 573 L564 573 L564 405 L863 405 L863 298 L564 298 L564 107 L916 107 L916 0 L444 0 L444 164 L201 164 L104 0 L-24 0 L380 680 L894 680 Z M444 460 Q444 494 444 518.5 Q444 543 445 560 Q445 579 446 593 L445 593 Q432 567 415 537 Q398 507 378 473 L256 261 L444 261 L444 460 Z " />
<glyph glyph-name="aeacute" unicode="&#x1fd;" horiz-adv-x="829" d="M417 435 Q443 457 480 472 Q517 487 569 487 Q624 487 666 467.5 Q708 448 736.5 413.5 Q765 379 779.5 332.5 Q794 286 794 231 Q794 225 793.5 219 Q793 213 793 207 L446 207 Q449 183 458 161 Q467 139 483.5 122.5 Q500 106 523.5 96 Q547 86 579 86 Q611 86 634.5 95.5 Q658 105 674.5 118 Q691 131 701 145 Q711 159 717 168 L796 108 Q788 96 771.5 75.5 Q755 55 728 35.5 Q701 16 662.5 2 Q624 -12 572 -12 Q539 -12 510 -4.5 Q481 3 458.5 14 Q436 25 420 37.5 Q404 50 396 60 Q384 46 367.5 33 Q351 20 329 9.5 Q307 -1 278 -7 Q249 -13 212 -13 Q174 -13 141.5 -4 Q109 5 86 23.5 Q63 42 50 70.5 Q37 99 37 138 Q37 173 49.5 198 Q62 223 84 240.5 Q106 258 137 268.5 Q168 279 205 286 L310 304 Q329 308 334.5 311.5 Q340 315 340 329 L340 337 Q340 367 320 382 Q300 397 255 397 Q158 397 159 314 L52 321 Q51 365 67.5 396 Q84 427 112.5 447 Q141 467 179 476 Q217 485 260 485 Q311 485 351.5 473.5 Q392 462 417 435 Z M569 396 Q545 396 523.5 388 Q502 380 486 365.5 Q470 351 460 332 Q450 313 449 292 L681 292 Q679 339 648 367.5 Q617 396 569 396 Z M235 73 Q282 73 311 96.5 Q340 120 340 169 L340 227 Q327 222 314 218.5 Q301 215 275 210 L231 201 Q190 193 171.5 180 Q153 167 153 138 Q153 109 173 91 Q193 73 235 73 Z M551 680 L450 552 L352 552 L416 680 L551 680 Z " />
<glyph glyph-name="Oslashacute" unicode="&#x1fe;" horiz-adv-x="728" d="M43 340 Q43 418 65.5 482.5 Q88 547 130 593.5 Q172 640 231.5 666 Q291 692 365 692 Q472 692 549 638 L622 720 L701 647 L625 562 Q655 517 671 461.5 Q687 406 687 340 Q687 262 666 197.5 Q645 133 604 86.5 Q563 40 503 14 Q443 -12 365 -12 Q305 -12 255.5 3.5 Q206 19 168 48 L96 -32 L15 40 L95 129 Q43 216 43 340 Z M556 340 Q556 409 536 461 L248 138 Q294 97 365 97 Q410 97 445.5 114 Q481 131 505.5 163 Q530 195 543 239.5 Q556 284 556 340 Z M174 340 Q174 282 188 234 L471 551 Q426 585 365 585 Q320 585 285 567.5 Q250 550 225 518 Q200 486 187 440.5 Q174 395 174 340 Z M498 889 L389 744 L291 744 L358 889 L498 889 Z " />
<glyph glyph-name="oslashacute" unicode="&#x1ff;" horiz-adv-x="548" d="M36 236 Q36 293 53 339.5 Q70 386 101 419 Q132 452 176 469.5 Q220 487 274 487 Q334 487 382 464 L437 535 L516 471 L462 401 Q486 369 499 327.5 Q512 286 512 236 Q512 179 495.5 133 Q479 87 448 55 Q417 23 373 5.5 Q329 -12 274 -12 Q213 -12 163 10 L119 -47 L37 17 L82 76 Q36 139 36 236 Z M399 238 Q399 257 396.5 274 Q394 291 389 305 L227 95 Q248 86 274 86 Q329 86 364 126.5 Q399 167 399 238 Z M149 238 Q149 202 158 174 L319 382 Q297 390 274 390 Q217 390 183 350 Q149 310 149 238 Z M408 680 L307 552 L209 552 L273 680 L408 680 Z " />
<glyph glyph-name="uni0218" unicode="&#x218;" horiz-adv-x="622" d="M480 505 Q451 540 406 563.5 Q361 587 304 587 Q244 587 211.5 561 Q179 535 179 496 Q179 458 205 440.5 Q231 423 289 410 L371 392 Q419 381 459 367 Q499 353 528 331 Q557 309 573.5 276.5 Q590 244 590 198 Q590 151 571 112 Q552 73 517 45.5 Q482 18 431.5 3 Q381 -12 317 -12 Q261 -12 214.5 0.5 Q168 13 131 33 Q94 53 66.5 77.5 Q39 102 21 127 L121 199 Q133 180 152.5 161.5 Q172 143 198 128 Q224 113 255.5 104 Q287 95 323 95 Q392 95 426.5 120.5 Q461 146 461 187 Q461 227 429 245.5 Q397 264 345 275 L254 295 Q212 304 175 318 Q138 332 110.5 355 Q83 378 66.5 410.5 Q50 443 50 490 Q50 535 70 572.5 Q90 610 124.5 636.5 Q159 663 206 677.5 Q253 692 307 692 Q360 692 402 680.5 Q444 669 476.5 652 Q509 635 532.5 615 Q556 595 571 579 L480 505 Z M364 -60 L364 -112 Q364 -126 363.5 -141.5 Q363 -157 362 -169 Q359 -196 352 -218 Q345 -240 331 -255.5 Q317 -271 293.5 -279.5 Q270 -288 235 -289 L235 -224 Q263 -222 277.5 -210.5 Q292 -199 292 -173 L292 -171 L235 -171 L235 -60 L364 -60 Z " />
<glyph glyph-name="uni0219" unicode="&#x219;" horiz-adv-x="481" d="M369 341 Q344 365 310.5 380 Q277 395 235 395 Q201 395 179 383 Q157 371 157 348 Q157 335 163 327 Q169 319 181.5 313 Q194 307 213 302.5 Q232 298 257 293 L314 280 Q341 274 366 265 Q391 256 409.5 241 Q428 226 439.5 204 Q451 182 451 149 Q451 108 434 78 Q417 48 388 28 Q359 8 321.5 -2 Q284 -12 243 -12 Q200 -12 164.5 -2.5 Q129 7 101 21 Q73 35 53.5 52.5 Q34 70 23 85 L100 153 Q120 126 155.5 104 Q191 82 246 82 Q289 82 312.5 96 Q336 110 336 136 Q336 161 317 169 Q298 177 263 185 L192 200 Q161 207 134 217.5 Q107 228 87 244.5 Q67 261 55.5 284 Q44 307 44 340 Q44 379 61 407 Q78 435 105.5 453 Q133 471 167.5 479.5 Q202 488 236 488 Q272 488 303 481 Q334 474 359.5 463 Q385 452 404 438.5 Q423 425 435 412 L369 341 Z M312 -60 L312 -112 Q312 -126 311.5 -141.5 Q311 -157 310 -169 Q307 -196 300 -218 Q293 -240 279 -255.5 Q265 -271 241.5 -279.5 Q218 -288 183 -289 L183 -224 Q211 -222 225.5 -210.5 Q240 -199 240 -173 L240 -171 L183 -171 L183 -60 L312 -60 Z " />
<glyph glyph-name="uni021A" unicode="&#x21a;" horiz-adv-x="555" d="M19 680 L536 680 L536 573 L338 573 L338 0 L218 0 L218 573 L19 573 L19 680 Z M342 -60 L342 -112 Q342 -126 341.5 -141.5 Q341 -157 340 -169 Q337 -196 330 -218 Q323 -240 309 -255.5 Q295 -271 271.5 -279.5 Q248 -288 213 -289 L213 -224 Q241 -222 255.5 -210.5 Q270 -199 270 -173 L270 -171 L213 -171 L213 -60 L342 -60 Z " />
<glyph glyph-name="uni021B" unicode="&#x21b;" horiz-adv-x="367" d="M339 -4 Q304 -12 254 -12 Q219 -12 186.5 -3.5 Q154 5 134 29 Q120 46 117 68 Q114 90 114 125 L114 387 L12 387 L12 476 L114 476 L114 642 L228 667 L228 476 L339 476 L339 387 L228 387 L228 144 Q228 124 231 113 Q234 102 241 95 Q248 87 261 84.5 Q274 82 289 82 Q304 82 317 83 Q330 84 339 86 L339 -4 Z M272 -60 L272 -112 Q272 -126 271.5 -141.5 Q271 -157 270 -169 Q267 -196 260 -218 Q253 -240 239 -255.5 Q225 -271 201.5 -279.5 Q178 -288 143 -289 L143 -224 Q171 -222 185.5 -210.5 Q200 -199 200 -173 L200 -171 L143 -171 L143 -60 L272 -60 Z " />
<glyph glyph-name="circumflex" unicode="&#x2c6;" horiz-adv-x="500" d="M197 552 L93 552 L211 680 L287 680 L406 552 L301 552 L248 602 L197 552 Z " />
<glyph glyph-name="caron" unicode="&#x2c7;" horiz-adv-x="500" d="M248 630 L301 680 L406 680 L287 552 L211 552 L93 680 L197 680 L248 630 Z " />
<glyph glyph-name="breve" unicode="&#x2d8;" horiz-adv-x="500" d="M251 617 Q298 617 312 680 L403 680 Q392 608 353 568.5 Q314 529 251 529 Q188 529 148.5 568.5 Q109 608 99 680 L189 680 Q204 617 251 617 Z " />
<glyph glyph-name="dotaccent" unicode="&#x2d9;" horiz-adv-x="500" d="M190 680 L307 680 L307 553 L190 553 L190 680 Z " />
<glyph glyph-name="ring" unicode="&#x2da;" horiz-adv-x="500" d="M152 607 Q152 649 180.5 677 Q209 705 251 705 Q293 705 321.5 677 Q350 649 350 607 Q350 565 321.5 537 Q293 509 251 509 Q209 509 180.5 537 Q152 565 152 607 Z M211 607 Q211 590 222.5 579 Q234 568 250 568 Q266 568 277.5 579 Q289 590 289 607 Q289 624 277.5 635 Q266 646 250 646 Q234 646 222.5 635 Q211 624 211 607 Z " />
<glyph glyph-name="ogonek" unicode="&#x2db;" horiz-adv-x="500" d="M307 -202 Q288 -213 268 -217 Q248 -221 232 -221 Q209 -221 189 -214.5 Q169 -208 153 -195 Q137 -182 128 -162 Q119 -142 119 -114 Q119 -90 129.5 -69 Q140 -48 156 -31 Q172 -14 191 -0.5 Q210 13 226 23 L359 23 Q344 14 319 -1.5 Q294 -17 270 -35 Q246 -53 228.5 -72 Q211 -91 211 -108 Q211 -134 239 -134 Q249 -134 257 -131.5 Q265 -129 273 -125 L307 -202 Z " />
<glyph glyph-name="tilde" unicode="&#x2dc;" horiz-adv-x="500" d="M425 651 Q417 632 407.5 613.5 Q398 595 384.5 580 Q371 565 353.5 556 Q336 547 312 547 Q292 547 277 552 Q262 557 246 565 Q229 573 214.5 580 Q200 587 189 587 Q172 587 164 573 Q156 559 151 544 L78 567 Q81 579 89.5 597 Q98 615 112 631.5 Q126 648 145.5 659.5 Q165 671 191 671 Q210 671 225.5 665 Q241 659 256 651 Q270 643 283.5 637.5 Q297 632 310 632 Q327 632 337.5 645.5 Q348 659 353 675 L425 651 Z " />
<glyph glyph-name="hungarumlaut" unicode="&#x2dd;" horiz-adv-x="500" d="M446 680 L345 552 L247 552 L311 680 L446 680 Z M269 680 L168 552 L70 552 L134 680 L269 680 Z " />
<glyph glyph-name="uni0394" unicode="&#x394;" horiz-adv-x="623" d="M266 680 L357 680 L622 0 L1 0 L266 680 Z M149 99 L475 99 L312 520 L149 99 Z " />
<glyph glyph-name="uni03A9" unicode="&#x3a9;" horiz-adv-x="748" d="M374 586 Q321 586 282.5 568.5 Q244 551 218.5 521 Q193 491 180.5 452 Q168 413 168 371 Q168 284 210.5 214 Q253 144 327 100 L327 0 L48 0 L48 103 L174 103 Q112 157 81 229 Q50 301 50 376 Q50 436 70 493 Q90 550 130.5 594.5 Q171 639 232 665.5 Q293 692 374 692 Q455 692 516 665.5 Q577 639 617.5 594.5 Q658 550 678 493 Q698 436 698 376 Q698 301 667 229 Q636 157 574 103 L700 103 L700 0 L421 0 L421 100 Q495 144 537.5 214 Q580 284 580 371 Q580 413 567.5 452 Q555 491 529.5 521 Q504 551 465 568.5 Q426 586 374 586 Z " />
<glyph glyph-name="uni03BC" unicode="&#x3bc;" horiz-adv-x="541" d="M177 476 L177 223 Q177 197 179 173.5 Q181 150 189 131 Q197 112 214.5 100.5 Q232 89 262 89 Q316 89 340 126 Q364 163 364 221 L364 476 L478 476 L478 0 L364 0 L364 61 Q351 33 319.5 12 Q288 -9 243 -9 Q205 -9 177 9 L177 -190 L63 -190 L63 476 L177 476 Z " />
<glyph glyph-name="pi" unicode="&#x3c0;" horiz-adv-x="683" d="M235 380 L235 0 L121 0 L121 380 L19 380 L19 476 L644 476 L644 380 L530 380 L530 149 Q530 129 533 118 Q536 107 543 100 Q550 92 563 89.5 Q576 87 591 87 Q606 87 620.5 88.5 Q635 90 644 92 L644 -3 Q627 -7 604.5 -9.5 Q582 -12 556 -12 Q521 -12 488.5 -3.5 Q456 5 436 29 Q422 46 419 68 Q416 90 416 125 L416 380 L235 380 Z " />
<glyph glyph-name="Wgrave" unicode="&#x1e80;" horiz-adv-x="866" d="M432 889 L499 744 L401 744 L292 889 L432 889 Z M594 234 Q597 222 600 208 Q603 194 605.5 180 Q608 166 610 154 Q612 142 612 135 L631 240 L720 680 L844 680 L693 0 L537 0 L458 356 Q453 378 449 402.5 Q445 427 441.5 448 Q438 469 436 482.5 Q434 496 434 496 Q428 471 424 446 Q419 425 415 400 Q411 375 406 355 L330 0 L172 0 L24 680 L152 680 L236 235 Q239 220 241.5 203.5 Q244 187 246.5 172.5 Q249 158 251 149 Q253 140 253 140 Q257 156 262.5 184.5 Q268 213 273 235 L366 680 L500 680 L594 234 Z " />
<glyph glyph-name="wgrave" unicode="&#x1e81;" horiz-adv-x="714" d="M395 182 Q385 217 375 260.5 Q365 304 359 341 L358 341 Q350 306 340.5 262 Q331 218 320 180 L267 0 L154 0 L17 476 L133 476 L189 266 Q198 231 206 200 Q214 169 221 132 L222 132 Q229 167 236 197 Q243 227 254 269 L309 476 L410 476 L465 266 Q471 243 475.5 226 Q480 209 483.5 194.5 Q487 180 490.5 165 Q494 150 497 132 L498 132 Q501 150 504.5 164.5 Q508 179 511.5 194.5 Q515 210 520 228 Q525 246 531 269 L587 476 L701 476 L556 0 L445 0 L395 182 Z M345 680 L409 552 L311 552 L210 680 L345 680 Z " />
<glyph glyph-name="Wacute" unicode="&#x1e82;" horiz-adv-x="866" d="M573 889 L464 744 L366 744 L433 889 L573 889 Z M594 234 Q597 222 600 208 Q603 194 605.5 180 Q608 166 610 154 Q612 142 612 135 L631 240 L720 680 L844 680 L693 0 L537 0 L458 356 Q453 378 449 402.5 Q445 427 441.5 448 Q438 469 436 482.5 Q434 496 434 496 Q428 471 424 446 Q419 425 415 400 Q411 375 406 355 L330 0 L172 0 L24 680 L152 680 L236 235 Q239 220 241.5 203.5 Q244 187 246.5 172.5 Q249 158 251 149 Q253 140 253 140 Q257 156 262.5 184.5 Q268 213 273 235 L366 680 L500 680 L594 234 Z " />
<glyph glyph-name="wacute" unicode="&#x1e83;" horiz-adv-x="714" d="M395 182 Q385 217 375 260.5 Q365 304 359 341 L358 341 Q350 306 340.5 262 Q331 218 320 180 L267 0 L154 0 L17 476 L133 476 L189 266 Q198 231 206 200 Q214 169 221 132 L222 132 Q229 167 236 197 Q243 227 254 269 L309 476 L410 476 L465 266 Q471 243 475.5 226 Q480 209 483.5 194.5 Q487 180 490.5 165 Q494 150 497 132 L498 132 Q501 150 504.5 164.5 Q508 179 511.5 194.5 Q515 210 520 228 Q525 246 531 269 L587 476 L701 476 L556 0 L445 0 L395 182 Z M509 680 L408 552 L310 552 L374 680 L509 680 Z " />
<glyph glyph-name="Wdieresis" unicode="&#x1e84;" horiz-adv-x="866" d="M283 871 L395 871 L395 744 L283 744 L283 871 Z M474 871 L586 871 L586 744 L474 744 L474 871 Z M594 234 Q597 222 600 208 Q603 194 605.5 180 Q608 166 610 154 Q612 142 612 135 L631 240 L720 680 L844 680 L693 0 L537 0 L458 356 Q453 378 449 402.5 Q445 427 441.5 448 Q438 469 436 482.5 Q434 496 434 496 Q428 471 424 446 Q419 425 415 400 Q411 375 406 355 L330 0 L172 0 L24 680 L152 680 L236 235 Q239 220 241.5 203.5 Q244 187 246.5 172.5 Q249 158 251 149 Q253 140 253 140 Q257 156 262.5 184.5 Q268 213 273 235 L366 680 L500 680 L594 234 Z " />
<glyph glyph-name="wdieresis" unicode="&#x1e85;" horiz-adv-x="714" d="M395 182 Q385 217 375 260.5 Q365 304 359 341 L358 341 Q350 306 340.5 262 Q331 218 320 180 L267 0 L154 0 L17 476 L133 476 L189 266 Q198 231 206 200 Q214 169 221 132 L222 132 Q229 167 236 197 Q243 227 254 269 L309 476 L410 476 L465 266 Q471 243 475.5 226 Q480 209 483.5 194.5 Q487 180 490.5 165 Q494 150 497 132 L498 132 Q501 150 504.5 164.5 Q508 179 511.5 194.5 Q515 210 520 228 Q525 246 531 269 L587 476 L701 476 L556 0 L445 0 L395 182 Z M211 670 L319 670 L319 552 L211 552 L211 670 Z M398 670 L506 670 L506 552 L398 552 L398 670 Z " />
<glyph glyph-name="Ygrave" unicode="&#x1ef2;" horiz-adv-x="622" d="M315 889 L382 744 L284 744 L175 889 L315 889 Z M369 0 L249 0 L249 278 L2 680 L141 680 L315 389 L492 680 L630 680 L369 278 L369 0 Z " />
<glyph glyph-name="ygrave" unicode="&#x1ef3;" horiz-adv-x="454" d="M436 476 L277 -57 Q265 -97 253.5 -121 Q242 -145 227 -161 Q208 -181 182 -189.5 Q156 -198 116 -198 Q93 -198 79 -196 Q65 -194 54 -192 L54 -99 Q63 -101 72.5 -102.5 Q82 -104 93 -104 Q130 -104 145 -88.5 Q160 -73 169 -44 L177 -15 L6 476 L125 476 L203 219 Q208 202 212.5 185 Q217 168 221 154 Q225 137 229 121 L230 121 Q233 136 237 153 Q240 167 244.5 184.5 Q249 202 254 219 L322 476 L436 476 Z M230 680 L294 552 L196 552 L95 680 L230 680 Z " />
<glyph glyph-name="endash" unicode="&#x2013;" horiz-adv-x="627" d="M59 211 L59 322 L568 322 L568 211 L59 211 Z " />
<glyph glyph-name="emdash" unicode="&#x2014;" horiz-adv-x="817" d="M59 211 L59 322 L758 322 L758 211 L59 211 Z " />
<glyph glyph-name="quoteleft" unicode="&#x2018;" horiz-adv-x="236" d="M52 411 L52 513 Q52 527 52.5 542.5 Q53 558 54 570 Q57 597 64 619 Q71 641 85 656.5 Q99 672 122.5 680.5 Q146 689 181 690 L181 625 Q153 623 138.5 609 Q124 595 124 554 L124 542 L181 542 L181 411 L52 411 Z " />
<glyph glyph-name="quoteright" unicode="&#x2019;" horiz-adv-x="232" d="M185 680 L185 578 Q185 564 184.5 548.5 Q184 533 183 521 Q180 494 173 472 Q166 450 152 434.5 Q138 419 114.5 410.5 Q91 402 56 401 L56 466 Q84 468 98.5 482 Q113 496 113 537 L113 549 L56 549 L56 680 L185 680 Z " />
<glyph glyph-name="quotesinglbase" unicode="&#x201a;" horiz-adv-x="241" d="M185 131 L185 29 Q185 15 184.5 -0.5 Q184 -16 183 -28 Q180 -55 173 -77 Q166 -99 152 -114.5 Q138 -130 114.5 -138.5 Q91 -147 56 -148 L56 -83 Q84 -81 98.5 -67 Q113 -53 113 -12 L113 0 L56 0 L56 131 L185 131 Z " />
<glyph glyph-name="quotedblleft" unicode="&#x201c;" horiz-adv-x="416" d="M232 411 L232 513 Q232 527 232.5 542.5 Q233 558 234 570 Q237 597 244 619 Q251 641 265 656.5 Q279 672 302.5 680.5 Q326 689 361 690 L361 625 Q333 623 318.5 609 Q304 595 304 554 L304 542 L361 542 L361 411 L232 411 Z M52 411 L52 513 Q52 527 52.5 542.5 Q53 558 54 570 Q57 597 64 619 Q71 641 85 656.5 Q99 672 122.5 680.5 Q146 689 181 690 L181 625 Q153 623 138.5 609 Q124 595 124 554 L124 542 L181 542 L181 411 L52 411 Z " />
<glyph glyph-name="quotedblright" unicode="&#x201d;" horiz-adv-x="412" d="M185 680 L185 578 Q185 564 184.5 548.5 Q184 533 183 521 Q180 494 173 472 Q166 450 152 434.5 Q138 419 114.5 410.5 Q91 402 56 401 L56 466 Q84 468 98.5 482 Q113 496 113 537 L113 549 L56 549 L56 680 L185 680 Z M365 680 L365 578 Q365 564 364.5 548.5 Q364 533 363 521 Q360 494 353 472 Q346 450 332 434.5 Q318 419 294.5 410.5 Q271 402 236 401 L236 466 Q264 468 278.5 482 Q293 496 293 537 L293 549 L236 549 L236 680 L365 680 Z " />
<glyph glyph-name="quotedblbase" unicode="&#x201e;" horiz-adv-x="421" d="M185 131 L185 29 Q185 15 184.5 -0.5 Q184 -16 183 -28 Q180 -55 173 -77 Q166 -99 152 -114.5 Q138 -130 114.5 -138.5 Q91 -147 56 -148 L56 -83 Q84 -81 98.5 -67 Q113 -53 113 -12 L113 0 L56 0 L56 131 L185 131 Z M365 131 L365 29 Q365 15 364.5 -0.5 Q364 -16 363 -28 Q360 -55 353 -77 Q346 -99 332 -114.5 Q318 -130 294.5 -138.5 Q271 -147 236 -148 L236 -83 Q264 -81 278.5 -67 Q293 -53 293 -12 L293 0 L236 0 L236 131 L365 131 Z " />
<glyph glyph-name="dagger" unicode="&#x2020;" horiz-adv-x="473" d="M290 414 L290 0 L182 0 L182 414 L30 414 L30 515 L182 515 L182 680 L290 680 L290 515 L443 515 L443 414 L290 414 Z " />
<glyph glyph-name="daggerdbl" unicode="&#x2021;" horiz-adv-x="505" d="M306 266 L459 266 L459 165 L306 165 L306 0 L198 0 L198 165 L46 165 L46 266 L198 266 L198 414 L46 414 L46 515 L198 515 L198 680 L306 680 L306 515 L459 515 L459 414 L306 414 L306 266 Z " />
<glyph glyph-name="bullet" unicode="&#x2022;" horiz-adv-x="422" d="M61 333 Q61 364 73 392 Q85 420 105 440 Q125 460 152.5 472 Q180 484 211 484 Q242 484 269.5 472 Q297 460 317.5 440 Q338 420 349.5 392 Q361 364 361 333 Q361 302 349.5 274.5 Q338 247 317.5 227 Q297 207 269.5 195 Q242 183 211 183 Q180 183 152.5 195 Q125 207 105 227 Q85 247 73 274.5 Q61 302 61 333 Z " />
<glyph glyph-name="ellipsis" unicode="&#x2026;" horiz-adv-x="908" d="M184 132 L184 0 L55 0 L55 132 L184 132 Z M518 132 L518 0 L389 0 L389 132 L518 132 Z M853 132 L853 0 L724 0 L724 132 L853 132 Z " />
<glyph glyph-name="perthousand" unicode="&#x2030;" horiz-adv-x="1304" d="M1273 202 Q1273 161 1264 123.5 Q1255 86 1235.5 57 Q1216 28 1185.5 10.5 Q1155 -7 1112 -7 Q1067 -7 1036.5 10.5 Q1006 28 987 57.5 Q968 87 960 124.5 Q952 162 952 202 Q952 241 959.5 280 Q967 319 985 351 Q1003 383 1034.5 403 Q1066 423 1114 423 Q1164 423 1195 402 Q1226 381 1243.5 349 Q1261 317 1267 277.5 Q1273 238 1273 202 Z M1175 201 Q1175 262 1160 297 Q1145 332 1113 332 Q1081 332 1067 297 Q1053 262 1053 208 Q1053 182 1056 159 Q1059 136 1066 119 Q1073 102 1084.5 92.5 Q1096 83 1113 83 Q1148 83 1161.5 116 Q1175 149 1175 201 Z M352 471 Q352 430 343 392.5 Q334 355 314.5 326 Q295 297 264.5 279.5 Q234 262 191 262 Q146 262 115.5 279.5 Q85 297 66 326.5 Q47 356 39 393.5 Q31 431 31 471 Q31 510 38.5 549 Q46 588 64 620 Q82 652 113.5 672 Q145 692 193 692 Q243 692 274 671 Q305 650 322.5 618 Q340 586 346 546.5 Q352 507 352 471 Z M254 470 Q254 531 239 566 Q224 601 192 601 Q160 601 146 566 Q132 531 132 477 Q132 451 135 428 Q138 405 145 388 Q152 371 163.5 361.5 Q175 352 192 352 Q227 352 240.5 385 Q254 418 254 470 Z M326 0 L218 0 L575 680 L680 680 L326 0 Z M883 202 Q883 161 874 123.5 Q865 86 845.5 57 Q826 28 795.5 10.5 Q765 -7 722 -7 Q677 -7 646.5 10.5 Q616 28 597 57.5 Q578 87 570 124.5 Q562 162 562 202 Q562 241 569.5 280 Q577 319 595 351 Q613 383 644.5 403 Q676 423 724 423 Q774 423 805 402 Q836 381 853.5 349 Q871 317 877 277.5 Q883 238 883 202 Z M785 201 Q785 262 770 297 Q755 332 723 332 Q691 332 677 297 Q663 262 663 208 Q663 182 666 159 Q669 136 676 119 Q683 102 694.5 92.5 Q706 83 723 83 Q758 83 771.5 116 Q785 149 785 201 Z " />
<glyph glyph-name="guilsinglleft" unicode="&#x2039;" horiz-adv-x="264" d="M45 218 L45 363 L207 502 L207 370 L112 294 L207 212 L207 82 L45 218 Z " />
<glyph glyph-name="guilsinglright" unicode="&#x203a;" horiz-adv-x="264" d="M57 82 L57 212 L152 294 L57 370 L57 502 L219 363 L219 218 L57 82 Z " />
<glyph glyph-name="fraction" unicode="&#x2044;" horiz-adv-x="600" d="M612 680 L115 0 L-12 0 L486 680 L612 680 Z " />
<glyph glyph-name="Euro" unicode="&#x20ac;" horiz-adv-x="618" d="M582 156 Q571 121 553 90 Q535 59 508 36.5 Q481 14 444 1 Q407 -12 359 -12 Q306 -12 266 4 Q226 20 197 48.5 Q168 77 150 116 Q132 155 123 201 L30 201 L63 299 L109 299 L109 362 L33 362 L66 460 L120 460 Q128 505 146 547.5 Q164 590 193 622.5 Q222 655 264 674.5 Q306 694 362 694 Q406 694 441.5 681 Q477 668 504 645.5 Q531 623 549.5 593 Q568 563 578 529 L480 471 Q469 522 441 554.5 Q413 587 362 587 Q335 587 315 577 Q295 567 281 550 Q267 533 257.5 510 Q248 487 244 460 L461 460 L428 362 L234 362 L234 299 L409 299 L376 201 L248 201 Q259 155 284 125 Q309 95 362 95 Q387 95 405.5 103 Q424 111 437.5 124.5 Q451 138 460 156.5 Q469 175 475 196 L582 156 Z " />
<glyph glyph-name="trademark" unicode="&#x2122;" horiz-adv-x="878" d="M50 680 L379 680 L379 597 L259 597 L259 252 L170 252 L170 597 L50 597 L50 680 Z M724 250 L724 408 Q724 425 724 442.5 Q724 460 725 474 Q725 491 726 507 L724 507 Q719 491 715 474 Q710 460 705 442 Q700 424 695 407 L647 250 L579 250 L525 418 Q520 432 516 448 Q512 464 508 478 Q504 494 500 509 L498 509 Q498 490 499 472 Q499 457 499.5 440.5 Q500 424 500 413 L500 250 L415 250 L415 680 L520 680 L575 525 Q583 501 590 479 Q597 457 602 440 Q608 421 613 404 L615 404 Q619 421 628.5 456 Q638 491 649 525 L700 680 L808 680 L808 250 L724 250 Z " />
<glyph glyph-name="Omega" unicode="&#x2126;" horiz-adv-x="752" d="M376 586 Q323 586 284.5 568.5 Q246 551 220.5 521 Q195 491 182.5 452 Q170 413 170 371 Q170 284 212.5 214 Q255 144 329 100 L329 0 L50 0 L50 103 L176 103 Q114 157 83 229 Q52 301 52 376 Q52 436 72 493 Q92 550 132.5 594.5 Q173 639 234 665.5 Q295 692 376 692 Q457 692 518 665.5 Q579 639 619.5 594.5 Q660 550 680 493 Q700 436 700 376 Q700 301 669 229 Q638 157 576 103 L702 103 L702 0 L423 0 L423 100 Q497 144 539.5 214 Q582 284 582 371 Q582 413 569.5 452 Q557 491 531.5 521 Q506 551 467 568.5 Q428 586 376 586 Z " />
<glyph glyph-name="arrowleft" unicode="&#x2190;" horiz-adv-x="802" d="M757 188 L218 188 L414 0 L272 0 L35 238 L272 475 L414 475 L218 288 L757 288 L757 188 Z " />
<glyph glyph-name="arrowup" unicode="&#x2191;" horiz-adv-x="586" d="M55 485 L293 722 L531 485 L531 360 L346 544 L346 0 L240 0 L240 544 L55 360 L55 485 Z " />
<glyph glyph-name="arrowright" unicode="&#x2192;" horiz-adv-x="802" d="M530 475 L767 238 L530 0 L388 0 L584 188 L45 188 L45 288 L583 288 L388 475 L530 475 Z " />
<glyph glyph-name="arrowdown" unicode="&#x2193;" horiz-adv-x="586" d="M55 352 L240 168 L240 712 L346 712 L346 168 L531 352 L531 227 L293 -10 L55 227 L55 352 Z " />
<glyph glyph-name="uni2196" unicode="&#x2196;" horiz-adv-x="617" d="M525 -10 L155 355 L158 94 L62 184 L62 520 L398 520 L486 429 L227 431 L599 64 L525 -10 Z " />
<glyph glyph-name="uni2197" unicode="&#x2197;" horiz-adv-x="617" d="M219 520 L555 520 L555 184 L459 94 L461 355 L92 -10 L18 64 L390 431 L131 429 L219 520 Z " />
<glyph glyph-name="uni2198" unicode="&#x2198;" horiz-adv-x="617" d="M131 121 L390 119 L18 486 L92 560 L461 195 L459 456 L555 366 L555 30 L219 30 L131 121 Z " />
<glyph glyph-name="uni2199" unicode="&#x2199;" horiz-adv-x="617" d="M599 486 L227 119 L486 121 L398 30 L62 30 L62 366 L158 456 L155 195 L525 560 L599 486 Z " />
<glyph glyph-name="uni21A4" unicode="&#x21a4;" horiz-adv-x="822" d="M643 0 L643 188 L218 188 L414 0 L272 0 L35 238 L272 475 L414 475 L218 288 L643 288 L643 475 L757 475 L757 0 L643 0 Z " />
<glyph glyph-name="uni21A5" unicode="&#x21a5;" horiz-adv-x="586" d="M55 485 L293 722 L531 485 L531 360 L346 544 L346 100 L531 100 L531 0 L55 0 L55 100 L240 100 L240 544 L55 360 L55 485 Z " />
<glyph glyph-name="uni21A6" unicode="&#x21a6;" horiz-adv-x="822" d="M550 475 L787 238 L550 0 L408 0 L604 188 L179 188 L179 0 L65 0 L65 475 L179 475 L179 288 L603 288 L408 475 L550 475 Z " />
<glyph glyph-name="uni21A7" unicode="&#x21a7;" horiz-adv-x="586" d="M55 352 L240 168 L240 612 L55 612 L55 712 L531 712 L531 612 L346 612 L346 168 L531 352 L531 227 L293 -10 L55 227 L55 352 Z " />
<glyph glyph-name="uni21B0" unicode="&#x21b0;" horiz-adv-x="822" d="M272 0 L35 237 L272 475 L414 475 L218 287 L757 287 L757 0 L643 0 L643 187 L218 187 L414 0 L272 0 Z " />
<glyph glyph-name="uni21B1" unicode="&#x21b1;" horiz-adv-x="822" d="M408 0 L603 187 L179 187 L179 0 L65 0 L65 287 L604 287 L408 475 L550 475 L787 237 L550 0 L408 0 Z " />
<glyph glyph-name="uni21B2" unicode="&#x21b2;" horiz-adv-x="822" d="M414 475 L218 288 L643 288 L643 475 L757 475 L757 188 L218 188 L414 0 L272 0 L35 238 L272 475 L414 475 Z " />
<glyph glyph-name="uni21B3" unicode="&#x21b3;" horiz-adv-x="822" d="M550 475 L787 238 L550 0 L408 0 L604 188 L65 188 L65 475 L179 475 L179 288 L603 288 L408 475 L550 475 Z " />
<glyph glyph-name="uni21B4" unicode="&#x21b4;" horiz-adv-x="586" d="M346 712 L346 168 L531 352 L531 227 L293 -10 L55 227 L55 352 L240 168 L240 612 L55 612 L55 712 L346 712 Z " />
<glyph glyph-name="exclam" unicode="&#x21;" horiz-adv-x="253" d="M171 174 L84 174 L70 370 L70 680 L183 680 L183 370 L171 174 Z M187 127 L187 0 L65 0 L65 127 L187 127 Z " />
<glyph glyph-name="partialdiff" unicode="&#x2202;" horiz-adv-x="548" d="M258 89 Q321 89 354 144 Q387 199 389 295 Q375 323 339.5 345 Q304 367 259 367 Q235 367 213.5 358.5 Q192 350 175.5 333 Q159 316 149.5 290.5 Q140 265 140 231 Q140 166 173.5 127.5 Q207 89 258 89 Z M144 666 Q168 680 198 686 Q228 692 251 692 Q314 692 361 668 Q408 644 439 598 Q470 552 485 486.5 Q500 421 500 337 Q500 246 483 180.5 Q466 115 434.5 72.5 Q403 30 358 10 Q313 -10 258 -10 Q195 -10 151.5 11 Q108 32 81.5 66.5 Q55 101 43 145 Q31 189 31 235 Q31 292 48.5 335.5 Q66 379 96 408 Q126 437 166 451.5 Q206 466 251 466 Q295 466 328 453.5 Q361 441 386 421 Q381 504 346.5 547.5 Q312 591 255 591 Q237 591 218 586.5 Q199 582 181 572 L144 666 Z " />
<glyph glyph-name="Delta" unicode="&#x2206;" horiz-adv-x="669" d="M289 680 L380 680 L645 0 L24 0 L289 680 Z M172 99 L498 99 L335 520 L172 99 Z " />
<glyph glyph-name="product" unicode="&#x220f;" horiz-adv-x="825" d="M236 579 L236 -190 L124 -190 L124 579 L28 579 L28 680 L797 680 L797 579 L701 579 L701 -190 L589 -190 L589 579 L236 579 Z " />
<glyph glyph-name="summation" unicode="&#x2211;" horiz-adv-x="636" d="M266 242 L32 598 L32 680 L600 680 L600 579 L172 579 L393 245 L170 -88 L600 -88 L600 -190 L32 -190 L32 -112 L266 242 Z " />
<glyph glyph-name="minus" unicode="&#x2212;" horiz-adv-x="808" d="M68 246 L68 352 L740 352 L740 246 L68 246 Z " />
<glyph glyph-name="uni2219" unicode="&#x2219;" horiz-adv-x="246" d="M187 386 L187 254 L58 254 L58 386 L187 386 Z " />
<glyph glyph-name="radical" unicode="&#x221a;" horiz-adv-x="540" d="M531 680 L350 -3 L249 -3 L114 401 L20 401 L20 494 L204 494 L267 299 Q272 285 277.5 265 Q283 245 289 226 Q295 204 303 180 L304 180 Q309 202 314 224 Q319 243 323.5 263 Q328 283 333 300 L431 680 L531 680 Z " />
<glyph glyph-name="infinity" unicode="&#x221e;" horiz-adv-x="919" d="M870 331 Q870 295 858.5 261.5 Q847 228 824.5 202 Q802 176 768 160.5 Q734 145 689 145 Q655 145 622.5 156 Q590 167 560.5 184 Q531 201 504 222 Q477 243 454 263 Q429 242 402.5 221 Q376 200 347 182.5 Q318 165 287.5 154 Q257 143 224 143 Q177 143 144 158.5 Q111 174 90 199.5 Q69 225 59.5 258 Q50 291 50 325 Q50 366 61.5 400 Q73 434 95.5 458.5 Q118 483 151.5 496.5 Q185 510 228 510 Q258 510 286 501.5 Q314 493 342 477.5 Q370 462 399 440.5 Q428 419 461 393 Q485 412 511.5 432.5 Q538 453 566.5 470 Q595 487 627 498.5 Q659 510 694 510 Q738 510 771 495.5 Q804 481 826 456 Q848 431 859 399 Q870 367 870 331 Z M760 327 Q760 363 740.5 383 Q721 403 688 403 Q672 403 654 396.5 Q636 390 617.5 379.5 Q599 369 580.5 355.5 Q562 342 545 329 Q562 317 581.5 303.5 Q601 290 621 278.5 Q641 267 659.5 259.5 Q678 252 693 252 Q726 252 743 273.5 Q760 295 760 327 Z M229 252 Q245 252 263.5 259 Q282 266 301 276.5 Q320 287 338 300 Q356 313 373 326 Q355 339 335.5 353 Q316 367 297 378 Q278 389 260 396 Q242 403 227 403 Q195 403 177 381.5 Q159 360 159 328 Q159 293 177.5 272.5 Q196 252 229 252 Z " />
<glyph glyph-name="uni2224" unicode="&#x2224;" horiz-adv-x="286" d="M207 386 L207 254 L78 254 L78 386 L207 386 Z " />
<glyph glyph-name="logicaland" unicode="&#x2227;" horiz-adv-x="246" d="M187 386 L187 254 L58 254 L58 386 L187 386 Z " />
<glyph glyph-name="integral" unicode="&#x222b;" horiz-adv-x="482" d="M25 -89 Q38 -93 53.5 -95.5 Q69 -98 83 -98 Q99 -98 109 -93.5 Q119 -89 125 -80 Q131 -71 134.5 -57 Q138 -43 141 -25 L246 585 Q257 648 286.5 675 Q316 702 370 702 Q399 702 428.5 696.5 Q458 691 488 681 L465 586 Q441 591 428 593.5 Q415 596 401 596 Q369 596 360 579.5 Q351 563 346 531 L242 -69 Q231 -135 199 -168.5 Q167 -202 99 -202 Q77 -202 50.5 -199 Q24 -196 -11 -185 L25 -89 Z " />
<glyph glyph-name="approxequal" unicode="&#x2248;" horiz-adv-x="609" d="M559 366 Q529 328 485 307.5 Q441 287 399 287 Q381 287 366 290 Q351 293 337.5 298 Q324 303 310 310 Q296 317 280 325 Q265 333 244 341.5 Q223 350 204 350 Q187 350 163 340.5 Q139 331 107 292 L52 377 Q59 389 73.5 404 Q88 419 107.5 431.5 Q127 444 152 453 Q177 462 206 462 Q239 462 266.5 450.5 Q294 439 325 423 Q342 415 359.5 406 Q377 397 403 397 Q431 397 460 411.5 Q489 426 509 449 L559 366 Z M559 150 Q529 112 485 91.5 Q441 71 399 71 Q381 71 366 74 Q351 77 337.5 82 Q324 87 310 94 Q296 101 280 109 Q265 117 244 125.5 Q223 134 204 134 Q187 134 163 124.5 Q139 115 107 76 L52 161 Q59 173 73.5 188 Q88 203 107.5 215.5 Q127 228 152 237 Q177 246 206 246 Q239 246 266.5 234.5 Q294 223 325 207 Q342 199 359.5 190 Q377 181 403 181 Q431 181 460 195.5 Q489 210 509 233 L559 150 Z " />
<glyph glyph-name="notequal" unicode="&#x2260;" horiz-adv-x="775" d="M724 332 L437 332 L396 254 L724 254 L724 166 L350 166 L262 0 L167 0 L256 166 L50 166 L50 254 L302 254 L342 332 L50 332 L50 420 L389 420 L483 595 L576 595 L484 420 L724 420 L724 332 Z " />
<glyph glyph-name="lessequal" unicode="&#x2264;" horiz-adv-x="775" d="M45 0 L45 106 L723 106 L723 0 L45 0 Z M723 116 L45 364 L45 452 L723 698 L723 588 L194 410 L723 225 L723 116 Z " />
<glyph glyph-name="greaterequal" unicode="&#x2265;" horiz-adv-x="775" d="M52 0 L52 106 L730 106 L730 0 L52 0 Z M52 225 L581 410 L52 588 L52 698 L730 452 L730 364 L52 116 L52 225 Z " />
<glyph glyph-name="dotmath" unicode="&#x22c5;" horiz-adv-x="246" d="M187 386 L187 254 L58 254 L58 386 L187 386 Z " />
<glyph glyph-name="lozenge" unicode="&#x25ca;" horiz-adv-x="548" d="M314 680 L521 338 L314 0 L236 0 L28 338 L236 680 L314 680 Z M397 338 L275 543 L152 338 L275 136 L397 338 Z " />
<glyph glyph-name="uni2B0F" unicode="&#x2b0f;" horiz-adv-x="586" d="M55 485 L293 722 L531 485 L531 360 L346 544 L346 0 L55 0 L55 100 L240 100 L240 544 L55 360 L55 485 Z " />
<glyph glyph-name="uni2B10" unicode="&#x2b10;" horiz-adv-x="586" d="M531 712 L531 612 L346 612 L346 168 L531 352 L531 227 L293 -10 L55 227 L55 352 L240 168 L240 712 L531 712 Z " />
<glyph glyph-name="uni2B11" unicode="&#x2b11;" horiz-adv-x="586" d="M531 360 L346 544 L346 100 L531 100 L531 0 L240 0 L240 544 L55 360 L55 485 L293 722 L531 485 L531 360 Z " />
<glyph glyph-name="uniF8FF" unicode="&#xf8ff;" horiz-adv-x="823" d="M40 361 Q40 438 69 505.5 Q98 573 148.5 623.5 Q199 674 266.5 703.5 Q334 733 411 733 Q488 733 555.5 703.5 Q623 674 673.5 623.5 Q724 573 753.5 505.5 Q783 438 783 361 Q783 284 753.5 216.5 Q724 149 673.5 98.5 Q623 48 555.5 19 Q488 -10 411 -10 Q334 -10 266.5 19 Q199 48 148.5 98.5 Q98 149 69 216.5 Q40 284 40 361 Z " />
<glyph glyph-name="fi" unicode="&#xfb01;" horiz-adv-x="578" d="M515 0 L401 0 L401 475 L515 475 L515 0 Z M515 564 L401 564 L401 680 L515 680 L515 564 Z M332 387 L218 387 L218 0 L104 0 L104 387 L20 387 L20 476 L104 476 L104 532 Q104 564 107.5 584 Q111 604 118 621 Q133 656 166.5 671.5 Q200 687 257 687 Q282 687 300.5 685.5 Q319 684 332 682 L332 590 Q322 591 313.5 591.5 Q305 592 291 592 Q266 592 251 588 Q236 584 228 573 Q218 559 218 523 L218 476 L332 476 L332 387 Z " />
<glyph glyph-name="fl" unicode="&#xfb02;" horiz-adv-x="582" d="M515 0 L401 0 L401 680 L515 680 L515 0 Z M332 387 L218 387 L218 0 L104 0 L104 387 L20 387 L20 476 L104 476 L104 532 Q104 564 107.5 584 Q111 604 118 621 Q133 656 166.5 671.5 Q200 687 257 687 Q282 687 300.5 685.5 Q319 684 332 682 L332 590 Q322 591 313.5 591.5 Q305 592 291 592 Q266 592 251 588 Q236 584 228 573 Q218 559 218 523 L218 476 L332 476 L332 387 Z " />
<glyph glyph-name="commaaccent" unicode="&#xf6c3;" horiz-adv-x="209" d="M169 -60 L169 -112 Q169 -126 168.5 -141.5 Q168 -157 167 -169 Q164 -196 157 -218 Q150 -240 136 -255.5 Q122 -271 98.5 -279.5 Q75 -288 40 -289 L40 -224 Q68 -222 82.5 -210.5 Q97 -199 97 -173 L97 -171 L40 -171 L40 -60 L169 -60 Z " />
<glyph glyph-name="enspace" unicode="&#x2002;" horiz-adv-x="500" d="" />
<glyph glyph-name="emspace" unicode="&#x2003;" horiz-adv-x="1000" d="" />
<glyph glyph-name="threeperemspace" unicode="&#x2004;" horiz-adv-x="333" d="" />
<glyph glyph-name="fourperemspace" unicode="&#x2005;" horiz-adv-x="250" d="" />
<glyph glyph-name="thinspace" unicode="&#x2009;" horiz-adv-x="133" d="" />
<glyph glyph-name="hairspace" unicode="&#x200a;" horiz-adv-x="75" d="" />
<glyph glyph-name="quotedbl" unicode="&#x22;" horiz-adv-x="396" d="M145 387 L70 387 L51 600 L51 680 L167 680 L167 600 L145 387 Z M324 387 L249 387 L230 600 L230 680 L346 680 L346 600 L324 387 Z " />
</font>
</svg>
